<?xml version="1.0" encoding="UTF-8" standalone="no"?>
<!-- Generator: Adobe Illustrator 24.1.0, SVG Export Plug-In . SVG Version: 6.00 Build 0)  -->

<svg
   xmlns:dc="http://purl.org/dc/elements/1.1/"
   xmlns:cc="http://creativecommons.org/ns#"
   xmlns:rdf="http://www.w3.org/1999/02/22-rdf-syntax-ns#"
   xmlns:svg="http://www.w3.org/2000/svg"
   xmlns="http://www.w3.org/2000/svg"
   xmlns:sodipodi="http://sodipodi.sourceforge.net/DTD/sodipodi-0.dtd"
   xmlns:inkscape="http://www.inkscape.org/namespaces/inkscape"
   version="1.1"
   id="Layer_1"
   x="0px"
   y="0px"
   viewBox="0 0 400 500"
   style="enable-background:new 0 0 400 500;"
   xml:space="preserve"
   sodipodi:docname="events-icon.svg"
   inkscape:version="0.92.2 5c3e80d, 2017-08-06"><metadata
     id="metadata65"><rdf:RDF><cc:Work
         rdf:about=""><dc:format>image/svg+xml</dc:format><dc:type
           rdf:resource="http://purl.org/dc/dcmitype/StillImage" /></cc:Work></rdf:RDF></metadata><defs
     id="defs63" /><sodipodi:namedview
     pagecolor="#ffffff"
     bordercolor="#666666"
     borderopacity="1"
     objecttolerance="10"
     gridtolerance="10"
     guidetolerance="10"
     inkscape:pageopacity="0"
     inkscape:pageshadow="2"
     inkscape:window-width="1636"
     inkscape:window-height="971"
     id="namedview61"
     showgrid="false"
     inkscape:zoom="1.0719739"
     inkscape:cx="266.59229"
     inkscape:cy="328.19212"
     inkscape:window-x="0"
     inkscape:window-y="0"
     inkscape:window-maximized="0"
     inkscape:current-layer="Layer_1" /><style
     type="text/css"
     id="style2">
	.st0{display:none;}
	.st1{display:inline;}
	.st2{fill:#FFFFFF;}
	.st3{fill:none;stroke:#000000;stroke-width:10;stroke-miterlimit:10;}
</style><g
     id="lugares"
     style="stroke:#4d1d69;stroke-opacity:0.95294118;fill:#4d1d69;fill-opacity:1;opacity:0.95;stroke-width:2;stroke-miterlimit:4;stroke-dasharray:none"><path
       d="M301,203.9c-1.4,4.3-3.1,8.6-5.2,13.1c4,10.9,6.2,22.6,6.2,34.9c-0.1,19.3-5.5,37.3-14.8,52.7c-3.7-14.5-11.7-31-22-42.7   c-1.8,2-3.2,3.4-4,4.3c-1,1-2.1,1.8-3.3,2.5c11.4,12.8,19.8,33.1,21.4,47.3c-18.7,23-47.2,37.8-79.2,37.8c-9.8,0-19.2-1.4-28.1-4   c2.1-16.4,10.7-31.4,23.9-41.7c12.3-9.6,17.8-22.6,14.8-34.7c-3.4-13.6-16.9-23.7-36-27.1c-0.2,0-0.5-0.1-1-0.1   c-12.1-1.2-21.1-5.2-25.3-11.1c-3-4.2-3.7-9.6-2.2-16.3c2.2-9.6,11.1-14.4,20.4-19.5c10.4-5.7,22.1-12.1,24-26.1   c1.1-8.4-1.7-16-7.9-21.7c5.7-1,11.5-1.5,17.4-1.5c1.8,0,3.6,0,5.4,0.1c2.3-3.4,5-6.5,8-9.3c-4.4-0.5-8.9-0.8-13.4-0.8   c-11.1,0-21.7,1.6-31.8,4.6c-0.5,0.1-0.9,0.2-1.3,0.4c-32.6,10.1-58.9,34.8-71.2,66.4c-0.2,0.3-0.4,0.7-0.5,1.1   c-0.1,0.2-0.1,0.4-0.2,0.6c-4.5,12.1-7,25.2-7,38.9c0,41.9,23.2,78.5,57.3,97.7c0.3,0.2,0.5,0.3,0.8,0.4c5.9,3.3,12.2,6,18.7,8.2   c0.1,0,0.2,0.1,0.3,0.1c10.9,3.6,22.6,5.5,34.8,5.5c61.7,0,111.9-50.2,111.9-111.9C311.8,234.8,307.9,218.4,301,203.9z M98.1,251.8   c0-7.7,0.9-15.3,2.5-22.5c3,3.3,6.7,6.4,10.3,9.3c7.2,5.9,14.7,12.1,13.6,17.6c-5.8,27.6,3.8,45,11.5,58.9c4.5,8,8.2,14.8,8.4,22   C116.5,318.9,98.1,287.5,98.1,251.8z M162.3,346.4c-2.9-1.1-5.6-2.3-8.3-3.7c2-12.1-3.5-22-9.3-32.4c-7.3-13.2-15.6-28.1-10.5-52   c2.4-11.5-7.9-20-17-27.4c-6.5-5.3-13.2-10.8-12.5-15.2c11-29,34.9-51.7,64.6-61.1c0.8,0.3,2.2,0.9,3.7,1.9   c4.1,2.6,8.8,7.4,7.7,15.3c-1.2,9.1-9.4,13.5-18.9,18.7c-10.3,5.7-22.1,12.1-25.3,26c-2.2,9.6-1,17.8,3.8,24.4   c6,8.4,17.2,13.7,32.4,15.2h0.4c15,2.6,25.5,10,27.9,19.6c2.1,8.3-2,17.2-11.3,24.4C175,311.6,165.2,328.2,162.3,346.4z"
       id="path4"
       style="stroke:#4d1d69;stroke-opacity:0.95294118;fill:#4d1d69;fill-opacity:1;stroke-width:2;stroke-miterlimit:4;stroke-dasharray:none" /><g
       id="Layer_2_1_"
       style="stroke:#4d1d69;stroke-opacity:0.95294118;fill:#4d1d69;fill-opacity:1;stroke-width:2;stroke-miterlimit:4;stroke-dasharray:none"><path
         d="M247.3,252.4L247.3,252.4z M250.4,260.6c-1.4,0-2.6-0.6-3.6-1.6c-4.2-4.2-40.9-42.7-40.9-78.4c0-24.5,19.9-44.5,44.4-44.5    s44.5,19.9,44.5,44.4l0,0c0,35.7-36.7,74.2-40.9,78.5C253.1,260,251.8,260.6,250.4,260.6z M250.4,145.6c-19.3,0-35,15.7-35,35    c0,27.3,25.8,58.4,35,68.5c9.2-10.2,35-41.2,35-68.5C285.4,161.3,269.8,145.6,250.4,145.6z"
         id="path6"
         style="stroke:#4d1d69;stroke-opacity:0.95294118;fill:#4d1d69;fill-opacity:1;stroke-width:2;stroke-miterlimit:4;stroke-dasharray:none" /><path
         d="M250.4,201.8c-11.4,0-20.7-9.3-20.7-20.7s9.3-20.7,20.7-20.7c11.4,0,20.7,9.3,20.7,20.7S261.9,201.8,250.4,201.8z     M250.4,169.8c-6.2,0-11.2,5-11.2,11.2s5,11.2,11.2,11.2c6.2,0,11.2-5,11.2-11.2l0,0C261.7,174.9,256.6,169.8,250.4,169.8    L250.4,169.8z"
         id="path8"
         style="stroke:#4d1d69;stroke-opacity:0.95294118;fill:#4d1d69;fill-opacity:1;stroke-width:2;stroke-miterlimit:4;stroke-dasharray:none" /></g></g><g
     id="Layer_8"
     class="st0"><g
       class="st1"
       id="g24"><g
         id="g16"><path
           d="M621.3,172.3c-7.8,0-14.2,6.4-14.2,14.2c0,3.8,1.5,7.3,4.1,10c2.7,2.7,6.3,4.2,10.1,4.2c7.9,0,14.2-6.3,14.2-14.1     C635.5,178.7,629.1,172.3,621.3,172.3z M621.3,195c-2.3,0-4.5-0.9-6.1-2.5s-2.5-3.7-2.5-6c0-4.7,3.8-8.5,8.6-8.5     c4.7,0,8.6,3.8,8.6,8.5C629.9,191.1,626,195,621.3,195z"
           id="path12" /><path
           d="M621.3,177c-5.3,0-9.6,4.3-9.6,9.5c0,2.5,1,4.9,2.8,6.7s4.2,2.8,6.8,2.8c5.3,0,9.6-4.3,9.6-9.5     C630.9,181.2,626.6,177,621.3,177z M621.3,194c-2,0-4-0.8-5.4-2.2s-2.2-3.3-2.2-5.2c0-4.1,3.4-7.5,7.6-7.5c4.2,0,7.6,3.4,7.6,7.5     C628.9,190.6,625.5,194,621.3,194z M621.3,177c-5.3,0-9.6,4.3-9.6,9.5c0,2.5,1,4.9,2.8,6.7s4.2,2.8,6.8,2.8     c5.3,0,9.6-4.3,9.6-9.5C630.9,181.2,626.6,177,621.3,177z M621.3,194c-2,0-4-0.8-5.4-2.2s-2.2-3.3-2.2-5.2c0-4.1,3.4-7.5,7.6-7.5     c4.2,0,7.6,3.4,7.6,7.5C628.9,190.6,625.5,194,621.3,194z M621.3,177c-5.3,0-9.6,4.3-9.6,9.5c0,2.5,1,4.9,2.8,6.7     s4.2,2.8,6.8,2.8c5.3,0,9.6-4.3,9.6-9.5C630.9,181.2,626.6,177,621.3,177z M621.3,194c-2,0-4-0.8-5.4-2.2s-2.2-3.3-2.2-5.2     c0-4.1,3.4-7.5,7.6-7.5c4.2,0,7.6,3.4,7.6,7.5C628.9,190.6,625.5,194,621.3,194z M621.3,177c-5.3,0-9.6,4.3-9.6,9.5     c0,2.5,1,4.9,2.8,6.7s4.2,2.8,6.8,2.8c5.3,0,9.6-4.3,9.6-9.5C630.9,181.2,626.6,177,621.3,177z M621.3,194c-2,0-4-0.8-5.4-2.2     s-2.2-3.3-2.2-5.2c0-4.1,3.4-7.5,7.6-7.5c4.2,0,7.6,3.4,7.6,7.5C628.9,190.6,625.5,194,621.3,194z M621.3,177     c-5.3,0-9.6,4.3-9.6,9.5c0,2.5,1,4.9,2.8,6.7s4.2,2.8,6.8,2.8c5.3,0,9.6-4.3,9.6-9.5C630.9,181.2,626.6,177,621.3,177z      M621.3,194c-2,0-4-0.8-5.4-2.2s-2.2-3.3-2.2-5.2c0-4.1,3.4-7.5,7.6-7.5c4.2,0,7.6,3.4,7.6,7.5C628.9,190.6,625.5,194,621.3,194z      M621.3,177c-5.3,0-9.6,4.3-9.6,9.5c0,2.5,1,4.9,2.8,6.7s4.2,2.8,6.8,2.8c5.3,0,9.6-4.3,9.6-9.5C630.9,181.2,626.6,177,621.3,177     z M621.3,194c-2,0-4-0.8-5.4-2.2s-2.2-3.3-2.2-5.2c0-4.1,3.4-7.5,7.6-7.5c4.2,0,7.6,3.4,7.6,7.5C628.9,190.6,625.5,194,621.3,194     z M621.3,177c-5.3,0-9.6,4.3-9.6,9.5c0,2.5,1,4.9,2.8,6.7s4.2,2.8,6.8,2.8c5.3,0,9.6-4.3,9.6-9.5     C630.9,181.2,626.6,177,621.3,177z M621.3,194c-2,0-4-0.8-5.4-2.2s-2.2-3.3-2.2-5.2c0-4.1,3.4-7.5,7.6-7.5c4.2,0,7.6,3.4,7.6,7.5     C628.9,190.6,625.5,194,621.3,194z M621.3,177c-5.3,0-9.6,4.3-9.6,9.5c0,2.5,1,4.9,2.8,6.7s4.2,2.8,6.8,2.8     c5.3,0,9.6-4.3,9.6-9.5C630.9,181.2,626.6,177,621.3,177z M621.3,194c-2,0-4-0.8-5.4-2.2s-2.2-3.3-2.2-5.2c0-4.1,3.4-7.5,7.6-7.5     c4.2,0,7.6,3.4,7.6,7.5C628.9,190.6,625.5,194,621.3,194z M621.3,171.3c-8.4,0-15.2,6.8-15.2,15.2c0,4,1.5,7.8,4.4,10.7     s6.7,4.5,10.8,4.5c8.4,0,15.2-6.8,15.2-15.1C636.5,178.1,629.7,171.3,621.3,171.3z M621.3,199.6c-3.6,0-6.9-1.4-9.4-3.9     s-3.8-5.8-3.8-9.2c0-7.2,5.9-13.2,13.2-13.2s13.2,5.9,13.2,13.2C634.5,193.7,628.6,199.6,621.3,199.6z M621.3,177     c-5.3,0-9.6,4.3-9.6,9.5c0,2.5,1,4.9,2.8,6.7s4.2,2.8,6.8,2.8c5.3,0,9.6-4.3,9.6-9.5C630.9,181.2,626.6,177,621.3,177z      M621.3,194c-2,0-4-0.8-5.4-2.2s-2.2-3.3-2.2-5.2c0-4.1,3.4-7.5,7.6-7.5c4.2,0,7.6,3.4,7.6,7.5C628.9,190.6,625.5,194,621.3,194z      M621.3,177c-5.3,0-9.6,4.3-9.6,9.5c0,2.5,1,4.9,2.8,6.7s4.2,2.8,6.8,2.8c5.3,0,9.6-4.3,9.6-9.5C630.9,181.2,626.6,177,621.3,177     z M621.3,194c-2,0-4-0.8-5.4-2.2s-2.2-3.3-2.2-5.2c0-4.1,3.4-7.5,7.6-7.5c4.2,0,7.6,3.4,7.6,7.5C628.9,190.6,625.5,194,621.3,194     z M621.3,177c-5.3,0-9.6,4.3-9.6,9.5c0,2.5,1,4.9,2.8,6.7s4.2,2.8,6.8,2.8c5.3,0,9.6-4.3,9.6-9.5     C630.9,181.2,626.6,177,621.3,177z M621.3,194c-2,0-4-0.8-5.4-2.2s-2.2-3.3-2.2-5.2c0-4.1,3.4-7.5,7.6-7.5c4.2,0,7.6,3.4,7.6,7.5     C628.9,190.6,625.5,194,621.3,194z M621.3,177c-5.3,0-9.6,4.3-9.6,9.5c0,2.5,1,4.9,2.8,6.7s4.2,2.8,6.8,2.8     c5.3,0,9.6-4.3,9.6-9.5C630.9,181.2,626.6,177,621.3,177z M621.3,194c-2,0-4-0.8-5.4-2.2s-2.2-3.3-2.2-5.2c0-4.1,3.4-7.5,7.6-7.5     c4.2,0,7.6,3.4,7.6,7.5C628.9,190.6,625.5,194,621.3,194z M621.3,177c-5.3,0-9.6,4.3-9.6,9.5c0,2.5,1,4.9,2.8,6.7     s4.2,2.8,6.8,2.8c5.3,0,9.6-4.3,9.6-9.5C630.9,181.2,626.6,177,621.3,177z M621.3,194c-2,0-4-0.8-5.4-2.2s-2.2-3.3-2.2-5.2     c0-4.1,3.4-7.5,7.6-7.5c4.2,0,7.6,3.4,7.6,7.5C628.9,190.6,625.5,194,621.3,194z M621.3,177c-5.3,0-9.6,4.3-9.6,9.5     c0,2.5,1,4.9,2.8,6.7s4.2,2.8,6.8,2.8c5.3,0,9.6-4.3,9.6-9.5C630.9,181.2,626.6,177,621.3,177z M621.3,194c-2,0-4-0.8-5.4-2.2     s-2.2-3.3-2.2-5.2c0-4.1,3.4-7.5,7.6-7.5c4.2,0,7.6,3.4,7.6,7.5C628.9,190.6,625.5,194,621.3,194z M621.3,177     c-5.3,0-9.6,4.3-9.6,9.5c0,2.5,1,4.9,2.8,6.7s4.2,2.8,6.8,2.8c5.3,0,9.6-4.3,9.6-9.5C630.9,181.2,626.6,177,621.3,177z      M621.3,194c-2,0-4-0.8-5.4-2.2s-2.2-3.3-2.2-5.2c0-4.1,3.4-7.5,7.6-7.5c4.2,0,7.6,3.4,7.6,7.5C628.9,190.6,625.5,194,621.3,194z     "
           id="path14" /></g><g
         id="g22"><path
           d="M643.7,264.8c-3.5-12.6-5-25.6-4.6-38.6l0.1-4.1c0.1-4.1,2-7.9,5.1-10.6c1.8-1.5,3.5-3.2,5-5.1     c7-8.4,10.9-19.5,10.9-31.2c0-2.1-0.8-4.1-2.3-5.6s-3.5-2.3-5.6-2.3c-4.4,0-7.9,3.5-7.9,7.9c0,16-10.4,29.1-23.1,29.1     c-10.5,0-19.4-8.8-22.2-20.9c-0.2,0.4-0.5,0.8-0.7,1.2c-0.8,1.3-1.7,2.6-2.6,3.9c0-0.1-0.1-0.2-0.1-0.4L595,189     c0,0.1,0.1,0.3,0.1,0.4c4.5,12.1,14.6,20.5,26.2,20.5c15.9,0,28.8-15.6,28.8-34.7c0-1.2,1-2.2,2.2-2.2c0.6,0,1.2,0.2,1.6,0.7     c0.4,0.4,0.7,1,0.6,1.6c0,10.4-3.4,20.2-9.6,27.6c-1.3,1.6-2.8,3.1-4.3,4.4c-4.4,3.7-6.9,9-7.1,14.8l-0.1,4.1     c-0.4,13.6,1.2,27.1,4.8,40.2l7,25.5c0.5,1.9-0.6,3.8-2.4,4.3c-0.3,0.1-0.6,0.1-0.9,0.1c-1.5,0-2.9-1-3.3-2.6L625,248.5     c-0.5-1.6-2-2.7-3.7-2.7s-3.2,1.1-3.6,2.7l-13.6,45.1v0.1c-0.5,1.8-2.4,2.9-4.2,2.4c-0.9-0.2-1.6-0.8-2.1-1.6     c-0.5-0.8-0.6-1.7-0.3-2.6l6.9-25.5c3.6-13.1,5.2-26.7,4.8-40.2l-0.1-4.1c-0.2-5.7-2.7-11.1-7.1-14.7c-1.5-1.3-3-2.8-4.3-4.4     c-2.3-2.8-4.3-5.9-5.8-9.3l0,0c-0.1-0.1-0.1-0.2-0.2-0.3L591,194c0,0.1,0.1,0.2,0.1,0.3c-0.9,1-1.8,2-2.7,2.9     c-0.2,0.3-0.5,0.5-0.7,0.8c1.5,3,3.4,5.9,5.6,8.4c1.6,1.9,3.2,3.5,5,5.1c3.1,2.6,5,6.5,5.1,10.6l0.1,4.1c0.3,13-1.2,26-4.7,38.6     l-6.9,25.5c-0.6,2.3-0.3,4.8,0.9,6.9s3.2,3.6,5.5,4.3c4.8,1.3,9.8-1.5,11.2-6.4l11.8-39.2l11.8,39.2c1.1,3.9,4.7,6.7,8.8,6.7     c0.8,0,1.6-0.1,2.4-0.3c4.8-1.3,7.7-6.4,6.4-11.2L643.7,264.8z"
           id="path18" /><path
           d="M639.2,266c-3.6-13-5.2-26.5-4.8-39.9l0.1-4.1c0.2-5.4,2.6-10.5,6.7-14c1.6-1.3,3.1-2.8,4.5-4.5     c6.3-7.5,9.8-17.6,9.8-28.2c0-0.9-0.3-1.7-0.9-2.3c-0.6-0.6-1.4-1-2.3-1c-1.8,0-3.2,1.5-3.2,3.2c0,18.6-12.5,33.7-27.8,33.7     c-11.5,0-21.3-8.5-25.5-20.5c0-0.1-0.1-0.2-0.1-0.4l-0.7,0.9l-0.7,0.9c0,0.1,0.1,0.3,0.2,0.4c4.8,12.1,15,20.6,27,20.6     c16.4,0,29.8-16,29.8-35.7c0-0.7,0.6-1.2,1.2-1.2c0.3,0,0.7,0.1,0.9,0.4c0.2,0.2,0.4,0.5,0.3,0.9c0,10.2-3.3,19.7-9.4,26.9     c-1.3,1.5-2.7,3-4.2,4.2c-4.6,3.9-7.3,9.5-7.5,15.5l-0.1,4.1c-0.4,13.7,1.2,27.3,4.9,40.5l7,25.5c0.4,1.3-0.4,2.7-1.7,3.1     c-0.2,0.1-0.5,0.1-0.7,0.1c-1.1,0-2.1-0.8-2.4-1.8L626,248.1c-0.6-2-2.5-3.4-4.6-3.4s-4,1.4-4.6,3.4l-13.6,45.2     c-0.2,0.6-0.6,1.2-1.2,1.5c-0.6,0.3-1.2,0.4-1.9,0.2c-0.6-0.2-1.2-0.6-1.5-1.2s-0.4-1.2-0.2-1.9l6.9-25.5     c3.6-13.2,5.2-26.8,4.9-40.5l-0.1-4.1c-0.2-6-2.9-11.6-7.4-15.5c-1.5-1.3-2.9-2.7-4.2-4.2c-2.4-2.9-4.4-6.1-5.9-9.6     c0-0.1-0.1-0.2-0.2-0.4l-0.7,0.9l-0.7,1c0,0.1,0.1,0.2,0.1,0.3c1.5,3.3,3.4,6.4,5.8,9.1c1.4,1.6,2.9,3.2,4.5,4.5     c4.1,3.5,6.6,8.6,6.7,14l0.1,4.1c0.4,13.5-1.2,26.9-4.8,40l-6.9,25.5c-0.3,1.2-0.2,2.4,0.4,3.4c0.6,1,1.6,1.8,2.7,2.1     c1.1,0.3,2.3,0.2,3.4-0.4c1-0.6,1.8-1.6,2.1-2.7l13.5-45.1c0.4-1.2,1.5-2,2.7-2s2.3,0.8,2.7,2l13.6,45.1c0.5,1.9,2.3,3.3,4.3,3.3     c0.4,0,0.8-0.1,1.2-0.2c2.4-0.7,3.8-3.1,3.1-5.5L639.2,266z M639.2,266c-3.6-13-5.2-26.5-4.8-39.9l0.1-4.1     c0.2-5.4,2.6-10.5,6.7-14c1.6-1.3,3.1-2.8,4.5-4.5c6.3-7.5,9.8-17.6,9.8-28.2c0-0.9-0.3-1.7-0.9-2.3c-0.6-0.6-1.4-1-2.3-1     c-1.8,0-3.2,1.5-3.2,3.2c0,18.6-12.5,33.7-27.8,33.7c-11.5,0-21.3-8.5-25.5-20.5c0-0.1-0.1-0.2-0.1-0.4l-0.7,0.9l-0.7,0.9     c0,0.1,0.1,0.3,0.2,0.4c4.8,12.1,15,20.6,27,20.6c16.4,0,29.8-16,29.8-35.7c0-0.7,0.6-1.2,1.2-1.2c0.3,0,0.7,0.1,0.9,0.4     c0.2,0.2,0.4,0.5,0.3,0.9c0,10.2-3.3,19.7-9.4,26.9c-1.3,1.5-2.7,3-4.2,4.2c-4.6,3.9-7.3,9.5-7.5,15.5l-0.1,4.1     c-0.4,13.7,1.2,27.3,4.9,40.5l7,25.5c0.4,1.3-0.4,2.7-1.7,3.1c-0.2,0.1-0.5,0.1-0.7,0.1c-1.1,0-2.1-0.8-2.4-1.8L626,248.1     c-0.6-2-2.5-3.4-4.6-3.4s-4,1.4-4.6,3.4l-13.6,45.2c-0.2,0.6-0.6,1.2-1.2,1.5c-0.6,0.3-1.2,0.4-1.9,0.2c-0.6-0.2-1.2-0.6-1.5-1.2     s-0.4-1.2-0.2-1.9l6.9-25.5c3.6-13.2,5.2-26.8,4.9-40.5l-0.1-4.1c-0.2-6-2.9-11.6-7.4-15.5c-1.5-1.3-2.9-2.7-4.2-4.2     c-2.4-2.9-4.4-6.1-5.9-9.6c0-0.1-0.1-0.2-0.2-0.4l-0.7,0.9l-0.7,1c0,0.1,0.1,0.2,0.1,0.3c1.5,3.3,3.4,6.4,5.8,9.1     c1.4,1.6,2.9,3.2,4.5,4.5c4.1,3.5,6.6,8.6,6.7,14l0.1,4.1c0.4,13.5-1.2,26.9-4.8,40l-6.9,25.5c-0.3,1.2-0.2,2.4,0.4,3.4     c0.6,1,1.6,1.8,2.7,2.1c1.1,0.3,2.3,0.2,3.4-0.4c1-0.6,1.8-1.6,2.1-2.7l13.5-45.1c0.4-1.2,1.5-2,2.7-2s2.3,0.8,2.7,2l13.6,45.1     c0.5,1.9,2.3,3.3,4.3,3.3c0.4,0,0.8-0.1,1.2-0.2c2.4-0.7,3.8-3.1,3.1-5.5L639.2,266z M639.2,266c-3.6-13-5.2-26.5-4.8-39.9     l0.1-4.1c0.2-5.4,2.6-10.5,6.7-14c1.6-1.3,3.1-2.8,4.5-4.5c6.3-7.5,9.8-17.6,9.8-28.2c0-0.9-0.3-1.7-0.9-2.3     c-0.6-0.6-1.4-1-2.3-1c-1.8,0-3.2,1.5-3.2,3.2c0,18.6-12.5,33.7-27.8,33.7c-11.5,0-21.3-8.5-25.5-20.5c0-0.1-0.1-0.2-0.1-0.4     l-0.7,0.9l-0.7,0.9c0,0.1,0.1,0.3,0.2,0.4c4.8,12.1,15,20.6,27,20.6c16.4,0,29.8-16,29.8-35.7c0-0.7,0.6-1.2,1.2-1.2     c0.3,0,0.7,0.1,0.9,0.4c0.2,0.2,0.4,0.5,0.3,0.9c0,10.2-3.3,19.7-9.4,26.9c-1.3,1.5-2.7,3-4.2,4.2c-4.6,3.9-7.3,9.5-7.5,15.5     l-0.1,4.1c-0.4,13.7,1.2,27.3,4.9,40.5l7,25.5c0.4,1.3-0.4,2.7-1.7,3.1c-0.2,0.1-0.5,0.1-0.7,0.1c-1.1,0-2.1-0.8-2.4-1.8     L626,248.1c-0.6-2-2.5-3.4-4.6-3.4s-4,1.4-4.6,3.4l-13.6,45.2c-0.2,0.6-0.6,1.2-1.2,1.5c-0.6,0.3-1.2,0.4-1.9,0.2     c-0.6-0.2-1.2-0.6-1.5-1.2s-0.4-1.2-0.2-1.9l6.9-25.5c3.6-13.2,5.2-26.8,4.9-40.5l-0.1-4.1c-0.2-6-2.9-11.6-7.4-15.5     c-1.5-1.3-2.9-2.7-4.2-4.2c-2.4-2.9-4.4-6.1-5.9-9.6c0-0.1-0.1-0.2-0.2-0.4l-0.7,0.9l-0.7,1c0,0.1,0.1,0.2,0.1,0.3     c1.5,3.3,3.4,6.4,5.8,9.1c1.4,1.6,2.9,3.2,4.5,4.5c4.1,3.5,6.6,8.6,6.7,14l0.1,4.1c0.4,13.5-1.2,26.9-4.8,40l-6.9,25.5     c-0.3,1.2-0.2,2.4,0.4,3.4c0.6,1,1.6,1.8,2.7,2.1c1.1,0.3,2.3,0.2,3.4-0.4c1-0.6,1.8-1.6,2.1-2.7l13.5-45.1c0.4-1.2,1.5-2,2.7-2     s2.3,0.8,2.7,2l13.6,45.1c0.5,1.9,2.3,3.3,4.3,3.3c0.4,0,0.8-0.1,1.2-0.2c2.4-0.7,3.8-3.1,3.1-5.5L639.2,266z M639.2,266     c-3.6-13-5.2-26.5-4.8-39.9l0.1-4.1c0.2-5.4,2.6-10.5,6.7-14c1.6-1.3,3.1-2.8,4.5-4.5c6.3-7.5,9.8-17.6,9.8-28.2     c0-0.9-0.3-1.7-0.9-2.3c-0.6-0.6-1.4-1-2.3-1c-1.8,0-3.2,1.5-3.2,3.2c0,18.6-12.5,33.7-27.8,33.7c-11.5,0-21.3-8.5-25.5-20.5     c0-0.1-0.1-0.2-0.1-0.4l-0.7,0.9l-0.7,0.9c0,0.1,0.1,0.3,0.2,0.4c4.8,12.1,15,20.6,27,20.6c16.4,0,29.8-16,29.8-35.7     c0-0.7,0.6-1.2,1.2-1.2c0.3,0,0.7,0.1,0.9,0.4c0.2,0.2,0.4,0.5,0.3,0.9c0,10.2-3.3,19.7-9.4,26.9c-1.3,1.5-2.7,3-4.2,4.2     c-4.6,3.9-7.3,9.5-7.5,15.5l-0.1,4.1c-0.4,13.7,1.2,27.3,4.9,40.5l7,25.5c0.4,1.3-0.4,2.7-1.7,3.1c-0.2,0.1-0.5,0.1-0.7,0.1     c-1.1,0-2.1-0.8-2.4-1.8L626,248.1c-0.6-2-2.5-3.4-4.6-3.4s-4,1.4-4.6,3.4l-13.6,45.2c-0.2,0.6-0.6,1.2-1.2,1.5     c-0.6,0.3-1.2,0.4-1.9,0.2c-0.6-0.2-1.2-0.6-1.5-1.2s-0.4-1.2-0.2-1.9l6.9-25.5c3.6-13.2,5.2-26.8,4.9-40.5l-0.1-4.1     c-0.2-6-2.9-11.6-7.4-15.5c-1.5-1.3-2.9-2.7-4.2-4.2c-2.4-2.9-4.4-6.1-5.9-9.6c0-0.1-0.1-0.2-0.2-0.4l-0.7,0.9l-0.7,1     c0,0.1,0.1,0.2,0.1,0.3c1.5,3.3,3.4,6.4,5.8,9.1c1.4,1.6,2.9,3.2,4.5,4.5c4.1,3.5,6.6,8.6,6.7,14l0.1,4.1     c0.4,13.5-1.2,26.9-4.8,40l-6.9,25.5c-0.3,1.2-0.2,2.4,0.4,3.4c0.6,1,1.6,1.8,2.7,2.1c1.1,0.3,2.3,0.2,3.4-0.4     c1-0.6,1.8-1.6,2.1-2.7l13.5-45.1c0.4-1.2,1.5-2,2.7-2s2.3,0.8,2.7,2l13.6,45.1c0.5,1.9,2.3,3.3,4.3,3.3c0.4,0,0.8-0.1,1.2-0.2     c2.4-0.7,3.8-3.1,3.1-5.5L639.2,266z M639.2,266c-3.6-13-5.2-26.5-4.8-39.9l0.1-4.1c0.2-5.4,2.6-10.5,6.7-14     c1.6-1.3,3.1-2.8,4.5-4.5c6.3-7.5,9.8-17.6,9.8-28.2c0-0.9-0.3-1.7-0.9-2.3c-0.6-0.6-1.4-1-2.3-1c-1.8,0-3.2,1.5-3.2,3.2     c0,18.6-12.5,33.7-27.8,33.7c-11.5,0-21.3-8.5-25.5-20.5c0-0.1-0.1-0.2-0.1-0.4l-0.7,0.9l-0.7,0.9c0,0.1,0.1,0.3,0.2,0.4     c4.8,12.1,15,20.6,27,20.6c16.4,0,29.8-16,29.8-35.7c0-0.7,0.6-1.2,1.2-1.2c0.3,0,0.7,0.1,0.9,0.4c0.2,0.2,0.4,0.5,0.3,0.9     c0,10.2-3.3,19.7-9.4,26.9c-1.3,1.5-2.7,3-4.2,4.2c-4.6,3.9-7.3,9.5-7.5,15.5l-0.1,4.1c-0.4,13.7,1.2,27.3,4.9,40.5l7,25.5     c0.4,1.3-0.4,2.7-1.7,3.1c-0.2,0.1-0.5,0.1-0.7,0.1c-1.1,0-2.1-0.8-2.4-1.8L626,248.1c-0.6-2-2.5-3.4-4.6-3.4s-4,1.4-4.6,3.4     l-13.6,45.2c-0.2,0.6-0.6,1.2-1.2,1.5c-0.6,0.3-1.2,0.4-1.9,0.2c-0.6-0.2-1.2-0.6-1.5-1.2s-0.4-1.2-0.2-1.9l6.9-25.5     c3.6-13.2,5.2-26.8,4.9-40.5l-0.1-4.1c-0.2-6-2.9-11.6-7.4-15.5c-1.5-1.3-2.9-2.7-4.2-4.2c-2.4-2.9-4.4-6.1-5.9-9.6     c0-0.1-0.1-0.2-0.2-0.4l-0.7,0.9l-0.7,1c0,0.1,0.1,0.2,0.1,0.3c1.5,3.3,3.4,6.4,5.8,9.1c1.4,1.6,2.9,3.2,4.5,4.5     c4.1,3.5,6.6,8.6,6.7,14l0.1,4.1c0.4,13.5-1.2,26.9-4.8,40l-6.9,25.5c-0.3,1.2-0.2,2.4,0.4,3.4c0.6,1,1.6,1.8,2.7,2.1     c1.1,0.3,2.3,0.2,3.4-0.4c1-0.6,1.8-1.6,2.1-2.7l13.5-45.1c0.4-1.2,1.5-2,2.7-2s2.3,0.8,2.7,2l13.6,45.1c0.5,1.9,2.3,3.3,4.3,3.3     c0.4,0,0.8-0.1,1.2-0.2c2.4-0.7,3.8-3.1,3.1-5.5L639.2,266z M639.2,266c-3.6-13-5.2-26.5-4.8-39.9l0.1-4.1     c0.2-5.4,2.6-10.5,6.7-14c1.6-1.3,3.1-2.8,4.5-4.5c6.3-7.5,9.8-17.6,9.8-28.2c0-0.9-0.3-1.7-0.9-2.3c-0.6-0.6-1.4-1-2.3-1     c-1.8,0-3.2,1.5-3.2,3.2c0,18.6-12.5,33.7-27.8,33.7c-11.5,0-21.3-8.5-25.5-20.5c0-0.1-0.1-0.2-0.1-0.4l-0.7,0.9l-0.7,0.9     c0,0.1,0.1,0.3,0.2,0.4c4.8,12.1,15,20.6,27,20.6c16.4,0,29.8-16,29.8-35.7c0-0.7,0.6-1.2,1.2-1.2c0.3,0,0.7,0.1,0.9,0.4     c0.2,0.2,0.4,0.5,0.3,0.9c0,10.2-3.3,19.7-9.4,26.9c-1.3,1.5-2.7,3-4.2,4.2c-4.6,3.9-7.3,9.5-7.5,15.5l-0.1,4.1     c-0.4,13.7,1.2,27.3,4.9,40.5l7,25.5c0.4,1.3-0.4,2.7-1.7,3.1c-0.2,0.1-0.5,0.1-0.7,0.1c-1.1,0-2.1-0.8-2.4-1.8L626,248.1     c-0.6-2-2.5-3.4-4.6-3.4s-4,1.4-4.6,3.4l-13.6,45.2c-0.2,0.6-0.6,1.2-1.2,1.5c-0.6,0.3-1.2,0.4-1.9,0.2c-0.6-0.2-1.2-0.6-1.5-1.2     s-0.4-1.2-0.2-1.9l6.9-25.5c3.6-13.2,5.2-26.8,4.9-40.5l-0.1-4.1c-0.2-6-2.9-11.6-7.4-15.5c-1.5-1.3-2.9-2.7-4.2-4.2     c-2.4-2.9-4.4-6.1-5.9-9.6c0-0.1-0.1-0.2-0.2-0.4l-0.7,0.9l-0.7,1c0,0.1,0.1,0.2,0.1,0.3c1.5,3.3,3.4,6.4,5.8,9.1     c1.4,1.6,2.9,3.2,4.5,4.5c4.1,3.5,6.6,8.6,6.7,14l0.1,4.1c0.4,13.5-1.2,26.9-4.8,40l-6.9,25.5c-0.3,1.2-0.2,2.4,0.4,3.4     c0.6,1,1.6,1.8,2.7,2.1c1.1,0.3,2.3,0.2,3.4-0.4c1-0.6,1.8-1.6,2.1-2.7l13.5-45.1c0.4-1.2,1.5-2,2.7-2s2.3,0.8,2.7,2l13.6,45.1     c0.5,1.9,2.3,3.3,4.3,3.3c0.4,0,0.8-0.1,1.2-0.2c2.4-0.7,3.8-3.1,3.1-5.5L639.2,266z M644.6,264.5c-3.4-12.5-5-25.4-4.6-38.3     l0.1-4.1c0.1-3.8,1.8-7.4,4.7-9.8c1.8-1.6,3.6-3.3,5.2-5.2c7.2-8.6,11.1-19.9,11.1-31.8c0-2.4-0.9-4.7-2.6-6.3     c-1.7-1.7-3.9-2.6-6.3-2.6c-4.9,0-8.9,4-8.9,8.9c0,15.5-9.9,28.1-22.1,28.1c-10.3,0-19-9-21.4-21.1c-0.2,0.4-0.5,0.8-0.8,1.2     c-0.2,0.4-0.5,0.8-0.7,1.2c3.2,12,12.2,20.7,22.9,20.7c13.3,0,24.1-13.5,24.1-30.1c0-3.8,3.1-6.9,6.9-6.9c1.9,0,3.6,0.7,4.9,2     c1.3,1.3,2,3.1,2,4.9c0,11.5-3.8,22.3-10.7,30.5c-1.5,1.8-3.2,3.5-4.9,4.9c-3.3,2.8-5.3,6.9-5.4,11.3l-0.1,4.1     c-0.4,13.1,1.2,26.2,4.7,38.9l7,25.5c1.2,4.3-1.4,8.8-5.7,10c-4.5,1.2-8.8-1.5-10-5.7l-12.7-42.3l-12.7,42.4     c-1.2,4.3-5.7,6.8-10,5.6c-2.1-0.6-3.8-1.9-4.9-3.8c-1.1-1.9-1.3-4.1-0.8-6.2l6.9-25.5c3.5-12.7,5-25.8,4.7-38.9l-0.1-4.1     c-0.1-4.4-2.1-8.5-5.4-11.3c-1.8-1.5-3.4-3.1-4.9-4.9c-2.2-2.6-4.1-5.5-5.6-8.6c-0.2,0.3-0.5,0.5-0.7,0.8s-0.5,0.5-0.7,0.8     c1.5,3,3.4,5.8,5.5,8.3c1.6,1.9,3.3,3.6,5.2,5.2c2.9,2.4,4.6,6,4.7,9.8l0.1,4.1c0.3,13-1.2,25.8-4.6,38.3l-7,25.5     c-0.7,2.6-0.4,5.3,1,7.7c1.3,2.4,3.5,4,6.1,4.8c5.4,1.5,10.9-1.7,12.4-7l10.8-36l10.8,36c1.2,4.4,5.2,7.4,9.7,7.4     c0.9,0,1.8-0.1,2.7-0.4c5.4-1.5,8.5-7.1,7.1-12.5L644.6,264.5z M596.9,203.4c1.4,1.6,2.9,3.2,4.5,4.5c4.1,3.5,6.6,8.6,6.7,14     l0.1,4.1c0.4,13.5-1.2,26.9-4.8,40l-6.9,25.5c-0.3,1.2-0.2,2.4,0.4,3.4c0.6,1,1.6,1.8,2.7,2.1c1.1,0.3,2.3,0.2,3.4-0.4     c1-0.6,1.8-1.6,2.1-2.7l13.5-45.1c0.4-1.2,1.5-2,2.7-2s2.3,0.8,2.7,2l13.6,45.1c0.5,1.9,2.3,3.3,4.3,3.3c0.4,0,0.8-0.1,1.2-0.2     c2.4-0.7,3.8-3.1,3.1-5.5l-7-25.5c-3.6-13-5.2-26.5-4.8-39.9l0.1-4.1c0.2-5.4,2.6-10.5,6.7-14c1.6-1.3,3.1-2.8,4.5-4.5     c6.3-7.5,9.8-17.6,9.8-28.2c0-0.9-0.3-1.7-0.9-2.3c-0.6-0.6-1.4-1-2.3-1c-1.8,0-3.2,1.5-3.2,3.2c0,18.6-12.5,33.7-27.8,33.7     c-11.5,0-21.3-8.5-25.5-20.5c0-0.1-0.1-0.2-0.1-0.4l-0.7,0.9l-0.7,0.9c0,0.1,0.1,0.3,0.2,0.4c4.8,12.1,15,20.6,27,20.6     c16.4,0,29.8-16,29.8-35.7c0-0.7,0.6-1.2,1.2-1.2c0.3,0,0.7,0.1,0.9,0.4c0.2,0.2,0.4,0.5,0.3,0.9c0,10.2-3.3,19.7-9.4,26.9     c-1.3,1.5-2.7,3-4.2,4.2c-4.6,3.9-7.3,9.5-7.5,15.5l-0.1,4.1c-0.4,13.7,1.2,27.3,4.9,40.5l7,25.5c0.4,1.3-0.4,2.7-1.7,3.1     c-0.2,0.1-0.5,0.1-0.7,0.1c-1.1,0-2.1-0.8-2.4-1.8L626,248.1c-0.6-2-2.5-3.4-4.6-3.4s-4,1.4-4.6,3.4l-13.6,45.2     c-0.2,0.6-0.6,1.2-1.2,1.5c-0.6,0.3-1.2,0.4-1.9,0.2c-0.6-0.2-1.2-0.6-1.5-1.2s-0.4-1.2-0.2-1.9l6.9-25.5     c3.6-13.2,5.2-26.8,4.9-40.5l-0.1-4.1c-0.2-6-2.9-11.6-7.4-15.5c-1.5-1.3-2.9-2.7-4.2-4.2c-2.4-2.9-4.4-6.1-5.9-9.6     c0-0.1-0.1-0.2-0.2-0.4l-0.7,0.9l-0.7,1c0,0.1,0.1,0.2,0.1,0.3C592.6,197.6,594.6,200.7,596.9,203.4z M639.2,266     c-3.6-13-5.2-26.5-4.8-39.9l0.1-4.1c0.2-5.4,2.6-10.5,6.7-14c1.6-1.3,3.1-2.8,4.5-4.5c6.3-7.5,9.8-17.6,9.8-28.2     c0-0.9-0.3-1.7-0.9-2.3c-0.6-0.6-1.4-1-2.3-1c-1.8,0-3.2,1.5-3.2,3.2c0,18.6-12.5,33.7-27.8,33.7c-11.5,0-21.3-8.5-25.5-20.5     c0-0.1-0.1-0.2-0.1-0.4l-0.7,0.9l-0.7,0.9c0,0.1,0.1,0.3,0.2,0.4c4.8,12.1,15,20.6,27,20.6c16.4,0,29.8-16,29.8-35.7     c0-0.7,0.6-1.2,1.2-1.2c0.3,0,0.7,0.1,0.9,0.4c0.2,0.2,0.4,0.5,0.3,0.9c0,10.2-3.3,19.7-9.4,26.9c-1.3,1.5-2.7,3-4.2,4.2     c-4.6,3.9-7.3,9.5-7.5,15.5l-0.1,4.1c-0.4,13.7,1.2,27.3,4.9,40.5l7,25.5c0.4,1.3-0.4,2.7-1.7,3.1c-0.2,0.1-0.5,0.1-0.7,0.1     c-1.1,0-2.1-0.8-2.4-1.8L626,248.1c-0.6-2-2.5-3.4-4.6-3.4s-4,1.4-4.6,3.4l-13.6,45.2c-0.2,0.6-0.6,1.2-1.2,1.5     c-0.6,0.3-1.2,0.4-1.9,0.2c-0.6-0.2-1.2-0.6-1.5-1.2s-0.4-1.2-0.2-1.9l6.9-25.5c3.6-13.2,5.2-26.8,4.9-40.5l-0.1-4.1     c-0.2-6-2.9-11.6-7.4-15.5c-1.5-1.3-2.9-2.7-4.2-4.2c-2.4-2.9-4.4-6.1-5.9-9.6c0-0.1-0.1-0.2-0.2-0.4l-0.7,0.9l-0.7,1     c0,0.1,0.1,0.2,0.1,0.3c1.5,3.3,3.4,6.4,5.8,9.1c1.4,1.6,2.9,3.2,4.5,4.5c4.1,3.5,6.6,8.6,6.7,14l0.1,4.1     c0.4,13.5-1.2,26.9-4.8,40l-6.9,25.5c-0.3,1.2-0.2,2.4,0.4,3.4c0.6,1,1.6,1.8,2.7,2.1c1.1,0.3,2.3,0.2,3.4-0.4     c1-0.6,1.8-1.6,2.1-2.7l13.5-45.1c0.4-1.2,1.5-2,2.7-2s2.3,0.8,2.7,2l13.6,45.1c0.5,1.9,2.3,3.3,4.3,3.3c0.4,0,0.8-0.1,1.2-0.2     c2.4-0.7,3.8-3.1,3.1-5.5L639.2,266z M639.2,266c-3.6-13-5.2-26.5-4.8-39.9l0.1-4.1c0.2-5.4,2.6-10.5,6.7-14     c1.6-1.3,3.1-2.8,4.5-4.5c6.3-7.5,9.8-17.6,9.8-28.2c0-0.9-0.3-1.7-0.9-2.3c-0.6-0.6-1.4-1-2.3-1c-1.8,0-3.2,1.5-3.2,3.2     c0,18.6-12.5,33.7-27.8,33.7c-11.5,0-21.3-8.5-25.5-20.5c0-0.1-0.1-0.2-0.1-0.4l-0.7,0.9l-0.7,0.9c0,0.1,0.1,0.3,0.2,0.4     c4.8,12.1,15,20.6,27,20.6c16.4,0,29.8-16,29.8-35.7c0-0.7,0.6-1.2,1.2-1.2c0.3,0,0.7,0.1,0.9,0.4c0.2,0.2,0.4,0.5,0.3,0.9     c0,10.2-3.3,19.7-9.4,26.9c-1.3,1.5-2.7,3-4.2,4.2c-4.6,3.9-7.3,9.5-7.5,15.5l-0.1,4.1c-0.4,13.7,1.2,27.3,4.9,40.5l7,25.5     c0.4,1.3-0.4,2.7-1.7,3.1c-0.2,0.1-0.5,0.1-0.7,0.1c-1.1,0-2.1-0.8-2.4-1.8L626,248.1c-0.6-2-2.5-3.4-4.6-3.4s-4,1.4-4.6,3.4     l-13.6,45.2c-0.2,0.6-0.6,1.2-1.2,1.5c-0.6,0.3-1.2,0.4-1.9,0.2c-0.6-0.2-1.2-0.6-1.5-1.2s-0.4-1.2-0.2-1.9l6.9-25.5     c3.6-13.2,5.2-26.8,4.9-40.5l-0.1-4.1c-0.2-6-2.9-11.6-7.4-15.5c-1.5-1.3-2.9-2.7-4.2-4.2c-2.4-2.9-4.4-6.1-5.9-9.6     c0-0.1-0.1-0.2-0.2-0.4l-0.7,0.9l-0.7,1c0,0.1,0.1,0.2,0.1,0.3c1.5,3.3,3.4,6.4,5.8,9.1c1.4,1.6,2.9,3.2,4.5,4.5     c4.1,3.5,6.6,8.6,6.7,14l0.1,4.1c0.4,13.5-1.2,26.9-4.8,40l-6.9,25.5c-0.3,1.2-0.2,2.4,0.4,3.4c0.6,1,1.6,1.8,2.7,2.1     c1.1,0.3,2.3,0.2,3.4-0.4c1-0.6,1.8-1.6,2.1-2.7l13.5-45.1c0.4-1.2,1.5-2,2.7-2s2.3,0.8,2.7,2l13.6,45.1c0.5,1.9,2.3,3.3,4.3,3.3     c0.4,0,0.8-0.1,1.2-0.2c2.4-0.7,3.8-3.1,3.1-5.5L639.2,266z M639.2,266c-3.6-13-5.2-26.5-4.8-39.9l0.1-4.1     c0.2-5.4,2.6-10.5,6.7-14c1.6-1.3,3.1-2.8,4.5-4.5c6.3-7.5,9.8-17.6,9.8-28.2c0-0.9-0.3-1.7-0.9-2.3c-0.6-0.6-1.4-1-2.3-1     c-1.8,0-3.2,1.5-3.2,3.2c0,18.6-12.5,33.7-27.8,33.7c-11.5,0-21.3-8.5-25.5-20.5c0-0.1-0.1-0.2-0.1-0.4l-0.7,0.9l-0.7,0.9     c0,0.1,0.1,0.3,0.2,0.4c4.8,12.1,15,20.6,27,20.6c16.4,0,29.8-16,29.8-35.7c0-0.7,0.6-1.2,1.2-1.2c0.3,0,0.7,0.1,0.9,0.4     c0.2,0.2,0.4,0.5,0.3,0.9c0,10.2-3.3,19.7-9.4,26.9c-1.3,1.5-2.7,3-4.2,4.2c-4.6,3.9-7.3,9.5-7.5,15.5l-0.1,4.1     c-0.4,13.7,1.2,27.3,4.9,40.5l7,25.5c0.4,1.3-0.4,2.7-1.7,3.1c-0.2,0.1-0.5,0.1-0.7,0.1c-1.1,0-2.1-0.8-2.4-1.8L626,248.1     c-0.6-2-2.5-3.4-4.6-3.4s-4,1.4-4.6,3.4l-13.6,45.2c-0.2,0.6-0.6,1.2-1.2,1.5c-0.6,0.3-1.2,0.4-1.9,0.2c-0.6-0.2-1.2-0.6-1.5-1.2     s-0.4-1.2-0.2-1.9l6.9-25.5c3.6-13.2,5.2-26.8,4.9-40.5l-0.1-4.1c-0.2-6-2.9-11.6-7.4-15.5c-1.5-1.3-2.9-2.7-4.2-4.2     c-2.4-2.9-4.4-6.1-5.9-9.6c0-0.1-0.1-0.2-0.2-0.4l-0.7,0.9l-0.7,1c0,0.1,0.1,0.2,0.1,0.3c1.5,3.3,3.4,6.4,5.8,9.1     c1.4,1.6,2.9,3.2,4.5,4.5c4.1,3.5,6.6,8.6,6.7,14l0.1,4.1c0.4,13.5-1.2,26.9-4.8,40l-6.9,25.5c-0.3,1.2-0.2,2.4,0.4,3.4     c0.6,1,1.6,1.8,2.7,2.1c1.1,0.3,2.3,0.2,3.4-0.4c1-0.6,1.8-1.6,2.1-2.7l13.5-45.1c0.4-1.2,1.5-2,2.7-2s2.3,0.8,2.7,2l13.6,45.1     c0.5,1.9,2.3,3.3,4.3,3.3c0.4,0,0.8-0.1,1.2-0.2c2.4-0.7,3.8-3.1,3.1-5.5L639.2,266z M639.2,266c-3.6-13-5.2-26.5-4.8-39.9     l0.1-4.1c0.2-5.4,2.6-10.5,6.7-14c1.6-1.3,3.1-2.8,4.5-4.5c6.3-7.5,9.8-17.6,9.8-28.2c0-0.9-0.3-1.7-0.9-2.3     c-0.6-0.6-1.4-1-2.3-1c-1.8,0-3.2,1.5-3.2,3.2c0,18.6-12.5,33.7-27.8,33.7c-11.5,0-21.3-8.5-25.5-20.5c0-0.1-0.1-0.2-0.1-0.4     l-0.7,0.9l-0.7,0.9c0,0.1,0.1,0.3,0.2,0.4c4.8,12.1,15,20.6,27,20.6c16.4,0,29.8-16,29.8-35.7c0-0.7,0.6-1.2,1.2-1.2     c0.3,0,0.7,0.1,0.9,0.4c0.2,0.2,0.4,0.5,0.3,0.9c0,10.2-3.3,19.7-9.4,26.9c-1.3,1.5-2.7,3-4.2,4.2c-4.6,3.9-7.3,9.5-7.5,15.5     l-0.1,4.1c-0.4,13.7,1.2,27.3,4.9,40.5l7,25.5c0.4,1.3-0.4,2.7-1.7,3.1c-0.2,0.1-0.5,0.1-0.7,0.1c-1.1,0-2.1-0.8-2.4-1.8     L626,248.1c-0.6-2-2.5-3.4-4.6-3.4s-4,1.4-4.6,3.4l-13.6,45.2c-0.2,0.6-0.6,1.2-1.2,1.5c-0.6,0.3-1.2,0.4-1.9,0.2     c-0.6-0.2-1.2-0.6-1.5-1.2s-0.4-1.2-0.2-1.9l6.9-25.5c3.6-13.2,5.2-26.8,4.9-40.5l-0.1-4.1c-0.2-6-2.9-11.6-7.4-15.5     c-1.5-1.3-2.9-2.7-4.2-4.2c-2.4-2.9-4.4-6.1-5.9-9.6c0-0.1-0.1-0.2-0.2-0.4l-0.7,0.9l-0.7,1c0,0.1,0.1,0.2,0.1,0.3     c1.5,3.3,3.4,6.4,5.8,9.1c1.4,1.6,2.9,3.2,4.5,4.5c4.1,3.5,6.6,8.6,6.7,14l0.1,4.1c0.4,13.5-1.2,26.9-4.8,40l-6.9,25.5     c-0.3,1.2-0.2,2.4,0.4,3.4c0.6,1,1.6,1.8,2.7,2.1c1.1,0.3,2.3,0.2,3.4-0.4c1-0.6,1.8-1.6,2.1-2.7l13.5-45.1c0.4-1.2,1.5-2,2.7-2     s2.3,0.8,2.7,2l13.6,45.1c0.5,1.9,2.3,3.3,4.3,3.3c0.4,0,0.8-0.1,1.2-0.2c2.4-0.7,3.8-3.1,3.1-5.5L639.2,266z M639.2,266     c-3.6-13-5.2-26.5-4.8-39.9l0.1-4.1c0.2-5.4,2.6-10.5,6.7-14c1.6-1.3,3.1-2.8,4.5-4.5c6.3-7.5,9.8-17.6,9.8-28.2     c0-0.9-0.3-1.7-0.9-2.3c-0.6-0.6-1.4-1-2.3-1c-1.8,0-3.2,1.5-3.2,3.2c0,18.6-12.5,33.7-27.8,33.7c-11.5,0-21.3-8.5-25.5-20.5     c0-0.1-0.1-0.2-0.1-0.4l-0.7,0.9l-0.7,0.9c0,0.1,0.1,0.3,0.2,0.4c4.8,12.1,15,20.6,27,20.6c16.4,0,29.8-16,29.8-35.7     c0-0.7,0.6-1.2,1.2-1.2c0.3,0,0.7,0.1,0.9,0.4c0.2,0.2,0.4,0.5,0.3,0.9c0,10.2-3.3,19.7-9.4,26.9c-1.3,1.5-2.7,3-4.2,4.2     c-4.6,3.9-7.3,9.5-7.5,15.5l-0.1,4.1c-0.4,13.7,1.2,27.3,4.9,40.5l7,25.5c0.4,1.3-0.4,2.7-1.7,3.1c-0.2,0.1-0.5,0.1-0.7,0.1     c-1.1,0-2.1-0.8-2.4-1.8L626,248.1c-0.6-2-2.5-3.4-4.6-3.4s-4,1.4-4.6,3.4l-13.6,45.2c-0.2,0.6-0.6,1.2-1.2,1.5     c-0.6,0.3-1.2,0.4-1.9,0.2c-0.6-0.2-1.2-0.6-1.5-1.2s-0.4-1.2-0.2-1.9l6.9-25.5c3.6-13.2,5.2-26.8,4.9-40.5l-0.1-4.1     c-0.2-6-2.9-11.6-7.4-15.5c-1.5-1.3-2.9-2.7-4.2-4.2c-2.4-2.9-4.4-6.1-5.9-9.6c0-0.1-0.1-0.2-0.2-0.4l-0.7,0.9l-0.7,1     c0,0.1,0.1,0.2,0.1,0.3c1.5,3.3,3.4,6.4,5.8,9.1c1.4,1.6,2.9,3.2,4.5,4.5c4.1,3.5,6.6,8.6,6.7,14l0.1,4.1     c0.4,13.5-1.2,26.9-4.8,40l-6.9,25.5c-0.3,1.2-0.2,2.4,0.4,3.4c0.6,1,1.6,1.8,2.7,2.1c1.1,0.3,2.3,0.2,3.4-0.4     c1-0.6,1.8-1.6,2.1-2.7l13.5-45.1c0.4-1.2,1.5-2,2.7-2s2.3,0.8,2.7,2l13.6,45.1c0.5,1.9,2.3,3.3,4.3,3.3c0.4,0,0.8-0.1,1.2-0.2     c2.4-0.7,3.8-3.1,3.1-5.5L639.2,266z M639.2,266c-3.6-13-5.2-26.5-4.8-39.9l0.1-4.1c0.2-5.4,2.6-10.5,6.7-14     c1.6-1.3,3.1-2.8,4.5-4.5c6.3-7.5,9.8-17.6,9.8-28.2c0-0.9-0.3-1.7-0.9-2.3c-0.6-0.6-1.4-1-2.3-1c-1.8,0-3.2,1.5-3.2,3.2     c0,18.6-12.5,33.7-27.8,33.7c-11.5,0-21.3-8.5-25.5-20.5c0-0.1-0.1-0.2-0.1-0.4l-0.7,0.9l-0.7,0.9c0,0.1,0.1,0.3,0.2,0.4     c4.8,12.1,15,20.6,27,20.6c16.4,0,29.8-16,29.8-35.7c0-0.7,0.6-1.2,1.2-1.2c0.3,0,0.7,0.1,0.9,0.4c0.2,0.2,0.4,0.5,0.3,0.9     c0,10.2-3.3,19.7-9.4,26.9c-1.3,1.5-2.7,3-4.2,4.2c-4.6,3.9-7.3,9.5-7.5,15.5l-0.1,4.1c-0.4,13.7,1.2,27.3,4.9,40.5l7,25.5     c0.4,1.3-0.4,2.7-1.7,3.1c-0.2,0.1-0.5,0.1-0.7,0.1c-1.1,0-2.1-0.8-2.4-1.8L626,248.1c-0.6-2-2.5-3.4-4.6-3.4s-4,1.4-4.6,3.4     l-13.6,45.2c-0.2,0.6-0.6,1.2-1.2,1.5c-0.6,0.3-1.2,0.4-1.9,0.2c-0.6-0.2-1.2-0.6-1.5-1.2s-0.4-1.2-0.2-1.9l6.9-25.5     c3.6-13.2,5.2-26.8,4.9-40.5l-0.1-4.1c-0.2-6-2.9-11.6-7.4-15.5c-1.5-1.3-2.9-2.7-4.2-4.2c-2.4-2.9-4.4-6.1-5.9-9.6     c0-0.1-0.1-0.2-0.2-0.4l-0.7,0.9l-0.7,1c0,0.1,0.1,0.2,0.1,0.3c1.5,3.3,3.4,6.4,5.8,9.1c1.4,1.6,2.9,3.2,4.5,4.5     c4.1,3.5,6.6,8.6,6.7,14l0.1,4.1c0.4,13.5-1.2,26.9-4.8,40l-6.9,25.5c-0.3,1.2-0.2,2.4,0.4,3.4c0.6,1,1.6,1.8,2.7,2.1     c1.1,0.3,2.3,0.2,3.4-0.4c1-0.6,1.8-1.6,2.1-2.7l13.5-45.1c0.4-1.2,1.5-2,2.7-2s2.3,0.8,2.7,2l13.6,45.1c0.5,1.9,2.3,3.3,4.3,3.3     c0.4,0,0.8-0.1,1.2-0.2c2.4-0.7,3.8-3.1,3.1-5.5L639.2,266z M639.2,266c-3.6-13-5.2-26.5-4.8-39.9l0.1-4.1     c0.2-5.4,2.6-10.5,6.7-14c1.6-1.3,3.1-2.8,4.5-4.5c6.3-7.5,9.8-17.6,9.8-28.2c0-0.9-0.3-1.7-0.9-2.3c-0.6-0.6-1.4-1-2.3-1     c-1.8,0-3.2,1.5-3.2,3.2c0,18.6-12.5,33.7-27.8,33.7c-11.5,0-21.3-8.5-25.5-20.5c0-0.1-0.1-0.2-0.1-0.4l-0.7,0.9l-0.7,0.9     c0,0.1,0.1,0.3,0.2,0.4c4.8,12.1,15,20.6,27,20.6c16.4,0,29.8-16,29.8-35.7c0-0.7,0.6-1.2,1.2-1.2c0.3,0,0.7,0.1,0.9,0.4     c0.2,0.2,0.4,0.5,0.3,0.9c0,10.2-3.3,19.7-9.4,26.9c-1.3,1.5-2.7,3-4.2,4.2c-4.6,3.9-7.3,9.5-7.5,15.5l-0.1,4.1     c-0.4,13.7,1.2,27.3,4.9,40.5l7,25.5c0.4,1.3-0.4,2.7-1.7,3.1c-0.2,0.1-0.5,0.1-0.7,0.1c-1.1,0-2.1-0.8-2.4-1.8L626,248.1     c-0.6-2-2.5-3.4-4.6-3.4s-4,1.4-4.6,3.4l-13.6,45.2c-0.2,0.6-0.6,1.2-1.2,1.5c-0.6,0.3-1.2,0.4-1.9,0.2c-0.6-0.2-1.2-0.6-1.5-1.2     s-0.4-1.2-0.2-1.9l6.9-25.5c3.6-13.2,5.2-26.8,4.9-40.5l-0.1-4.1c-0.2-6-2.9-11.6-7.4-15.5c-1.5-1.3-2.9-2.7-4.2-4.2     c-2.4-2.9-4.4-6.1-5.9-9.6c0-0.1-0.1-0.2-0.2-0.4l-0.7,0.9l-0.7,1c0,0.1,0.1,0.2,0.1,0.3c1.5,3.3,3.4,6.4,5.8,9.1     c1.4,1.6,2.9,3.2,4.5,4.5c4.1,3.5,6.6,8.6,6.7,14l0.1,4.1c0.4,13.5-1.2,26.9-4.8,40l-6.9,25.5c-0.3,1.2-0.2,2.4,0.4,3.4     c0.6,1,1.6,1.8,2.7,2.1c1.1,0.3,2.3,0.2,3.4-0.4c1-0.6,1.8-1.6,2.1-2.7l13.5-45.1c0.4-1.2,1.5-2,2.7-2s2.3,0.8,2.7,2l13.6,45.1     c0.5,1.9,2.3,3.3,4.3,3.3c0.4,0,0.8-0.1,1.2-0.2c2.4-0.7,3.8-3.1,3.1-5.5L639.2,266z"
           id="path20" /></g></g><g
       class="st1"
       id="g38"><g
         id="g30"><path
           d="M452.6,172.3c-7.8,0-14.2,6.4-14.2,14.2c0,3.8,1.4,7.3,4.1,10s6.3,4.2,10.1,4.2c7.9,0,14.2-6.3,14.2-14.1     C466.9,178.7,460.5,172.3,452.6,172.3z M452.6,195c-2.3,0-4.5-0.9-6.1-2.5s-2.5-3.7-2.5-6c0-4.7,3.8-8.5,8.6-8.5     c4.7,0,8.6,3.8,8.6,8.5C461.2,191.1,457.4,195,452.6,195z"
           id="path26" /><path
           d="M452.6,177c-5.3,0-9.6,4.3-9.6,9.5c0,2.5,1,4.9,2.8,6.7s4.2,2.8,6.8,2.8c5.3,0,9.6-4.3,9.6-9.5     C462.2,181.2,457.9,177,452.6,177z M452.6,194c-2,0-4-0.8-5.4-2.2s-2.2-3.3-2.2-5.2c0-4.1,3.4-7.5,7.6-7.5s7.6,3.4,7.6,7.5     C460.2,190.6,456.8,194,452.6,194z M452.6,177c-5.3,0-9.6,4.3-9.6,9.5c0,2.5,1,4.9,2.8,6.7s4.2,2.8,6.8,2.8     c5.3,0,9.6-4.3,9.6-9.5C462.2,181.2,457.9,177,452.6,177z M452.6,194c-2,0-4-0.8-5.4-2.2s-2.2-3.3-2.2-5.2c0-4.1,3.4-7.5,7.6-7.5     s7.6,3.4,7.6,7.5C460.2,190.6,456.8,194,452.6,194z M452.6,177c-5.3,0-9.6,4.3-9.6,9.5c0,2.5,1,4.9,2.8,6.7s4.2,2.8,6.8,2.8     c5.3,0,9.6-4.3,9.6-9.5C462.2,181.2,457.9,177,452.6,177z M452.6,194c-2,0-4-0.8-5.4-2.2s-2.2-3.3-2.2-5.2c0-4.1,3.4-7.5,7.6-7.5     s7.6,3.4,7.6,7.5C460.2,190.6,456.8,194,452.6,194z M452.6,177c-5.3,0-9.6,4.3-9.6,9.5c0,2.5,1,4.9,2.8,6.7s4.2,2.8,6.8,2.8     c5.3,0,9.6-4.3,9.6-9.5C462.2,181.2,457.9,177,452.6,177z M452.6,194c-2,0-4-0.8-5.4-2.2s-2.2-3.3-2.2-5.2c0-4.1,3.4-7.5,7.6-7.5     s7.6,3.4,7.6,7.5C460.2,190.6,456.8,194,452.6,194z M452.6,177c-5.3,0-9.6,4.3-9.6,9.5c0,2.5,1,4.9,2.8,6.7s4.2,2.8,6.8,2.8     c5.3,0,9.6-4.3,9.6-9.5C462.2,181.2,457.9,177,452.6,177z M452.6,194c-2,0-4-0.8-5.4-2.2s-2.2-3.3-2.2-5.2c0-4.1,3.4-7.5,7.6-7.5     s7.6,3.4,7.6,7.5C460.2,190.6,456.8,194,452.6,194z M452.6,177c-5.3,0-9.6,4.3-9.6,9.5c0,2.5,1,4.9,2.8,6.7s4.2,2.8,6.8,2.8     c5.3,0,9.6-4.3,9.6-9.5C462.2,181.2,457.9,177,452.6,177z M452.6,194c-2,0-4-0.8-5.4-2.2s-2.2-3.3-2.2-5.2c0-4.1,3.4-7.5,7.6-7.5     s7.6,3.4,7.6,7.5C460.2,190.6,456.8,194,452.6,194z M452.6,177c-5.3,0-9.6,4.3-9.6,9.5c0,2.5,1,4.9,2.8,6.7s4.2,2.8,6.8,2.8     c5.3,0,9.6-4.3,9.6-9.5C462.2,181.2,457.9,177,452.6,177z M452.6,194c-2,0-4-0.8-5.4-2.2s-2.2-3.3-2.2-5.2c0-4.1,3.4-7.5,7.6-7.5     s7.6,3.4,7.6,7.5C460.2,190.6,456.8,194,452.6,194z M452.6,177c-5.3,0-9.6,4.3-9.6,9.5c0,2.5,1,4.9,2.8,6.7s4.2,2.8,6.8,2.8     c5.3,0,9.6-4.3,9.6-9.5C462.2,181.2,457.9,177,452.6,177z M452.6,194c-2,0-4-0.8-5.4-2.2s-2.2-3.3-2.2-5.2c0-4.1,3.4-7.5,7.6-7.5     s7.6,3.4,7.6,7.5C460.2,190.6,456.8,194,452.6,194z M452.6,171.3c-8.4,0-15.2,6.8-15.2,15.2c0,4,1.5,7.8,4.4,10.7     s6.7,4.5,10.8,4.5c8.4,0,15.2-6.8,15.2-15.1C467.9,178.1,461,171.3,452.6,171.3z M452.6,199.6c-3.6,0-6.9-1.4-9.4-3.9     s-3.8-5.8-3.8-9.2c0-7.2,5.9-13.2,13.2-13.2c7.3,0,13.2,5.9,13.2,13.2C465.9,193.7,460,199.6,452.6,199.6z M452.6,177     c-5.3,0-9.6,4.3-9.6,9.5c0,2.5,1,4.9,2.8,6.7s4.2,2.8,6.8,2.8c5.3,0,9.6-4.3,9.6-9.5C462.2,181.2,457.9,177,452.6,177z      M452.6,194c-2,0-4-0.8-5.4-2.2s-2.2-3.3-2.2-5.2c0-4.1,3.4-7.5,7.6-7.5s7.6,3.4,7.6,7.5C460.2,190.6,456.8,194,452.6,194z      M452.6,177c-5.3,0-9.6,4.3-9.6,9.5c0,2.5,1,4.9,2.8,6.7s4.2,2.8,6.8,2.8c5.3,0,9.6-4.3,9.6-9.5C462.2,181.2,457.9,177,452.6,177     z M452.6,194c-2,0-4-0.8-5.4-2.2s-2.2-3.3-2.2-5.2c0-4.1,3.4-7.5,7.6-7.5s7.6,3.4,7.6,7.5C460.2,190.6,456.8,194,452.6,194z      M452.6,177c-5.3,0-9.6,4.3-9.6,9.5c0,2.5,1,4.9,2.8,6.7s4.2,2.8,6.8,2.8c5.3,0,9.6-4.3,9.6-9.5C462.2,181.2,457.9,177,452.6,177     z M452.6,194c-2,0-4-0.8-5.4-2.2s-2.2-3.3-2.2-5.2c0-4.1,3.4-7.5,7.6-7.5s7.6,3.4,7.6,7.5C460.2,190.6,456.8,194,452.6,194z      M452.6,177c-5.3,0-9.6,4.3-9.6,9.5c0,2.5,1,4.9,2.8,6.7s4.2,2.8,6.8,2.8c5.3,0,9.6-4.3,9.6-9.5C462.2,181.2,457.9,177,452.6,177     z M452.6,194c-2,0-4-0.8-5.4-2.2s-2.2-3.3-2.2-5.2c0-4.1,3.4-7.5,7.6-7.5s7.6,3.4,7.6,7.5C460.2,190.6,456.8,194,452.6,194z      M452.6,177c-5.3,0-9.6,4.3-9.6,9.5c0,2.5,1,4.9,2.8,6.7s4.2,2.8,6.8,2.8c5.3,0,9.6-4.3,9.6-9.5C462.2,181.2,457.9,177,452.6,177     z M452.6,194c-2,0-4-0.8-5.4-2.2s-2.2-3.3-2.2-5.2c0-4.1,3.4-7.5,7.6-7.5s7.6,3.4,7.6,7.5C460.2,190.6,456.8,194,452.6,194z      M452.6,177c-5.3,0-9.6,4.3-9.6,9.5c0,2.5,1,4.9,2.8,6.7s4.2,2.8,6.8,2.8c5.3,0,9.6-4.3,9.6-9.5C462.2,181.2,457.9,177,452.6,177     z M452.6,194c-2,0-4-0.8-5.4-2.2s-2.2-3.3-2.2-5.2c0-4.1,3.4-7.5,7.6-7.5s7.6,3.4,7.6,7.5C460.2,190.6,456.8,194,452.6,194z      M452.6,177c-5.3,0-9.6,4.3-9.6,9.5c0,2.5,1,4.9,2.8,6.7s4.2,2.8,6.8,2.8c5.3,0,9.6-4.3,9.6-9.5C462.2,181.2,457.9,177,452.6,177     z M452.6,194c-2,0-4-0.8-5.4-2.2s-2.2-3.3-2.2-5.2c0-4.1,3.4-7.5,7.6-7.5s7.6,3.4,7.6,7.5C460.2,190.6,456.8,194,452.6,194z"
           id="path28" /></g><g
         id="g36"><path
           d="M475,264.8c-3.5-12.6-5-25.6-4.6-38.6l0.1-4.1c0.1-4.1,2-7.9,5.1-10.6c1.8-1.5,3.5-3.2,5-5.1c2.2-2.6,4-5.4,5.6-8.5     c-0.2-0.2-0.5-0.5-0.7-0.8c-0.9-1-1.8-1.9-2.6-2.9c0-0.1,0.1-0.2,0.1-0.3l-0.7-0.9l-0.1,0.4c-1.5,3.4-3.5,6.6-5.8,9.4     c-1.3,1.6-2.8,3.1-4.3,4.4c-4.3,3.7-6.9,9-7.1,14.8l-0.1,4.1c-0.4,13.6,1.2,27.1,4.8,40.2l7,25.5c0.5,1.9-0.6,3.8-2.4,4.3     c-0.3,0.1-0.6,0.1-0.9,0.1c-1.5,0-2.9-1-3.3-2.6l-13.6-45.2c-0.5-1.6-2-2.7-3.6-2.7c-1.7,0-3.2,1.1-3.6,2.7l-13.6,45.1v0.1     c-0.5,1.8-2.4,2.9-4.2,2.4c-0.9-0.2-1.6-0.8-2.1-1.6c-0.5-0.8-0.6-1.7-0.3-2.6l6.9-25.5c3.6-13.1,5.2-26.7,4.8-40.2l-0.1-4.1     c-0.1-5.7-2.7-11.1-7.1-14.7c-1.5-1.3-3-2.8-4.3-4.4c-6.2-7.4-9.6-17.2-9.6-27.6c0-1.2,1-2.2,2.2-2.2s2.2,1,2.2,2.2     c0,19.1,12.9,34.7,28.8,34.7c11.7,0,21.8-8.5,26.3-20.6c0-0.1,0.1-0.3,0.1-0.4l-0.7-0.9c0,0.1-0.1,0.2-0.1,0.4     c-0.9-1.3-1.8-2.6-2.6-3.9c-0.3-0.4-0.5-0.8-0.7-1.2c-2.8,12.1-11.7,21-22.2,21c-12.8,0-23.1-13-23.1-29.1c0-4.4-3.5-7.9-7.9-7.9     c-4.3,0-7.9,3.5-7.9,7.9c0,11.7,3.9,22.8,10.9,31.2c1.5,1.9,3.2,3.5,5,5.1c3.1,2.6,5,6.5,5.1,10.6l0.1,4.1     c0.3,13-1.2,26-4.7,38.6l-6.9,25.5c-0.6,2.3-0.3,4.8,0.9,6.9c1.2,2.1,3.2,3.6,5.5,4.3c4.8,1.3,9.9-1.5,11.2-6.4L453,256     l11.8,39.2c1.1,3.9,4.7,6.7,8.8,6.7c0.8,0,1.6-0.1,2.4-0.3c4.8-1.3,7.7-6.4,6.4-11.2L475,264.8z"
           id="path32" /><path
           d="M465.8,222c0.1-5.4,2.6-10.5,6.7-14c1.6-1.3,3.1-2.8,4.5-4.5c2.3-2.8,4.2-5.8,5.8-9.2c0-0.1,0.1-0.2,0.1-0.3l-0.7-0.9     l-0.7-0.9c0,0.1-0.1,0.3-0.2,0.4c-1.5,3.5-3.5,6.7-5.9,9.6c-1.3,1.5-2.7,3-4.2,4.2c-4.6,3.9-7.3,9.5-7.4,15.5l-0.1,4.1     c-0.4,13.7,1.2,27.3,4.9,40.5l7,25.5c0.4,1.3-0.4,2.7-1.7,3.1c-0.2,0.1-0.5,0.1-0.7,0.1c-1.1,0-2.1-0.8-2.4-1.8l-13.6-45.2     c-0.6-2-2.5-3.4-4.6-3.4s-4,1.4-4.6,3.4l-13.6,45.2c-0.4,1.3-1.7,2.1-3,1.7c-0.6-0.2-1.2-0.6-1.5-1.2s-0.4-1.2-0.2-1.9l6.9-25.5     c3.6-13.2,5.2-26.8,4.9-40.5l-0.1-4.1c-0.2-6-2.9-11.6-7.4-15.5c-1.5-1.3-2.9-2.7-4.2-4.2c-6-7.2-9.4-16.8-9.4-26.9     c0-0.7,0.5-1.2,1.2-1.2s1.2,0.6,1.2,1.2c0,19.7,13.4,35.7,29.8,35.7c11.9,0,22.2-8.5,27-20.6c0.1-0.1,0.1-0.3,0.2-0.4l-0.8-1     l-0.7-0.9c0,0.1-0.1,0.2-0.1,0.4c-4.2,12.1-14.1,20.5-25.6,20.5c-15.3,0-27.8-15.1-27.8-33.7c0-1.8-1.5-3.2-3.2-3.2     c-1.8,0-3.2,1.5-3.2,3.2c0,10.6,3.5,20.6,9.8,28.2c1.4,1.6,2.9,3.2,4.5,4.5c4.1,3.5,6.6,8.6,6.7,14l0.1,4.1     c0.4,13.5-1.2,26.9-4.8,40l-6.9,25.5c-0.3,1.2-0.2,2.4,0.4,3.4s1.5,1.8,2.7,2.1c2.4,0.6,4.8-0.8,5.5-3.2l13.6-45.1     c0.4-1.2,1.4-2,2.7-2c1.2,0,2.3,0.8,2.7,2l13.6,45.1c0.5,1.9,2.3,3.3,4.3,3.3c0.4,0,0.8-0.1,1.2-0.2c2.4-0.7,3.8-3.1,3.1-5.5     l-7-25.5c-3.6-13-5.2-26.5-4.8-39.9L465.8,222z M465.8,222c0.1-5.4,2.6-10.5,6.7-14c1.6-1.3,3.1-2.8,4.5-4.5     c2.3-2.8,4.2-5.8,5.8-9.2c0-0.1,0.1-0.2,0.1-0.3l-0.7-0.9l-0.7-0.9c0,0.1-0.1,0.3-0.2,0.4c-1.5,3.5-3.5,6.7-5.9,9.6     c-1.3,1.5-2.7,3-4.2,4.2c-4.6,3.9-7.3,9.5-7.4,15.5l-0.1,4.1c-0.4,13.7,1.2,27.3,4.9,40.5l7,25.5c0.4,1.3-0.4,2.7-1.7,3.1     c-0.2,0.1-0.5,0.1-0.7,0.1c-1.1,0-2.1-0.8-2.4-1.8l-13.6-45.2c-0.6-2-2.5-3.4-4.6-3.4s-4,1.4-4.6,3.4l-13.6,45.2     c-0.4,1.3-1.7,2.1-3,1.7c-0.6-0.2-1.2-0.6-1.5-1.2s-0.4-1.2-0.2-1.9l6.9-25.5c3.6-13.2,5.2-26.8,4.9-40.5l-0.1-4.1     c-0.2-6-2.9-11.6-7.4-15.5c-1.5-1.3-2.9-2.7-4.2-4.2c-6-7.2-9.4-16.8-9.4-26.9c0-0.7,0.5-1.2,1.2-1.2s1.2,0.6,1.2,1.2     c0,19.7,13.4,35.7,29.8,35.7c11.9,0,22.2-8.5,27-20.6c0.1-0.1,0.1-0.3,0.2-0.4l-0.8-1l-0.7-0.9c0,0.1-0.1,0.2-0.1,0.4     c-4.2,12.1-14.1,20.5-25.6,20.5c-15.3,0-27.8-15.1-27.8-33.7c0-1.8-1.5-3.2-3.2-3.2c-1.8,0-3.2,1.5-3.2,3.2     c0,10.6,3.5,20.6,9.8,28.2c1.4,1.6,2.9,3.2,4.5,4.5c4.1,3.5,6.6,8.6,6.7,14l0.1,4.1c0.4,13.5-1.2,26.9-4.8,40l-6.9,25.5     c-0.3,1.2-0.2,2.4,0.4,3.4s1.5,1.8,2.7,2.1c2.4,0.6,4.8-0.8,5.5-3.2l13.6-45.1c0.4-1.2,1.4-2,2.7-2c1.2,0,2.3,0.8,2.7,2     l13.6,45.1c0.5,1.9,2.3,3.3,4.3,3.3c0.4,0,0.8-0.1,1.2-0.2c2.4-0.7,3.8-3.1,3.1-5.5l-7-25.5c-3.6-13-5.2-26.5-4.8-39.9L465.8,222     z M465.8,222c0.1-5.4,2.6-10.5,6.7-14c1.6-1.3,3.1-2.8,4.5-4.5c2.3-2.8,4.2-5.8,5.8-9.2c0-0.1,0.1-0.2,0.1-0.3l-0.7-0.9l-0.7-0.9     c0,0.1-0.1,0.3-0.2,0.4c-1.5,3.5-3.5,6.7-5.9,9.6c-1.3,1.5-2.7,3-4.2,4.2c-4.6,3.9-7.3,9.5-7.4,15.5l-0.1,4.1     c-0.4,13.7,1.2,27.3,4.9,40.5l7,25.5c0.4,1.3-0.4,2.7-1.7,3.1c-0.2,0.1-0.5,0.1-0.7,0.1c-1.1,0-2.1-0.8-2.4-1.8l-13.6-45.2     c-0.6-2-2.5-3.4-4.6-3.4s-4,1.4-4.6,3.4l-13.6,45.2c-0.4,1.3-1.7,2.1-3,1.7c-0.6-0.2-1.2-0.6-1.5-1.2s-0.4-1.2-0.2-1.9l6.9-25.5     c3.6-13.2,5.2-26.8,4.9-40.5l-0.1-4.1c-0.2-6-2.9-11.6-7.4-15.5c-1.5-1.3-2.9-2.7-4.2-4.2c-6-7.2-9.4-16.8-9.4-26.9     c0-0.7,0.5-1.2,1.2-1.2s1.2,0.6,1.2,1.2c0,19.7,13.4,35.7,29.8,35.7c11.9,0,22.2-8.5,27-20.6c0.1-0.1,0.1-0.3,0.2-0.4l-0.8-1     l-0.7-0.9c0,0.1-0.1,0.2-0.1,0.4c-4.2,12.1-14.1,20.5-25.6,20.5c-15.3,0-27.8-15.1-27.8-33.7c0-1.8-1.5-3.2-3.2-3.2     c-1.8,0-3.2,1.5-3.2,3.2c0,10.6,3.5,20.6,9.8,28.2c1.4,1.6,2.9,3.2,4.5,4.5c4.1,3.5,6.6,8.6,6.7,14l0.1,4.1     c0.4,13.5-1.2,26.9-4.8,40l-6.9,25.5c-0.3,1.2-0.2,2.4,0.4,3.4s1.5,1.8,2.7,2.1c2.4,0.6,4.8-0.8,5.5-3.2l13.6-45.1     c0.4-1.2,1.4-2,2.7-2c1.2,0,2.3,0.8,2.7,2l13.6,45.1c0.5,1.9,2.3,3.3,4.3,3.3c0.4,0,0.8-0.1,1.2-0.2c2.4-0.7,3.8-3.1,3.1-5.5     l-7-25.5c-3.6-13-5.2-26.5-4.8-39.9L465.8,222z M465.8,222c0.1-5.4,2.6-10.5,6.7-14c1.6-1.3,3.1-2.8,4.5-4.5     c2.3-2.8,4.2-5.8,5.8-9.2c0-0.1,0.1-0.2,0.1-0.3l-0.7-0.9l-0.7-0.9c0,0.1-0.1,0.3-0.2,0.4c-1.5,3.5-3.5,6.7-5.9,9.6     c-1.3,1.5-2.7,3-4.2,4.2c-4.6,3.9-7.3,9.5-7.4,15.5l-0.1,4.1c-0.4,13.7,1.2,27.3,4.9,40.5l7,25.5c0.4,1.3-0.4,2.7-1.7,3.1     c-0.2,0.1-0.5,0.1-0.7,0.1c-1.1,0-2.1-0.8-2.4-1.8l-13.6-45.2c-0.6-2-2.5-3.4-4.6-3.4s-4,1.4-4.6,3.4l-13.6,45.2     c-0.4,1.3-1.7,2.1-3,1.7c-0.6-0.2-1.2-0.6-1.5-1.2s-0.4-1.2-0.2-1.9l6.9-25.5c3.6-13.2,5.2-26.8,4.9-40.5l-0.1-4.1     c-0.2-6-2.9-11.6-7.4-15.5c-1.5-1.3-2.9-2.7-4.2-4.2c-6-7.2-9.4-16.8-9.4-26.9c0-0.7,0.5-1.2,1.2-1.2s1.2,0.6,1.2,1.2     c0,19.7,13.4,35.7,29.8,35.7c11.9,0,22.2-8.5,27-20.6c0.1-0.1,0.1-0.3,0.2-0.4l-0.8-1l-0.7-0.9c0,0.1-0.1,0.2-0.1,0.4     c-4.2,12.1-14.1,20.5-25.6,20.5c-15.3,0-27.8-15.1-27.8-33.7c0-1.8-1.5-3.2-3.2-3.2c-1.8,0-3.2,1.5-3.2,3.2     c0,10.6,3.5,20.6,9.8,28.2c1.4,1.6,2.9,3.2,4.5,4.5c4.1,3.5,6.6,8.6,6.7,14l0.1,4.1c0.4,13.5-1.2,26.9-4.8,40l-6.9,25.5     c-0.3,1.2-0.2,2.4,0.4,3.4s1.5,1.8,2.7,2.1c2.4,0.6,4.8-0.8,5.5-3.2l13.6-45.1c0.4-1.2,1.4-2,2.7-2c1.2,0,2.3,0.8,2.7,2     l13.6,45.1c0.5,1.9,2.3,3.3,4.3,3.3c0.4,0,0.8-0.1,1.2-0.2c2.4-0.7,3.8-3.1,3.1-5.5l-7-25.5c-3.6-13-5.2-26.5-4.8-39.9L465.8,222     z M465.8,222c0.1-5.4,2.6-10.5,6.7-14c1.6-1.3,3.1-2.8,4.5-4.5c2.3-2.8,4.2-5.8,5.8-9.2c0-0.1,0.1-0.2,0.1-0.3l-0.7-0.9l-0.7-0.9     c0,0.1-0.1,0.3-0.2,0.4c-1.5,3.5-3.5,6.7-5.9,9.6c-1.3,1.5-2.7,3-4.2,4.2c-4.6,3.9-7.3,9.5-7.4,15.5l-0.1,4.1     c-0.4,13.7,1.2,27.3,4.9,40.5l7,25.5c0.4,1.3-0.4,2.7-1.7,3.1c-0.2,0.1-0.5,0.1-0.7,0.1c-1.1,0-2.1-0.8-2.4-1.8l-13.6-45.2     c-0.6-2-2.5-3.4-4.6-3.4s-4,1.4-4.6,3.4l-13.6,45.2c-0.4,1.3-1.7,2.1-3,1.7c-0.6-0.2-1.2-0.6-1.5-1.2s-0.4-1.2-0.2-1.9l6.9-25.5     c3.6-13.2,5.2-26.8,4.9-40.5l-0.1-4.1c-0.2-6-2.9-11.6-7.4-15.5c-1.5-1.3-2.9-2.7-4.2-4.2c-6-7.2-9.4-16.8-9.4-26.9     c0-0.7,0.5-1.2,1.2-1.2s1.2,0.6,1.2,1.2c0,19.7,13.4,35.7,29.8,35.7c11.9,0,22.2-8.5,27-20.6c0.1-0.1,0.1-0.3,0.2-0.4l-0.8-1     l-0.7-0.9c0,0.1-0.1,0.2-0.1,0.4c-4.2,12.1-14.1,20.5-25.6,20.5c-15.3,0-27.8-15.1-27.8-33.7c0-1.8-1.5-3.2-3.2-3.2     c-1.8,0-3.2,1.5-3.2,3.2c0,10.6,3.5,20.6,9.8,28.2c1.4,1.6,2.9,3.2,4.5,4.5c4.1,3.5,6.6,8.6,6.7,14l0.1,4.1     c0.4,13.5-1.2,26.9-4.8,40l-6.9,25.5c-0.3,1.2-0.2,2.4,0.4,3.4s1.5,1.8,2.7,2.1c2.4,0.6,4.8-0.8,5.5-3.2l13.6-45.1     c0.4-1.2,1.4-2,2.7-2c1.2,0,2.3,0.8,2.7,2l13.6,45.1c0.5,1.9,2.3,3.3,4.3,3.3c0.4,0,0.8-0.1,1.2-0.2c2.4-0.7,3.8-3.1,3.1-5.5     l-7-25.5c-3.6-13-5.2-26.5-4.8-39.9L465.8,222z M465.8,222c0.1-5.4,2.6-10.5,6.7-14c1.6-1.3,3.1-2.8,4.5-4.5     c2.3-2.8,4.2-5.8,5.8-9.2c0-0.1,0.1-0.2,0.1-0.3l-0.7-0.9l-0.7-0.9c0,0.1-0.1,0.3-0.2,0.4c-1.5,3.5-3.5,6.7-5.9,9.6     c-1.3,1.5-2.7,3-4.2,4.2c-4.6,3.9-7.3,9.5-7.4,15.5l-0.1,4.1c-0.4,13.7,1.2,27.3,4.9,40.5l7,25.5c0.4,1.3-0.4,2.7-1.7,3.1     c-0.2,0.1-0.5,0.1-0.7,0.1c-1.1,0-2.1-0.8-2.4-1.8l-13.6-45.2c-0.6-2-2.5-3.4-4.6-3.4s-4,1.4-4.6,3.4l-13.6,45.2     c-0.4,1.3-1.7,2.1-3,1.7c-0.6-0.2-1.2-0.6-1.5-1.2s-0.4-1.2-0.2-1.9l6.9-25.5c3.6-13.2,5.2-26.8,4.9-40.5l-0.1-4.1     c-0.2-6-2.9-11.6-7.4-15.5c-1.5-1.3-2.9-2.7-4.2-4.2c-6-7.2-9.4-16.8-9.4-26.9c0-0.7,0.5-1.2,1.2-1.2s1.2,0.6,1.2,1.2     c0,19.7,13.4,35.7,29.8,35.7c11.9,0,22.2-8.5,27-20.6c0.1-0.1,0.1-0.3,0.2-0.4l-0.8-1l-0.7-0.9c0,0.1-0.1,0.2-0.1,0.4     c-4.2,12.1-14.1,20.5-25.6,20.5c-15.3,0-27.8-15.1-27.8-33.7c0-1.8-1.5-3.2-3.2-3.2c-1.8,0-3.2,1.5-3.2,3.2     c0,10.6,3.5,20.6,9.8,28.2c1.4,1.6,2.9,3.2,4.5,4.5c4.1,3.5,6.6,8.6,6.7,14l0.1,4.1c0.4,13.5-1.2,26.9-4.8,40l-6.9,25.5     c-0.3,1.2-0.2,2.4,0.4,3.4s1.5,1.8,2.7,2.1c2.4,0.6,4.8-0.8,5.5-3.2l13.6-45.1c0.4-1.2,1.4-2,2.7-2c1.2,0,2.3,0.8,2.7,2     l13.6,45.1c0.5,1.9,2.3,3.3,4.3,3.3c0.4,0,0.8-0.1,1.2-0.2c2.4-0.7,3.8-3.1,3.1-5.5l-7-25.5c-3.6-13-5.2-26.5-4.8-39.9L465.8,222     z M465.8,222c0.1-5.4,2.6-10.5,6.7-14c1.6-1.3,3.1-2.8,4.5-4.5c2.3-2.8,4.2-5.8,5.8-9.2c0-0.1,0.1-0.2,0.1-0.3l-0.7-0.9l-0.7-0.9     c0,0.1-0.1,0.3-0.2,0.4c-1.5,3.5-3.5,6.7-5.9,9.6c-1.3,1.5-2.7,3-4.2,4.2c-4.6,3.9-7.3,9.5-7.4,15.5l-0.1,4.1     c-0.4,13.7,1.2,27.3,4.9,40.5l7,25.5c0.4,1.3-0.4,2.7-1.7,3.1c-0.2,0.1-0.5,0.1-0.7,0.1c-1.1,0-2.1-0.8-2.4-1.8l-13.6-45.2     c-0.6-2-2.5-3.4-4.6-3.4s-4,1.4-4.6,3.4l-13.6,45.2c-0.4,1.3-1.7,2.1-3,1.7c-0.6-0.2-1.2-0.6-1.5-1.2s-0.4-1.2-0.2-1.9l6.9-25.5     c3.6-13.2,5.2-26.8,4.9-40.5l-0.1-4.1c-0.2-6-2.9-11.6-7.4-15.5c-1.5-1.3-2.9-2.7-4.2-4.2c-6-7.2-9.4-16.8-9.4-26.9     c0-0.7,0.5-1.2,1.2-1.2s1.2,0.6,1.2,1.2c0,19.7,13.4,35.7,29.8,35.7c11.9,0,22.2-8.5,27-20.6c0.1-0.1,0.1-0.3,0.2-0.4l-0.8-1     l-0.7-0.9c0,0.1-0.1,0.2-0.1,0.4c-4.2,12.1-14.1,20.5-25.6,20.5c-15.3,0-27.8-15.1-27.8-33.7c0-1.8-1.5-3.2-3.2-3.2     c-1.8,0-3.2,1.5-3.2,3.2c0,10.6,3.5,20.6,9.8,28.2c1.4,1.6,2.9,3.2,4.5,4.5c4.1,3.5,6.6,8.6,6.7,14l0.1,4.1     c0.4,13.5-1.2,26.9-4.8,40l-6.9,25.5c-0.3,1.2-0.2,2.4,0.4,3.4s1.5,1.8,2.7,2.1c2.4,0.6,4.8-0.8,5.5-3.2l13.6-45.1     c0.4-1.2,1.4-2,2.7-2c1.2,0,2.3,0.8,2.7,2l13.6,45.1c0.5,1.9,2.3,3.3,4.3,3.3c0.4,0,0.8-0.1,1.2-0.2c2.4-0.7,3.8-3.1,3.1-5.5     l-7-25.5c-3.6-13-5.2-26.5-4.8-39.9L465.8,222z M465.8,222c0.1-5.4,2.6-10.5,6.7-14c1.6-1.3,3.1-2.8,4.5-4.5     c2.3-2.8,4.2-5.8,5.8-9.2c0-0.1,0.1-0.2,0.1-0.3l-0.7-0.9l-0.7-0.9c0,0.1-0.1,0.3-0.2,0.4c-1.5,3.5-3.5,6.7-5.9,9.6     c-1.3,1.5-2.7,3-4.2,4.2c-4.6,3.9-7.3,9.5-7.4,15.5l-0.1,4.1c-0.4,13.7,1.2,27.3,4.9,40.5l7,25.5c0.4,1.3-0.4,2.7-1.7,3.1     c-0.2,0.1-0.5,0.1-0.7,0.1c-1.1,0-2.1-0.8-2.4-1.8l-13.6-45.2c-0.6-2-2.5-3.4-4.6-3.4s-4,1.4-4.6,3.4l-13.6,45.2     c-0.4,1.3-1.7,2.1-3,1.7c-0.6-0.2-1.2-0.6-1.5-1.2s-0.4-1.2-0.2-1.9l6.9-25.5c3.6-13.2,5.2-26.8,4.9-40.5l-0.1-4.1     c-0.2-6-2.9-11.6-7.4-15.5c-1.5-1.3-2.9-2.7-4.2-4.2c-6-7.2-9.4-16.8-9.4-26.9c0-0.7,0.5-1.2,1.2-1.2s1.2,0.6,1.2,1.2     c0,19.7,13.4,35.7,29.8,35.7c11.9,0,22.2-8.5,27-20.6c0.1-0.1,0.1-0.3,0.2-0.4l-0.8-1l-0.7-0.9c0,0.1-0.1,0.2-0.1,0.4     c-4.2,12.1-14.1,20.5-25.6,20.5c-15.3,0-27.8-15.1-27.8-33.7c0-1.8-1.5-3.2-3.2-3.2c-1.8,0-3.2,1.5-3.2,3.2     c0,10.6,3.5,20.6,9.8,28.2c1.4,1.6,2.9,3.2,4.5,4.5c4.1,3.5,6.6,8.6,6.7,14l0.1,4.1c0.4,13.5-1.2,26.9-4.8,40l-6.9,25.5     c-0.3,1.2-0.2,2.4,0.4,3.4s1.5,1.8,2.7,2.1c2.4,0.6,4.8-0.8,5.5-3.2l13.6-45.1c0.4-1.2,1.4-2,2.7-2c1.2,0,2.3,0.8,2.7,2     l13.6,45.1c0.5,1.9,2.3,3.3,4.3,3.3c0.4,0,0.8-0.1,1.2-0.2c2.4-0.7,3.8-3.1,3.1-5.5l-7-25.5c-3.6-13-5.2-26.5-4.8-39.9L465.8,222     z M476,264.5c-3.4-12.5-5-25.4-4.6-38.3l0.1-4.1c0.1-3.8,1.8-7.4,4.7-9.8c1.8-1.6,3.6-3.3,5.2-5.2c2.2-2.6,4-5.4,5.6-8.4     c-0.2-0.2-0.5-0.5-0.7-0.8c-0.2-0.2-0.5-0.5-0.7-0.8c-1.5,3.1-3.4,6-5.6,8.6c-1.5,1.8-3.2,3.5-4.9,4.9c-3.3,2.8-5.3,6.9-5.4,11.3     l-0.1,4.1c-0.4,13.1,1.2,26.2,4.7,38.9l7,25.5c1.2,4.3-1.4,8.8-5.7,10c-4.5,1.2-8.8-1.5-10-5.7l-12.7-42.3l-12.7,42.4     c-1.2,4.3-5.7,6.8-10,5.6c-2.1-0.6-3.8-1.9-4.9-3.8s-1.4-4.1-0.8-6.2l6.9-25.5c3.5-12.7,5-25.8,4.7-38.9l-0.1-4.1     c-0.1-4.4-2.1-8.5-5.4-11.3c-1.8-1.5-3.4-3.1-4.9-4.9c-6.9-8.2-10.7-19.1-10.7-30.6c0-3.8,3.1-6.9,6.9-6.9s6.9,3.1,6.9,6.9     c0,16.6,10.8,30.1,24.1,30.1c10.7,0,19.8-8.7,22.9-20.8c-0.3-0.4-0.5-0.8-0.7-1.2c-0.3-0.4-0.5-0.8-0.8-1.2     c-2.4,12.2-11.1,21.2-21.5,21.2c-12.2,0-22.1-12.6-22.1-28.1c0-4.9-4-8.9-8.9-8.9s-8.9,4-8.9,8.9c0,11.9,4,23.2,11.2,31.8     c1.6,1.9,3.3,3.6,5.2,5.2c2.9,2.4,4.6,6,4.7,9.8l0.1,4.1c0.3,13-1.2,25.8-4.6,38.3l-6.9,25.5c-0.7,2.6-0.4,5.3,1,7.7     c1.3,2.4,3.5,4,6.1,4.8c5.3,1.5,10.9-1.7,12.4-7l10.8-36l10.8,36c1.2,4.4,5.2,7.4,9.7,7.4c0.9,0,1.8-0.1,2.7-0.4     c5.3-1.5,8.5-7.1,7.1-12.5L476,264.5z M452.6,208.9c-15.3,0-27.8-15.1-27.8-33.7c0-1.8-1.5-3.2-3.2-3.2c-1.8,0-3.2,1.5-3.2,3.2     c0,10.6,3.5,20.6,9.8,28.2c1.4,1.6,2.9,3.2,4.5,4.5c4.1,3.5,6.6,8.6,6.7,14l0.1,4.1c0.4,13.5-1.2,26.9-4.8,40l-6.9,25.5     c-0.3,1.2-0.2,2.4,0.4,3.4s1.5,1.8,2.7,2.1c2.4,0.6,4.8-0.8,5.5-3.2l13.6-45.1c0.4-1.2,1.4-2,2.7-2c1.2,0,2.3,0.8,2.7,2     l13.6,45.1c0.5,1.9,2.3,3.3,4.3,3.3c0.4,0,0.8-0.1,1.2-0.2c2.4-0.7,3.8-3.1,3.1-5.5l-7-25.5c-3.6-13-5.2-26.5-4.8-39.9l0.1-4.1     c0.1-5.4,2.6-10.5,6.7-14c1.6-1.3,3.1-2.8,4.5-4.5c2.3-2.8,4.2-5.8,5.8-9.2c0-0.1,0.1-0.2,0.1-0.3l-0.7-0.9l-0.7-0.9     c0,0.1-0.1,0.3-0.2,0.4c-1.5,3.5-3.5,6.7-5.9,9.6c-1.3,1.5-2.7,3-4.2,4.2c-4.6,3.9-7.3,9.5-7.4,15.5l-0.1,4.1     c-0.4,13.7,1.2,27.3,4.9,40.5l7,25.5c0.4,1.3-0.4,2.7-1.7,3.1c-0.2,0.1-0.5,0.1-0.7,0.1c-1.1,0-2.1-0.8-2.4-1.8l-13.6-45.2     c-0.6-2-2.5-3.4-4.6-3.4s-4,1.4-4.6,3.4l-13.6,45.2c-0.4,1.3-1.7,2.1-3,1.7c-0.6-0.2-1.2-0.6-1.5-1.2s-0.4-1.2-0.2-1.9l6.9-25.5     c3.6-13.2,5.2-26.8,4.9-40.5l-0.1-4.1c-0.2-6-2.9-11.6-7.4-15.5c-1.5-1.3-2.9-2.7-4.2-4.2c-6-7.2-9.4-16.8-9.4-26.9     c0-0.7,0.5-1.2,1.2-1.2s1.2,0.6,1.2,1.2c0,19.7,13.4,35.7,29.8,35.7c11.9,0,22.2-8.5,27-20.6c0.1-0.1,0.1-0.3,0.2-0.4L479,189     l-0.7-0.9c0,0.1-0.1,0.2-0.1,0.4C474,200.5,464.1,208.9,452.6,208.9z M465.8,222c0.1-5.4,2.6-10.5,6.7-14     c1.6-1.3,3.1-2.8,4.5-4.5c2.3-2.8,4.2-5.8,5.8-9.2c0-0.1,0.1-0.2,0.1-0.3l-0.7-0.9l-0.7-0.9c0,0.1-0.1,0.3-0.2,0.4     c-1.5,3.5-3.5,6.7-5.9,9.6c-1.3,1.5-2.7,3-4.2,4.2c-4.6,3.9-7.3,9.5-7.4,15.5l-0.1,4.1c-0.4,13.7,1.2,27.3,4.9,40.5l7,25.5     c0.4,1.3-0.4,2.7-1.7,3.1c-0.2,0.1-0.5,0.1-0.7,0.1c-1.1,0-2.1-0.8-2.4-1.8l-13.6-45.2c-0.6-2-2.5-3.4-4.6-3.4s-4,1.4-4.6,3.4     l-13.6,45.2c-0.4,1.3-1.7,2.1-3,1.7c-0.6-0.2-1.2-0.6-1.5-1.2s-0.4-1.2-0.2-1.9l6.9-25.5c3.6-13.2,5.2-26.8,4.9-40.5l-0.1-4.1     c-0.2-6-2.9-11.6-7.4-15.5c-1.5-1.3-2.9-2.7-4.2-4.2c-6-7.2-9.4-16.8-9.4-26.9c0-0.7,0.5-1.2,1.2-1.2s1.2,0.6,1.2,1.2     c0,19.7,13.4,35.7,29.8,35.7c11.9,0,22.2-8.5,27-20.6c0.1-0.1,0.1-0.3,0.2-0.4l-0.8-1l-0.7-0.9c0,0.1-0.1,0.2-0.1,0.4     c-4.2,12.1-14.1,20.5-25.6,20.5c-15.3,0-27.8-15.1-27.8-33.7c0-1.8-1.5-3.2-3.2-3.2c-1.8,0-3.2,1.5-3.2,3.2     c0,10.6,3.5,20.6,9.8,28.2c1.4,1.6,2.9,3.2,4.5,4.5c4.1,3.5,6.6,8.6,6.7,14l0.1,4.1c0.4,13.5-1.2,26.9-4.8,40l-6.9,25.5     c-0.3,1.2-0.2,2.4,0.4,3.4s1.5,1.8,2.7,2.1c2.4,0.6,4.8-0.8,5.5-3.2l13.6-45.1c0.4-1.2,1.4-2,2.7-2c1.2,0,2.3,0.8,2.7,2     l13.6,45.1c0.5,1.9,2.3,3.3,4.3,3.3c0.4,0,0.8-0.1,1.2-0.2c2.4-0.7,3.8-3.1,3.1-5.5l-7-25.5c-3.6-13-5.2-26.5-4.8-39.9L465.8,222     z M465.8,222c0.1-5.4,2.6-10.5,6.7-14c1.6-1.3,3.1-2.8,4.5-4.5c2.3-2.8,4.2-5.8,5.8-9.2c0-0.1,0.1-0.2,0.1-0.3l-0.7-0.9l-0.7-0.9     c0,0.1-0.1,0.3-0.2,0.4c-1.5,3.5-3.5,6.7-5.9,9.6c-1.3,1.5-2.7,3-4.2,4.2c-4.6,3.9-7.3,9.5-7.4,15.5l-0.1,4.1     c-0.4,13.7,1.2,27.3,4.9,40.5l7,25.5c0.4,1.3-0.4,2.7-1.7,3.1c-0.2,0.1-0.5,0.1-0.7,0.1c-1.1,0-2.1-0.8-2.4-1.8l-13.6-45.2     c-0.6-2-2.5-3.4-4.6-3.4s-4,1.4-4.6,3.4l-13.6,45.2c-0.4,1.3-1.7,2.1-3,1.7c-0.6-0.2-1.2-0.6-1.5-1.2s-0.4-1.2-0.2-1.9l6.9-25.5     c3.6-13.2,5.2-26.8,4.9-40.5l-0.1-4.1c-0.2-6-2.9-11.6-7.4-15.5c-1.5-1.3-2.9-2.7-4.2-4.2c-6-7.2-9.4-16.8-9.4-26.9     c0-0.7,0.5-1.2,1.2-1.2s1.2,0.6,1.2,1.2c0,19.7,13.4,35.7,29.8,35.7c11.9,0,22.2-8.5,27-20.6c0.1-0.1,0.1-0.3,0.2-0.4l-0.8-1     l-0.7-0.9c0,0.1-0.1,0.2-0.1,0.4c-4.2,12.1-14.1,20.5-25.6,20.5c-15.3,0-27.8-15.1-27.8-33.7c0-1.8-1.5-3.2-3.2-3.2     c-1.8,0-3.2,1.5-3.2,3.2c0,10.6,3.5,20.6,9.8,28.2c1.4,1.6,2.9,3.2,4.5,4.5c4.1,3.5,6.6,8.6,6.7,14l0.1,4.1     c0.4,13.5-1.2,26.9-4.8,40l-6.9,25.5c-0.3,1.2-0.2,2.4,0.4,3.4s1.5,1.8,2.7,2.1c2.4,0.6,4.8-0.8,5.5-3.2l13.6-45.1     c0.4-1.2,1.4-2,2.7-2c1.2,0,2.3,0.8,2.7,2l13.6,45.1c0.5,1.9,2.3,3.3,4.3,3.3c0.4,0,0.8-0.1,1.2-0.2c2.4-0.7,3.8-3.1,3.1-5.5     l-7-25.5c-3.6-13-5.2-26.5-4.8-39.9L465.8,222z M465.8,222c0.1-5.4,2.6-10.5,6.7-14c1.6-1.3,3.1-2.8,4.5-4.5     c2.3-2.8,4.2-5.8,5.8-9.2c0-0.1,0.1-0.2,0.1-0.3l-0.7-0.9l-0.7-0.9c0,0.1-0.1,0.3-0.2,0.4c-1.5,3.5-3.5,6.7-5.9,9.6     c-1.3,1.5-2.7,3-4.2,4.2c-4.6,3.9-7.3,9.5-7.4,15.5l-0.1,4.1c-0.4,13.7,1.2,27.3,4.9,40.5l7,25.5c0.4,1.3-0.4,2.7-1.7,3.1     c-0.2,0.1-0.5,0.1-0.7,0.1c-1.1,0-2.1-0.8-2.4-1.8l-13.6-45.2c-0.6-2-2.5-3.4-4.6-3.4s-4,1.4-4.6,3.4l-13.6,45.2     c-0.4,1.3-1.7,2.1-3,1.7c-0.6-0.2-1.2-0.6-1.5-1.2s-0.4-1.2-0.2-1.9l6.9-25.5c3.6-13.2,5.2-26.8,4.9-40.5l-0.1-4.1     c-0.2-6-2.9-11.6-7.4-15.5c-1.5-1.3-2.9-2.7-4.2-4.2c-6-7.2-9.4-16.8-9.4-26.9c0-0.7,0.5-1.2,1.2-1.2s1.2,0.6,1.2,1.2     c0,19.7,13.4,35.7,29.8,35.7c11.9,0,22.2-8.5,27-20.6c0.1-0.1,0.1-0.3,0.2-0.4l-0.8-1l-0.7-0.9c0,0.1-0.1,0.2-0.1,0.4     c-4.2,12.1-14.1,20.5-25.6,20.5c-15.3,0-27.8-15.1-27.8-33.7c0-1.8-1.5-3.2-3.2-3.2c-1.8,0-3.2,1.5-3.2,3.2     c0,10.6,3.5,20.6,9.8,28.2c1.4,1.6,2.9,3.2,4.5,4.5c4.1,3.5,6.6,8.6,6.7,14l0.1,4.1c0.4,13.5-1.2,26.9-4.8,40l-6.9,25.5     c-0.3,1.2-0.2,2.4,0.4,3.4s1.5,1.8,2.7,2.1c2.4,0.6,4.8-0.8,5.5-3.2l13.6-45.1c0.4-1.2,1.4-2,2.7-2c1.2,0,2.3,0.8,2.7,2     l13.6,45.1c0.5,1.9,2.3,3.3,4.3,3.3c0.4,0,0.8-0.1,1.2-0.2c2.4-0.7,3.8-3.1,3.1-5.5l-7-25.5c-3.6-13-5.2-26.5-4.8-39.9L465.8,222     z M465.8,222c0.1-5.4,2.6-10.5,6.7-14c1.6-1.3,3.1-2.8,4.5-4.5c2.3-2.8,4.2-5.8,5.8-9.2c0-0.1,0.1-0.2,0.1-0.3l-0.7-0.9l-0.7-0.9     c0,0.1-0.1,0.3-0.2,0.4c-1.5,3.5-3.5,6.7-5.9,9.6c-1.3,1.5-2.7,3-4.2,4.2c-4.6,3.9-7.3,9.5-7.4,15.5l-0.1,4.1     c-0.4,13.7,1.2,27.3,4.9,40.5l7,25.5c0.4,1.3-0.4,2.7-1.7,3.1c-0.2,0.1-0.5,0.1-0.7,0.1c-1.1,0-2.1-0.8-2.4-1.8l-13.6-45.2     c-0.6-2-2.5-3.4-4.6-3.4s-4,1.4-4.6,3.4l-13.6,45.2c-0.4,1.3-1.7,2.1-3,1.7c-0.6-0.2-1.2-0.6-1.5-1.2s-0.4-1.2-0.2-1.9l6.9-25.5     c3.6-13.2,5.2-26.8,4.9-40.5l-0.1-4.1c-0.2-6-2.9-11.6-7.4-15.5c-1.5-1.3-2.9-2.7-4.2-4.2c-6-7.2-9.4-16.8-9.4-26.9     c0-0.7,0.5-1.2,1.2-1.2s1.2,0.6,1.2,1.2c0,19.7,13.4,35.7,29.8,35.7c11.9,0,22.2-8.5,27-20.6c0.1-0.1,0.1-0.3,0.2-0.4l-0.8-1     l-0.7-0.9c0,0.1-0.1,0.2-0.1,0.4c-4.2,12.1-14.1,20.5-25.6,20.5c-15.3,0-27.8-15.1-27.8-33.7c0-1.8-1.5-3.2-3.2-3.2     c-1.8,0-3.2,1.5-3.2,3.2c0,10.6,3.5,20.6,9.8,28.2c1.4,1.6,2.9,3.2,4.5,4.5c4.1,3.5,6.6,8.6,6.7,14l0.1,4.1     c0.4,13.5-1.2,26.9-4.8,40l-6.9,25.5c-0.3,1.2-0.2,2.4,0.4,3.4s1.5,1.8,2.7,2.1c2.4,0.6,4.8-0.8,5.5-3.2l13.6-45.1     c0.4-1.2,1.4-2,2.7-2c1.2,0,2.3,0.8,2.7,2l13.6,45.1c0.5,1.9,2.3,3.3,4.3,3.3c0.4,0,0.8-0.1,1.2-0.2c2.4-0.7,3.8-3.1,3.1-5.5     l-7-25.5c-3.6-13-5.2-26.5-4.8-39.9L465.8,222z M465.8,222c0.1-5.4,2.6-10.5,6.7-14c1.6-1.3,3.1-2.8,4.5-4.5     c2.3-2.8,4.2-5.8,5.8-9.2c0-0.1,0.1-0.2,0.1-0.3l-0.7-0.9l-0.7-0.9c0,0.1-0.1,0.3-0.2,0.4c-1.5,3.5-3.5,6.7-5.9,9.6     c-1.3,1.5-2.7,3-4.2,4.2c-4.6,3.9-7.3,9.5-7.4,15.5l-0.1,4.1c-0.4,13.7,1.2,27.3,4.9,40.5l7,25.5c0.4,1.3-0.4,2.7-1.7,3.1     c-0.2,0.1-0.5,0.1-0.7,0.1c-1.1,0-2.1-0.8-2.4-1.8l-13.6-45.2c-0.6-2-2.5-3.4-4.6-3.4s-4,1.4-4.6,3.4l-13.6,45.2     c-0.4,1.3-1.7,2.1-3,1.7c-0.6-0.2-1.2-0.6-1.5-1.2s-0.4-1.2-0.2-1.9l6.9-25.5c3.6-13.2,5.2-26.8,4.9-40.5l-0.1-4.1     c-0.2-6-2.9-11.6-7.4-15.5c-1.5-1.3-2.9-2.7-4.2-4.2c-6-7.2-9.4-16.8-9.4-26.9c0-0.7,0.5-1.2,1.2-1.2s1.2,0.6,1.2,1.2     c0,19.7,13.4,35.7,29.8,35.7c11.9,0,22.2-8.5,27-20.6c0.1-0.1,0.1-0.3,0.2-0.4l-0.8-1l-0.7-0.9c0,0.1-0.1,0.2-0.1,0.4     c-4.2,12.1-14.1,20.5-25.6,20.5c-15.3,0-27.8-15.1-27.8-33.7c0-1.8-1.5-3.2-3.2-3.2c-1.8,0-3.2,1.5-3.2,3.2     c0,10.6,3.5,20.6,9.8,28.2c1.4,1.6,2.9,3.2,4.5,4.5c4.1,3.5,6.6,8.6,6.7,14l0.1,4.1c0.4,13.5-1.2,26.9-4.8,40l-6.9,25.5     c-0.3,1.2-0.2,2.4,0.4,3.4s1.5,1.8,2.7,2.1c2.4,0.6,4.8-0.8,5.5-3.2l13.6-45.1c0.4-1.2,1.4-2,2.7-2c1.2,0,2.3,0.8,2.7,2     l13.6,45.1c0.5,1.9,2.3,3.3,4.3,3.3c0.4,0,0.8-0.1,1.2-0.2c2.4-0.7,3.8-3.1,3.1-5.5l-7-25.5c-3.6-13-5.2-26.5-4.8-39.9L465.8,222     z M465.8,222c0.1-5.4,2.6-10.5,6.7-14c1.6-1.3,3.1-2.8,4.5-4.5c2.3-2.8,4.2-5.8,5.8-9.2c0-0.1,0.1-0.2,0.1-0.3l-0.7-0.9l-0.7-0.9     c0,0.1-0.1,0.3-0.2,0.4c-1.5,3.5-3.5,6.7-5.9,9.6c-1.3,1.5-2.7,3-4.2,4.2c-4.6,3.9-7.3,9.5-7.4,15.5l-0.1,4.1     c-0.4,13.7,1.2,27.3,4.9,40.5l7,25.5c0.4,1.3-0.4,2.7-1.7,3.1c-0.2,0.1-0.5,0.1-0.7,0.1c-1.1,0-2.1-0.8-2.4-1.8l-13.6-45.2     c-0.6-2-2.5-3.4-4.6-3.4s-4,1.4-4.6,3.4l-13.6,45.2c-0.4,1.3-1.7,2.1-3,1.7c-0.6-0.2-1.2-0.6-1.5-1.2s-0.4-1.2-0.2-1.9l6.9-25.5     c3.6-13.2,5.2-26.8,4.9-40.5l-0.1-4.1c-0.2-6-2.9-11.6-7.4-15.5c-1.5-1.3-2.9-2.7-4.2-4.2c-6-7.2-9.4-16.8-9.4-26.9     c0-0.7,0.5-1.2,1.2-1.2s1.2,0.6,1.2,1.2c0,19.7,13.4,35.7,29.8,35.7c11.9,0,22.2-8.5,27-20.6c0.1-0.1,0.1-0.3,0.2-0.4l-0.8-1     l-0.7-0.9c0,0.1-0.1,0.2-0.1,0.4c-4.2,12.1-14.1,20.5-25.6,20.5c-15.3,0-27.8-15.1-27.8-33.7c0-1.8-1.5-3.2-3.2-3.2     c-1.8,0-3.2,1.5-3.2,3.2c0,10.6,3.5,20.6,9.8,28.2c1.4,1.6,2.9,3.2,4.5,4.5c4.1,3.5,6.6,8.6,6.7,14l0.1,4.1     c0.4,13.5-1.2,26.9-4.8,40l-6.9,25.5c-0.3,1.2-0.2,2.4,0.4,3.4s1.5,1.8,2.7,2.1c2.4,0.6,4.8-0.8,5.5-3.2l13.6-45.1     c0.4-1.2,1.4-2,2.7-2c1.2,0,2.3,0.8,2.7,2l13.6,45.1c0.5,1.9,2.3,3.3,4.3,3.3c0.4,0,0.8-0.1,1.2-0.2c2.4-0.7,3.8-3.1,3.1-5.5     l-7-25.5c-3.6-13-5.2-26.5-4.8-39.9L465.8,222z M465.8,222c0.1-5.4,2.6-10.5,6.7-14c1.6-1.3,3.1-2.8,4.5-4.5     c2.3-2.8,4.2-5.8,5.8-9.2c0-0.1,0.1-0.2,0.1-0.3l-0.7-0.9l-0.7-0.9c0,0.1-0.1,0.3-0.2,0.4c-1.5,3.5-3.5,6.7-5.9,9.6     c-1.3,1.5-2.7,3-4.2,4.2c-4.6,3.9-7.3,9.5-7.4,15.5l-0.1,4.1c-0.4,13.7,1.2,27.3,4.9,40.5l7,25.5c0.4,1.3-0.4,2.7-1.7,3.1     c-0.2,0.1-0.5,0.1-0.7,0.1c-1.1,0-2.1-0.8-2.4-1.8l-13.6-45.2c-0.6-2-2.5-3.4-4.6-3.4s-4,1.4-4.6,3.4l-13.6,45.2     c-0.4,1.3-1.7,2.1-3,1.7c-0.6-0.2-1.2-0.6-1.5-1.2s-0.4-1.2-0.2-1.9l6.9-25.5c3.6-13.2,5.2-26.8,4.9-40.5l-0.1-4.1     c-0.2-6-2.9-11.6-7.4-15.5c-1.5-1.3-2.9-2.7-4.2-4.2c-6-7.2-9.4-16.8-9.4-26.9c0-0.7,0.5-1.2,1.2-1.2s1.2,0.6,1.2,1.2     c0,19.7,13.4,35.7,29.8,35.7c11.9,0,22.2-8.5,27-20.6c0.1-0.1,0.1-0.3,0.2-0.4l-0.8-1l-0.7-0.9c0,0.1-0.1,0.2-0.1,0.4     c-4.2,12.1-14.1,20.5-25.6,20.5c-15.3,0-27.8-15.1-27.8-33.7c0-1.8-1.5-3.2-3.2-3.2c-1.8,0-3.2,1.5-3.2,3.2     c0,10.6,3.5,20.6,9.8,28.2c1.4,1.6,2.9,3.2,4.5,4.5c4.1,3.5,6.6,8.6,6.7,14l0.1,4.1c0.4,13.5-1.2,26.9-4.8,40l-6.9,25.5     c-0.3,1.2-0.2,2.4,0.4,3.4s1.5,1.8,2.7,2.1c2.4,0.6,4.8-0.8,5.5-3.2l13.6-45.1c0.4-1.2,1.4-2,2.7-2c1.2,0,2.3,0.8,2.7,2     l13.6,45.1c0.5,1.9,2.3,3.3,4.3,3.3c0.4,0,0.8-0.1,1.2-0.2c2.4-0.7,3.8-3.1,3.1-5.5l-7-25.5c-3.6-13-5.2-26.5-4.8-39.9L465.8,222     z M465.8,222c0.1-5.4,2.6-10.5,6.7-14c1.6-1.3,3.1-2.8,4.5-4.5c2.3-2.8,4.2-5.8,5.8-9.2c0-0.1,0.1-0.2,0.1-0.3l-0.7-0.9l-0.7-0.9     c0,0.1-0.1,0.3-0.2,0.4c-1.5,3.5-3.5,6.7-5.9,9.6c-1.3,1.5-2.7,3-4.2,4.2c-4.6,3.9-7.3,9.5-7.4,15.5l-0.1,4.1     c-0.4,13.7,1.2,27.3,4.9,40.5l7,25.5c0.4,1.3-0.4,2.7-1.7,3.1c-0.2,0.1-0.5,0.1-0.7,0.1c-1.1,0-2.1-0.8-2.4-1.8l-13.6-45.2     c-0.6-2-2.5-3.4-4.6-3.4s-4,1.4-4.6,3.4l-13.6,45.2c-0.4,1.3-1.7,2.1-3,1.7c-0.6-0.2-1.2-0.6-1.5-1.2s-0.4-1.2-0.2-1.9l6.9-25.5     c3.6-13.2,5.2-26.8,4.9-40.5l-0.1-4.1c-0.2-6-2.9-11.6-7.4-15.5c-1.5-1.3-2.9-2.7-4.2-4.2c-6-7.2-9.4-16.8-9.4-26.9     c0-0.7,0.5-1.2,1.2-1.2s1.2,0.6,1.2,1.2c0,19.7,13.4,35.7,29.8,35.7c11.9,0,22.2-8.5,27-20.6c0.1-0.1,0.1-0.3,0.2-0.4l-0.8-1     l-0.7-0.9c0,0.1-0.1,0.2-0.1,0.4c-4.2,12.1-14.1,20.5-25.6,20.5c-15.3,0-27.8-15.1-27.8-33.7c0-1.8-1.5-3.2-3.2-3.2     c-1.8,0-3.2,1.5-3.2,3.2c0,10.6,3.5,20.6,9.8,28.2c1.4,1.6,2.9,3.2,4.5,4.5c4.1,3.5,6.6,8.6,6.7,14l0.1,4.1     c0.4,13.5-1.2,26.9-4.8,40l-6.9,25.5c-0.3,1.2-0.2,2.4,0.4,3.4s1.5,1.8,2.7,2.1c2.4,0.6,4.8-0.8,5.5-3.2l13.6-45.1     c0.4-1.2,1.4-2,2.7-2c1.2,0,2.3,0.8,2.7,2l13.6,45.1c0.5,1.9,2.3,3.3,4.3,3.3c0.4,0,0.8-0.1,1.2-0.2c2.4-0.7,3.8-3.1,3.1-5.5     l-7-25.5c-3.6-13-5.2-26.5-4.8-39.9L465.8,222z"
           id="path34" /></g></g></g><g
     id="Layer_9"
     class="st0"><g
       class="st1"
       id="g45"><path
         class="st2"
         d="M595.6,188.1l-0.7,0.9l-0.7,0.9l-1.8,2.2l-0.7,0.9l-0.7,1c0,0.1,0.1,0.2,0.1,0.3c0.2-0.3,0.5-0.6,0.7-0.8l0,0    c0.2-0.3,0.5-0.6,0.7-0.9c0.6-0.7,1.2-1.5,1.8-2.2c0.2-0.3,0.5-0.6,0.7-1c0.2-0.3,0.5-0.6,0.7-1    C595.7,188.3,595.6,188.2,595.6,188.1z M482.2,193.1l-0.7-0.9l-1.8-2.3L479,189l-0.7-0.9c0,0.1-0.1,0.2-0.1,0.4    c0.2,0.3,0.5,0.6,0.7,1c0.2,0.3,0.5,0.6,0.7,1c0.6,0.8,1.2,1.5,1.8,2.3c0.2,0.3,0.4,0.5,0.7,0.8l0,0c0.2,0.3,0.5,0.6,0.7,0.9    c0-0.1,0.1-0.2,0.1-0.3L482.2,193.1z M547.1,219.5l0.2-6.9c0.1-3.8,0.7-7.5,1.7-11.1c-3.9,1-7.9,1.5-12,1.5s-8.1-0.5-12-1.4    c1,3.6,1.6,7.3,1.7,11l0.2,7c0.2,9.1,0,18.2-0.8,27.3c3-2.6,6.8-4.1,11-4.1c4.1,0,7.9,1.5,10.8,4    C547.1,237.7,546.8,228.6,547.1,219.5z M547.1,219.5l0.2-6.9c0.1-3.8,0.7-7.5,1.7-11.1c-3.9,1-7.9,1.5-12,1.5s-8.1-0.5-12-1.4    c1,3.6,1.6,7.3,1.7,11l0.2,7c0.2,9.1,0,18.2-0.8,27.3c3-2.6,6.8-4.1,11-4.1c4.1,0,7.9,1.5,10.8,4    C547.1,237.7,546.8,228.6,547.1,219.5z M479.6,190.3c0.6,0.8,1.2,1.5,1.8,2.3c0.1-0.1,0.1-0.3,0.2-0.4l-1.8-2.3    C479.7,190,479.7,190.2,479.6,190.3z"
         id="path41" /><path
         class="st2"
         d="M605.8,117.8c-4.4-4.5-10.4-7-16.7-7c-13,0-23.5,10.6-23.5,23.5c0,20.9-13.1,38.6-28.6,38.6    s-28.6-17.7-28.6-38.6c0-13-10.6-23.5-23.5-23.5s-23.5,10.6-23.5,23.5c0,17.2,4.5,33.7,12.8,47.7c0.2,0.4,0.5,0.8,0.8,1.2    c0.2,0.4,0.5,0.8,0.7,1.2l2.8,3.5l0.7,0.9l0.7,0.9l1.8,2.3l0.7,0.9l0.7,0.9l2.5,3.2c0.2,0.2,0.5,0.5,0.7,0.8s0.5,0.5,0.7,0.8    c1.6,1.6,3.2,3,4.8,4.4c3,2.5,4.8,6.2,4.9,10.2l0.2,7c0.6,20.9-1.9,41.8-7.5,62L477.8,325c-1.8,6.6-1,13.5,2.4,19.5    c3.4,5.9,8.9,10.2,15.4,12c2.3,0.6,4.6,0.9,6.8,0.9c4.4,0,8.7-1.1,12.6-3.4c5.8-3.3,10.1-8.8,11.9-15.2l10-33.2l10,33.2    c3.7,13.1,17.5,21.5,31.4,17.7c13.5-3.7,21.5-17.8,17.9-31.5l-11.8-42.9c-5.5-20.2-8-41-7.4-61.8l0.2-7c0.1-4,1.9-7.7,4.9-10.2    c1.7-1.4,3.3-2.9,4.8-4.5c0.2-0.2,0.5-0.5,0.7-0.8s0.5-0.5,0.7-0.8l2.5-3.2l0.7-0.9l0.7-0.9l1.8-2.2l0.7-0.9l0.7-0.9l2.8-3.5    c0.2-0.4,0.5-0.8,0.7-1.2s0.5-0.8,0.8-1.2c8.3-14,12.8-30.5,12.8-47.7C612.6,128.2,610.2,122.2,605.8,117.8z M547.8,246.7    c-2.9-2.5-6.7-4-10.8-4c-4.2,0-8,1.5-11,4.1c0.8-9.1,1-18.2,0.8-27.3l-0.2-7c-0.1-3.8-0.7-7.5-1.7-11c3.9,1,7.9,1.4,12,1.4    s8.2-0.5,12-1.5c-1,3.6-1.6,7.3-1.7,11.1l-0.2,6.9C546.8,228.6,547.1,237.7,547.8,246.7z"
         id="path43" /></g></g><g
     id="Layer_10"
     class="st0"><g
       class="st1"
       id="g50"><path
         class="st2"
         d="M605.8,117.8c-4.4-4.5-10.4-7-16.7-7c-13,0-23.5,10.6-23.5,23.5c0,20.9-13.1,38.6-28.6,38.6    s-28.6-17.7-28.6-38.6c0-13-10.6-23.5-23.5-23.5s-23.5,10.6-23.5,23.5c0,17.2,4.5,33.7,12.8,47.7c0.2,0.4,0.5,0.8,0.8,1.2    c0.2,0.4,0.5,0.8,0.7,1.2l2.8,3.5c1.3-4,2.1-8.3,2.1-12.8c0-1.8,1.5-3.2,3.2-3.2c0.9,0,1.7,0.3,2.3,1c0.6,0.6,0.9,1.4,0.9,2.3    c0,6.6-1.4,13-3.9,18.7l2.5,3.2c0.2,0.2,0.5,0.5,0.7,0.8s0.5,0.5,0.7,0.8c1.6,1.6,3.2,3,4.8,4.4c3,2.5,4.8,6.2,4.9,10.2l0.2,7    c0.6,20.9-1.9,41.8-7.5,62L477.8,325c-1.8,6.6-1,13.5,2.4,19.5c3.4,5.9,8.9,10.2,15.4,12c2.3,0.6,4.6,0.9,6.8,0.9    c4.4,0,8.7-1.1,12.6-3.4c5.8-3.3,10.1-8.8,11.9-15.2l10-33.2l10,33.2c3.7,13.1,17.5,21.5,31.4,17.7c13.5-3.7,21.5-17.8,17.9-31.5    l-11.8-42.9c-5.5-20.2-8-41-7.4-61.8l0.2-7c0.1-4,1.9-7.7,4.9-10.2c1.7-1.4,3.3-2.9,4.8-4.5c0.2-0.2,0.5-0.5,0.7-0.8    s0.5-0.5,0.7-0.8l2.5-3.2c-2.6-5.7-4-12.1-4-18.8c0-1.8,1.4-3.2,3.2-3.2s3.2,1.5,3.2,3.2c0,4.6,0.8,8.9,2.1,12.9l2.8-3.5    c0.2-0.4,0.5-0.8,0.7-1.2s0.5-0.8,0.8-1.2c8.3-14,12.8-30.5,12.8-47.7C612.6,128.2,610.2,122.2,605.8,117.8z M547.1,219.5l0.2-6.9    c0.1-3.8,0.7-7.5,1.7-11.1c-3.9,1-7.9,1.5-12,1.5s-8.1-0.5-12-1.4c1,3.6,1.6,7.3,1.7,11l0.2,7c0.2,9.1,0,18.2-0.8,27.3    c3-2.6,6.8-4.1,11-4.1c4.1,0,7.9,1.5,10.8,4C547.1,237.7,546.8,228.6,547.1,219.5z M482.2,193.1l-0.7-0.9l-1.8-2.3L479,189    l-0.7-0.9c0,0.1-0.1,0.2-0.1,0.4c0.2,0.3,0.5,0.6,0.7,1c0.2,0.3,0.5,0.6,0.7,1c0.6,0.8,1.2,1.5,1.8,2.3c0.2,0.3,0.4,0.5,0.7,0.8    l0,0c0.2,0.3,0.5,0.6,0.7,0.9c0-0.1,0.1-0.2,0.1-0.3L482.2,193.1z M595.6,188.1l-0.7,0.9l-0.7,0.9l-1.8,2.2l-0.7,0.9l-0.7,1    c0,0.1,0.1,0.2,0.1,0.3c0.2-0.3,0.5-0.6,0.7-0.8l0,0c0.2-0.3,0.5-0.6,0.7-0.9c0.6-0.7,1.2-1.5,1.8-2.2c0.2-0.3,0.5-0.6,0.7-1    c0.2-0.3,0.5-0.6,0.7-1C595.7,188.3,595.6,188.2,595.6,188.1z"
         id="path48" /></g></g><g
     id="Layer_7"
     class="st0"><g
       class="st1"
       id="g57"><path
         class="st3"
         d="M537,172.3c10.6,0,19.2-8.5,19.2-19s-8.6-19.1-19.2-19.1c-10.6,0-19.2,8.5-19.2,19.1    C517.8,163.7,526.4,172.3,537,172.3z"
         id="path53" /><path
         class="st3"
         d="M562.1,219.9l0.2-6.9c0.2-8.2,3.9-16,10.2-21.3c2.8-2.3,5.4-5,7.9-7.9c11.1-13.3,17.2-30.8,17.2-49.4    c0-4.8-3.8-8.6-8.5-8.6s-8.5,3.8-8.5,8.5c0,29.6-19.6,53.6-43.6,53.6c-24.1,0-43.6-24.1-43.6-53.6c0-4.7-3.8-8.5-8.5-8.5    c-4.6,0-8.5,3.8-8.5,8.5c0,18.6,6.2,36.1,17.2,49.4c2.5,2.9,5.1,5.6,7.9,7.9c6.3,5.3,10,13,10.2,21.3l0.2,6.9    c0.6,22.4-2.1,44.7-8,66.3L492.2,329c-1.6,5.6,1.8,11.5,7.4,13c5.6,1.6,11.4-1.8,13-7.4l22.8-75.8c0.5-1.6,2.7-1.6,3.2,0    l22.8,75.8c1.3,4.7,5.5,7.8,10.2,7.8c0.9,0,1.9-0.1,2.8-0.4c5.6-1.6,8.9-7.4,7.4-13L570,286.2    C564.1,264.6,561.4,242.3,562.1,219.9z"
         id="path55" /></g></g></svg>