<?xml version="1.0" encoding="UTF-8" standalone="no"?>
<!-- Created with Inkscape (http://www.inkscape.org/) -->

<svg
   xmlns:dc="http://purl.org/dc/elements/1.1/"
   xmlns:cc="http://creativecommons.org/ns#"
   xmlns:rdf="http://www.w3.org/1999/02/22-rdf-syntax-ns#"
   xmlns:svg="http://www.w3.org/2000/svg"
   xmlns="http://www.w3.org/2000/svg"
   xmlns:sodipodi="http://sodipodi.sourceforge.net/DTD/sodipodi-0.dtd"
   xmlns:inkscape="http://www.inkscape.org/namespaces/inkscape"
   version="1.1"
   id="svg2"
   xml:space="preserve"
   width="1384.1433"
   height="236.0652"
   viewBox="0 0 1384.1433 236.0652"
   sodipodi:docname="logo_horizontal_branco.svg"
   inkscape:version="0.92.2 5c3e80d, 2017-08-06"><metadata
     id="metadata8"><rdf:RDF><cc:Work
         rdf:about=""><dc:format>image/svg+xml</dc:format><dc:type
           rdf:resource="http://purl.org/dc/dcmitype/StillImage" /><dc:title></dc:title></cc:Work></rdf:RDF></metadata><defs
     id="defs6"><clipPath
       clipPathUnits="userSpaceOnUse"
       id="clipPath18"><path
         d="M 0,400 H 1247.333 V 0 H 0 Z"
         id="path16"
         inkscape:connector-curvature="0" /></clipPath><linearGradient
       x1="0"
       y1="0"
       x2="1"
       y2="0"
       gradientUnits="userSpaceOnUse"
       gradientTransform="matrix(169.28697,-97.737877,-97.737877,-169.28697,93.029602,262.59695)"
       spreadMethod="pad"
       id="linearGradient56"><stop
         style="stop-opacity:1;stop-color:#ffffff"
         offset="0"
         id="stop48" /><stop
         style="stop-opacity:1;stop-color:#ffffff"
         offset="0.781205"
         id="stop50" /><stop
         style="stop-opacity:1;stop-color:#ffffff"
         offset="0.88345044"
         id="stop52" /><stop
         style="stop-opacity:1;stop-color:#606264"
         offset="1"
         id="stop54" /></linearGradient><clipPath
       clipPathUnits="userSpaceOnUse"
       id="clipPath66"><path
         d="M 0,400 H 1247.333 V 0 H 0 Z"
         id="path64"
         inkscape:connector-curvature="0" /></clipPath></defs><sodipodi:namedview
     pagecolor="#ffffff"
     bordercolor="#666666"
     borderopacity="1"
     objecttolerance="10"
     gridtolerance="10"
     guidetolerance="10"
     inkscape:pageopacity="0"
     inkscape:pageshadow="2"
     inkscape:window-width="1751"
     inkscape:window-height="931"
     id="namedview4"
     showgrid="false"
     inkscape:zoom="0.70891423"
     inkscape:cx="916.38248"
     inkscape:cy="118.03321"
     inkscape:window-x="0"
     inkscape:window-y="0"
     inkscape:window-maximized="0"
     inkscape:current-layer="g10"
     fit-margin-top="0"
     fit-margin-left="0"
     fit-margin-right="0"
     fit-margin-bottom="0" /><g
     id="g10"
     inkscape:groupmode="layer"
     inkscape:label="MS_LOGO_HORIZONTAL_BRANCO_mar2020"
     transform="matrix(1.3333333,0,0,-1.3333333,-139.48333,384.69866)"><g
       id="g12"><g
         id="g14"
         clip-path="url(#clipPath18)"><g
           id="g20"
           transform="translate(104.6135,196.2881)"><path
             d="m 0,0 c 0,-2.754 2.16,-5.016 4.909,-5.16 44.429,-2.325 66.716,-36.296 66.716,-74.412 v -0.053 c -0.003,-2.861 2.305,-5.188 5.166,-5.188 h 26.02 c 2.846,0 5.163,2.305 5.166,5.152 v 0.089 c 0,56.927 -37.766,102.22 -102.623,104.58 -2.925,0.106 -5.355,-2.236 -5.355,-5.163 z"
             style="fill:#ffffff;fill-opacity:1;fill-rule:nonzero;stroke:none"
             id="path22"
             inkscape:connector-curvature="0" /></g><g
           id="g24"
           transform="translate(104.6125,147.4727)"><path
             d="m 0,0 c 0,-2.531 1.839,-4.684 4.338,-5.091 12.443,-2.027 21.959,-12.643 21.959,-25.666 v -0.054 c -0.006,-2.859 2.297,-5.186 5.156,-5.186 h 14.202 c 2.841,0 5.152,2.298 5.158,5.138 v 0.102 C 50.813,-4.681 31.068,16.871 5.745,19.732 2.684,20.079 0.001,17.69 0.001,14.609 Z"
             style="fill:#ffffff;fill-opacity:1;fill-rule:nonzero;stroke:none"
             id="path26"
             inkscape:connector-curvature="0" /></g><g
           id="g28"
           transform="translate(329.3293,184.1338)"><path
             d="m 0,0 c -17.314,-17.806 -27.356,-41.517 -28.592,-67.249 -0.141,-2.943 2.204,-5.409 5.152,-5.409 H 2.637 c 2.725,0 4.972,2.122 5.147,4.843 1.052,16.398 7.448,31.337 18.277,42.472 10.318,10.611 23.714,17.015 39.118,18.808 2.605,0.304 4.575,2.501 4.575,5.124 v 26.169 c 0,3.025 -2.592,5.407 -5.605,5.138 C 39.273,27.671 16.779,17.255 0,0"
             style="fill:#ffffff;fill-opacity:1;fill-rule:nonzero;stroke:none"
             id="path30"
             inkscape:connector-curvature="0" /></g><g
           id="g32"
           transform="translate(360.3381,111.4756)"><path
             d="m 0,0 h 14.334 c 2.562,0 4.738,1.88 5.103,4.415 0.905,6.287 4.198,15.633 15.512,18.714 2.242,0.61 3.796,2.65 3.796,4.974 v 14.52 c 0,3.236 -2.945,5.669 -6.125,5.065 C 11.537,43.681 -3.017,27.704 -5.134,5.646 -5.424,2.619 -3.041,0 0,0"
             style="fill:#ffffff;fill-opacity:1;fill-rule:nonzero;stroke:none"
             id="path34"
             inkscape:connector-curvature="0" /></g></g></g><g
       id="g36"><g
         id="g38"><g
           id="g44"><g
             id="g46"><path
               d="m 104.818,280.993 v -28.729 c 0,-4.04 3.189,-7.358 7.227,-7.523 v 0 c 67.553,-2.759 120.623,-44.515 123.453,-126.333 v 0 c 0.072,31.786 9.049,59.552 23.574,82.576 v 0 c -0.138,0.13 -0.265,0.278 -0.365,0.458 v 0 c -28.774,52.363 -83.174,84.477 -146.063,87.075 v 0 c -0.106,0.005 -0.211,0.007 -0.315,0.007 v 0 c -4.129,0 -7.511,-3.361 -7.511,-7.531"
               style="fill:url(#linearGradient56);stroke:none"
               id="path58"
               inkscape:connector-curvature="0" /></g></g></g></g><g
       id="g60"><g
         id="g62"
         clip-path="url(#clipPath66)"><g
           id="g68"
           transform="translate(391.4162,276.5586)"><path
             d="m 0,0 c 4.293,0 7.872,-3.229 7.872,-7.521 v -27.6 c 0,-4.03 -3.173,-7.349 -7.198,-7.522 -68.984,-2.958 -107.938,-48.689 -110.562,-114.961 -0.16,-4.042 -3.479,-7.238 -7.523,-7.238 H -148.4 c -4.053,0 -7.524,2.992 -7.524,7.258 C -155.924,-59.693 -71.073,0 0,0"
             style="fill:#ffffff;fill-opacity:1;fill-rule:nonzero;stroke:none"
             id="path70"
             inkscape:connector-curvature="0" /></g><g
           id="g72"
           transform="translate(533.0432,173.251)"><path
             d="m 0,0 c 0,10.083 -1.301,17.225 -3.903,21.427 -2.602,4.201 -7.068,6.303 -13.398,6.303 -1.97,0 -4.009,-0.106 -6.119,-0.316 -2.109,-0.211 -4.151,-0.457 -6.119,-0.736 V -58.613 H -60.862 V 48.201 c 2.665,0.699 5.786,1.438 9.367,2.209 3.578,0.77 7.367,1.47 11.369,2.102 3.999,0.629 8.104,1.121 12.314,1.47 4.209,0.351 8.351,0.528 12.421,0.528 7.998,0 14.491,-1.017 19.474,-3.051 4.98,-2.033 9.086,-4.45 12.316,-7.255 4.49,3.226 9.647,5.749 15.472,7.572 5.822,1.821 11.192,2.734 16.106,2.734 8.84,0 16.103,-1.227 21.789,-3.679 5.683,-2.456 10.21,-5.924 13.577,-10.411 3.368,-4.485 5.685,-9.811 6.949,-15.979 1.263,-6.167 1.894,-13.037 1.894,-20.604 v -62.45 H 60.862 V 0 c 0,10.083 -1.3,17.225 -3.903,21.427 -2.602,4.201 -7.067,6.303 -13.397,6.303 -1.689,0 -4.047,-0.42 -7.07,-1.262 -3.023,-0.842 -5.518,-1.892 -7.484,-3.155 0.981,-3.22 1.613,-6.619 1.894,-10.189 0.28,-3.571 0.421,-7.388 0.421,-11.447 v -60.29 H 0 Z"
             style="fill:#ffffff;fill-opacity:1;fill-rule:nonzero;stroke:none"
             id="path74"
             inkscape:connector-curvature="0" /></g><g
           id="g76"
           transform="translate(789.8586,118.3506)"><path
             d="m 0,0 c -5.326,-1.542 -12.193,-2.979 -20.603,-4.311 -8.409,-1.332 -17.236,-1.999 -26.482,-1.999 -9.391,0 -17.204,1.266 -23.439,3.789 -6.237,2.526 -11.176,6.072 -14.818,10.633 -3.644,4.563 -6.236,10.002 -7.778,16.32 -1.542,6.316 -2.313,13.265 -2.313,20.847 v 61.697 h 31.325 v -57.88 c 0,-10.104 1.328,-17.402 3.991,-21.89 2.663,-4.491 7.636,-6.736 14.921,-6.736 2.242,0 4.623,0.104 7.146,0.314 2.521,0.208 4.763,0.454 6.726,0.737 v 85.455 H 0 Z"
             style="fill:#ffffff;fill-opacity:1;fill-rule:nonzero;stroke:none"
             id="path78"
             inkscape:connector-curvature="0" /></g><g
           id="g80"
           transform="translate(893.2942,137.1982)"><path
             d="m 0,0 c 5.749,0 9.816,0.558 12.2,1.679 2.384,1.12 3.578,3.291 3.578,6.511 0,2.519 -1.539,4.722 -4.613,6.615 -3.073,1.888 -7.765,4.021 -14.069,6.397 -4.905,1.817 -9.355,3.7 -13.349,5.658 -3.994,1.955 -7.4,4.301 -10.218,7.037 -2.819,2.737 -5.003,6 -6.552,9.79 -1.55,3.788 -2.324,8.35 -2.324,13.683 0,10.382 3.858,18.591 11.575,24.627 7.716,6.035 18.309,9.053 31.78,9.053 6.733,0 13.187,-0.596 19.359,-1.788 6.173,-1.192 11.085,-2.491 14.735,-3.893 L 36.634,60.895 c -3.645,1.26 -7.603,2.381 -11.876,3.363 -4.273,0.981 -9.071,1.473 -14.394,1.473 -9.809,0 -14.711,-2.731 -14.711,-8.191 0,-1.261 0.208,-2.382 0.629,-3.36 0.418,-0.979 1.258,-1.925 2.516,-2.835 1.258,-0.91 2.972,-1.885 5.145,-2.919 2.17,-1.037 4.94,-2.179 8.303,-3.421 6.867,-2.49 12.542,-4.942 17.028,-7.362 4.484,-2.419 8.024,-5.072 10.619,-7.956 2.593,-2.882 4.417,-6.083 5.469,-9.598 1.05,-3.517 1.577,-7.595 1.577,-12.235 0,-10.971 -4.105,-19.271 -12.311,-24.896 -8.206,-5.625 -19.816,-8.439 -34.829,-8.439 -9.821,0 -17.994,0.841 -24.517,2.523 -6.522,1.684 -11.047,3.086 -13.572,4.207 l 5.257,25.48 c 5.33,-2.104 10.8,-3.75 16.41,-4.942 C -11.014,0.596 -5.473,0 0,0"
             style="fill:#ffffff;fill-opacity:1;fill-rule:nonzero;stroke:none"
             id="path82"
             inkscape:connector-curvature="0" /></g><path
           d="m 1036.922,114.638 h -31.323 v 110.689 h 31.323 z m 2.944,142.662 c 0,-5.747 -1.858,-10.268 -5.571,-13.563 -3.715,-3.294 -8.095,-4.94 -13.139,-4.94 -5.046,0 -9.428,1.646 -13.141,4.94 -3.715,3.295 -5.571,7.816 -5.571,13.563 0,5.746 1.856,10.265 5.571,13.559 3.713,3.294 8.095,4.943 13.141,4.943 5.044,0 9.424,-1.649 13.139,-4.943 3.713,-3.294 5.571,-7.813 5.571,-13.559"
           style="fill:#ffffff;fill-opacity:1;fill-rule:nonzero;stroke:none"
           id="path84"
           inkscape:connector-curvature="0" /><path
           d="m 1139.777,114.638 h -31.324 v 110.689 h 31.324 z m 2.943,142.662 c 0,-5.747 -1.858,-10.268 -5.571,-13.563 -3.715,-3.294 -8.095,-4.94 -13.139,-4.94 -5.046,0 -9.429,1.646 -13.141,4.94 -3.715,3.295 -5.572,7.816 -5.572,13.563 0,5.746 1.857,10.265 5.572,13.559 3.712,3.294 8.095,4.943 13.141,4.943 5.044,0 9.424,-1.649 13.139,-4.943 3.713,-3.294 5.571,-7.813 5.571,-13.559"
           style="fill:#ffffff;fill-opacity:1;fill-rule:nonzero;stroke:none"
           id="path86"
           inkscape:connector-curvature="0" /></g></g></g></svg>