<?xml version="1.0" encoding="UTF-8" standalone="no"?>
<svg
   xmlns:dc="http://purl.org/dc/elements/1.1/"
   xmlns:cc="http://creativecommons.org/ns#"
   xmlns:rdf="http://www.w3.org/1999/02/22-rdf-syntax-ns#"
   xmlns:svg="http://www.w3.org/2000/svg"
   xmlns="http://www.w3.org/2000/svg"
   xmlns:sodipodi="http://sodipodi.sourceforge.net/DTD/sodipodi-0.dtd"
   xmlns:inkscape="http://www.inkscape.org/namespaces/inkscape"
   version="1.1"
   x="0px"
   y="0px"
   viewBox="0 0 48.588543 49"
   xml:space="preserve"
   id="svg30"
   sodipodi:docname="error-icon.svg"
   width="48.588543"
   height="49"
   inkscape:version="0.92.2 5c3e80d, 2017-08-06"><metadata
     id="metadata36"><rdf:RDF><cc:Work
         rdf:about=""><dc:format>image/svg+xml</dc:format><dc:type
           rdf:resource="http://purl.org/dc/dcmitype/StillImage" /><dc:title></dc:title></cc:Work></rdf:RDF></metadata><defs
     id="defs34" /><sodipodi:namedview
     pagecolor="#ffffff"
     bordercolor="#666666"
     borderopacity="1"
     objecttolerance="10"
     gridtolerance="10"
     guidetolerance="10"
     inkscape:pageopacity="0"
     inkscape:pageshadow="2"
     inkscape:window-width="1690"
     inkscape:window-height="1005"
     id="namedview32"
     showgrid="false"
     fit-margin-top="0"
     fit-margin-left="0"
     fit-margin-right="0"
     fit-margin-bottom="0"
     inkscape:zoom="8.9604571"
     inkscape:cx="32.563351"
     inkscape:cy="11.474765"
     inkscape:window-x="0"
     inkscape:window-y="0"
     inkscape:window-maximized="0"
     inkscape:current-layer="svg30" /><g
     id="g24"
     transform="translate(-0.7,-0.5)"><path
       d="m 6.2,23.8 h 13.7 c 0.6,0 1,-0.4 1,-1 v -7.2 c 0,-0.6 -0.4,-1 -1,-1 H 6.2 c -0.6,0 -1,0.4 -1,1 v 7.2 c 0,0.5 0.4,1 1,1 z m 1,-7.2 h 11.7 v 5.2 H 7.2 Z"
       id="path2"
       inkscape:connector-curvature="0" /><path
       d="m 24.4,23.8 h 13.3 c 0.6,0 1,-0.4 1,-1 v -7.2 c 0,-0.6 -0.4,-1 -1,-1 H 24.4 c -0.6,0 -1,0.4 -1,1 v 7.2 c 0,0.5 0.4,1 1,1 z m 1,-7.2 h 11.3 v 5.2 H 25.4 Z"
       id="path4"
       inkscape:connector-curvature="0" /><path
       d="m 5.9,9.1 h 2 c 0.9,0 1.7,-0.8 1.7,-1.7 v -2 C 9.6,4.4 8.8,3.7 7.9,3.7 h -2 C 5,3.7 4.2,4.5 4.2,5.4 v 2 c 0,1 0.7,1.7 1.7,1.7 z M 6.2,5.7 H 7.6 V 7.2 H 6.2 Z"
       id="path6"
       inkscape:connector-curvature="0" /><path
       d="m 12.4,9.1 h 2 c 0.9,0 1.7,-0.8 1.7,-1.7 v -2 c 0,-1 -0.8,-1.7 -1.7,-1.7 h -2 c -0.9,0 -1.7,0.8 -1.7,1.7 v 2 c 0,1 0.8,1.7 1.7,1.7 z m 0.3,-3.4 h 1.4 v 1.5 h -1.4 z"
       id="path8"
       inkscape:connector-curvature="0" /><path
       d="m 18.7,7.4 h 20.1 c 0.6,0 1,-0.4 1,-1 0,-0.6 -0.4,-1 -1,-1 H 18.7 c -0.6,0 -1,0.4 -1,1 0,0.6 0.4,1 1,1 z"
       id="path10"
       inkscape:connector-curvature="0" /><path
       d="m 29.6,26.3 h -25 c -0.6,0 -1,0.4 -1,1 0,0.6 0.4,1 1,1 h 25 c 0.6,0 1,-0.4 1,-1 0,-0.5 -0.5,-1 -1,-1 z"
       id="path12"
       inkscape:connector-curvature="0" /><path
       d="M 21.9,31.4 H 4.6 c -0.6,0 -1,0.4 -1,1 0,0.6 0.4,1 1,1 H 22 c 0.6,0 1,-0.4 1,-1 -0.1,-0.5 -0.5,-1 -1.1,-1 z"
       id="path14"
       inkscape:connector-curvature="0" /><path
       d="M 21.9,36.5 H 4.6 c -0.6,0 -1,0.4 -1,1 0,0.6 0.4,1 1,1 H 22 c 0.6,0 1,-0.4 1,-1 -0.1,-0.6 -0.5,-1 -1.1,-1 z"
       id="path16"
       inkscape:connector-curvature="0" /><path
       d="M 48.9,45.4 43.2,36.2 V 4.1 c 0,-2 -1.6,-3.6 -3.6,-3.6 H 4.3 c -2,0 -3.6,1.6 -3.6,3.6 v 36.1 c 0,1.5 1.3,2.8 3,2.8 H 25.5 L 24,45.4 c -0.5,0.8 -0.6,1.9 -0.1,2.7 0.5,0.9 1.4,1.4 2.4,1.4 h 20.3 c 1,0 1.9,-0.5 2.4,-1.4 0.4,-0.9 0.4,-1.9 -0.1,-2.7 z M 4.3,2.5 h 35.3 c 0.9,0 1.6,0.7 1.6,1.6 v 6.3 H 2.7 V 4.1 C 2.7,3.2 3.4,2.5 4.3,2.5 Z M 3.7,41 C 3.2,41 2.8,40.6 2.8,40.2 V 12.3 H 41.3 V 33 l -2.6,-4 c -0.5,-0.8 -1.4,-1.3 -2.3,-1.3 -0.9,0 -1.8,0.5 -2.3,1.3 l -7.4,12 z m 43.5,6.1 c -0.1,0.1 -0.2,0.4 -0.6,0.4 H 26.3 c -0.4,0 -0.6,-0.3 -0.6,-0.4 -0.1,-0.1 -0.2,-0.4 0,-0.7 L 35.9,30 c 0.2,-0.3 0.5,-0.3 0.6,-0.3 0.1,0 0.4,0 0.6,0.3 l 10.2,16.3 c 0.1,0.4 0,0.7 -0.1,0.8 z"
       id="path18"
       inkscape:connector-curvature="0" /><path
       d="m 37.5,32.7 h -2.1 c -0.4,0 -0.8,0.2 -1.1,0.5 -0.3,0.3 -0.4,0.7 -0.4,1.2 l 0.6,5.3 c 0.1,0.8 0.7,1.4 1.5,1.4 h 0.9 c 0.8,0 1.5,-0.6 1.5,-1.4 L 39,34.3 c 0,-0.4 -0.1,-0.8 -0.4,-1.1 -0.3,-0.3 -0.7,-0.5 -1.1,-0.5 z m -1,6.4 v 0 L 36,34.7 h 1 z"
       id="path20"
       inkscape:connector-curvature="0" /><path
       d="m 36.4,42 c -1.3,0 -2.4,1 -2.4,2.4 0,1.3 1.1,2.4 2.4,2.4 1.3,0 2.4,-1.1 2.4,-2.4 0,-1.4 -1,-2.4 -2.4,-2.4 z m 0,2.8 c -0.2,0 -0.4,-0.2 -0.4,-0.4 0,-0.2 0.2,-0.4 0.4,-0.4 0.2,0 0.4,0.2 0.4,0.4 0,0.2 -0.1,0.4 -0.4,0.4 z"
       id="path22"
       inkscape:connector-curvature="0" /></g></svg>