<?xml version="1.0" encoding="UTF-8" standalone="no"?>
<svg
   xmlns:dc="http://purl.org/dc/elements/1.1/"
   xmlns:cc="http://creativecommons.org/ns#"
   xmlns:rdf="http://www.w3.org/1999/02/22-rdf-syntax-ns#"
   xmlns:svg="http://www.w3.org/2000/svg"
   xmlns="http://www.w3.org/2000/svg"
   xmlns:sodipodi="http://sodipodi.sourceforge.net/DTD/sodipodi-0.dtd"
   xmlns:inkscape="http://www.inkscape.org/namespaces/inkscape"
   version="1.1"
   x="0px"
   y="0px"
   viewBox="0 0 47.295895 48.009285"
   enable-background="new 0 0 50 50"
   xml:space="preserve"
   id="svg12"
   sodipodi:docname="events-icon.svg"
   width="47.295895"
   height="48.009285"
   inkscape:version="0.92.2 5c3e80d, 2017-08-06"><metadata
     id="metadata18"><rdf:RDF><cc:Work
         rdf:about=""><dc:format>image/svg+xml</dc:format><dc:type
           rdf:resource="http://purl.org/dc/dcmitype/StillImage" /><dc:title></dc:title></cc:Work></rdf:RDF></metadata><defs
     id="defs16" /><sodipodi:namedview
     pagecolor="#ffffff"
     bordercolor="#666666"
     borderopacity="1"
     objecttolerance="10"
     gridtolerance="10"
     guidetolerance="10"
     inkscape:pageopacity="0"
     inkscape:pageshadow="2"
     inkscape:window-width="1687"
     inkscape:window-height="1001"
     id="namedview14"
     showgrid="false"
     fit-margin-top="0"
     fit-margin-left="0"
     fit-margin-right="0"
     fit-margin-bottom="0"
     inkscape:zoom="5.3400704"
     inkscape:cx="-48.036266"
     inkscape:cy="-21.444825"
     inkscape:window-x="0"
     inkscape:window-y="0"
     inkscape:window-maximized="0"
     inkscape:current-layer="svg12" /><g
     transform="matrix(0.1097606,0,0,0.1097606,-4.4589716,-4.0611422)"
     id="g10"
     style="fill:#ca6af1;fill-opacity:1"><path
       inkscape:connector-curvature="0"
       id="path2-3"
       d="M 298,141.8 V 127.4 C 298,110.9 284.9,97 268.3,97 H 255 V 47 c 0,-5.5 -4.5,-10 -10,-10 -5.5,0 -10,4.5 -10,10 V 97 H 223.7 C 207.2,97 194,110.9 194,127.4 v 14.4 C 123.5,164.4 75.7,230 75.7,304 c 0,94 76.4,170.4 170.4,170.4 94,0 170.2,-76.4 170.2,-170.4 C 416.4,230 368.5,164.4 298,141.8 Z m 69.2,73.2 h -37.4 c -3.5,-10.1 -7.8,-19.9 -12.9,-29.3 -4,-7.4 -8.6,-14.4 -13.9,-20.9 25.6,10.6 47.8,27.9 64.2,50.2 z M 96,315 h 52.3 c 0.7,20.2 3.5,40.4 8.5,60 H 113.4 C 103.4,356.5 97.5,336 96,315 Z M 255,215 v -60.4 c 16.4,3.8 31.9,17.9 44.4,40.8 3.5,6.3 6.5,12.9 9.1,19.6 z m 60.1,20 c 5.2,19.6 8.2,39.7 8.7,60 H 255 V 235 Z M 235,155.1 V 215 h -51.5 c 2.6,-6.7 5.6,-13.3 9.1,-19.6 12,-21.9 26.7,-35.8 42.4,-40.3 z m 0,79.9 v 60 h -66.8 c 0.5,-20.3 3.5,-40.4 8.7,-60 z m -86.8,60 H 95.8 c 1.2,-20.9 6.9,-41.4 16.5,-60 h 43.9 c -4.8,19.7 -7.5,39.8 -8,60 z m 20.1,20 H 235 v 60 h -57.5 c -5.5,-19.6 -8.6,-39.7 -9.2,-60 z m 66.7,80 v 57.9 c -15.7,-4.5 -30.4,-18.4 -42.4,-40.2 -3.1,-5.7 -5.9,-11.6 -8.3,-17.6 H 235 Z m 20,58.4 V 395 h 52.7 c -2.4,6 -5.2,11.9 -8.3,17.6 -12.5,22.9 -28,37 -44.4,40.8 z m 0,-78.4 v -60 h 68.7 c -0.7,20.3 -3.8,40.4 -9.2,60 z m 88.7,-60 H 396 c -1.5,21 -7.5,41.5 -17.4,60 h -43.4 c 5,-19.6 7.9,-39.8 8.5,-60 z m 0.1,-20 c -0.5,-20.2 -3.2,-40.3 -8.1,-60 h 43.9 c 9.7,18.6 15.3,39.1 16.5,60 z M 214,127.4 c 0,-5.5 4.2,-10.4 9.7,-10.4 h 44.7 c 5.5,0 9.7,4.9 9.7,10.4 v 9.2 c -21.1,-4.1 -42.9,-4.1 -64,0 v -9.2 z m -25.1,37.4 c -5.2,6.6 -9.9,13.6 -13.9,20.9 -5.1,9.4 -9.4,19.2 -12.9,29.3 h -37.4 c 16.5,-22.3 38.7,-39.6 64.2,-50.2 z M 126.3,395 h 36.6 c 3.3,9.4 7.4,18.5 12.1,27.3 4,7.4 8.6,14.4 13.9,20.9 C 164.1,433 142.5,416.3 126.3,395 Z m 176.8,48.2 c 5.2,-6.6 9.9,-13.6 13.9,-20.9 4.8,-8.8 8.8,-17.9 12.1,-27.3 h 36.6 c -16.2,21.3 -37.8,38 -62.6,48.2 z"
       style="fill:#ca6af1;fill-opacity:1" /><path
       inkscape:connector-curvature="0"
       id="path4-8"
       d="m 63.4,150.1 c 3.9,3.9 10.2,3.9 14.1,0 l 8.8,-8.8 9.5,9.5 c 3.9,3.9 10.2,3.9 14.1,0 3.9,-3.9 3.9,-10.2 0,-14.1 v 0 l -9.5,-9.5 9.5,-9.5 c 3.9,-3.9 3.9,-10.2 0,-14.1 -3.9,-3.9 -10.2,-3.9 -14.1,0 l -9.5,9.5 -8.8,-8.8 c -3.9,-3.9 -10.2,-4 -14.1,-0.1 -3.9,3.9 -4,10.2 -0.1,14.1 0,0 0,0 0.1,0.1 l 8.8,8.8 -8.8,8.8 c -3.9,3.9 -3.9,10.2 0,14.1 0,0 0,0 0,0 z"
       style="fill:#ca6af1;fill-opacity:1" /><path
       inkscape:connector-curvature="0"
       id="path6-0"
       d="m 468.6,411.2 c -3.9,-3.9 -10.2,-3.9 -14.1,0 l -9.5,9.5 -8.8,-8.8 c -3.8,-4 -10.2,-4.1 -14.1,-0.2 -3.9,3.9 -4.1,10.2 -0.2,14.1 0.1,0.1 0.1,0.1 0.2,0.2 l 8.8,8.8 -8.8,8.8 c -3.9,3.9 -3.9,10.2 0,14.1 3.9,3.9 10.2,3.9 14.1,0 v 0 l 8.8,-8.8 9.5,9.5 c 3.9,3.9 10.3,3.9 14.1,-0.1 3.9,-3.9 3.9,-10.2 0,-14.1 l -9.5,-9.5 9.5,-9.5 c 3.9,-3.8 3.9,-10.1 0,-14 z"
       style="fill:#ca6af1;fill-opacity:1" /><path
       inkscape:connector-curvature="0"
       id="path8"
       d="m 90.1,421.2 c -3.9,-3.9 -10.2,-3.9 -14.1,0 0,0 0,0 0,0 l -9.5,9.5 -8.8,-8.8 c -3.9,-3.9 -10.2,-4 -14.1,-0.1 -3.9,3.9 -4,10.2 -0.1,14.1 0,0 0,0 0.1,0.1 l 8.8,8.8 -8.8,8.8 c -3.9,3.9 -4,10.2 -0.1,14.1 3.9,3.9 10.2,4 14.1,0.1 0,0 0,0 0.1,-0.1 l 8.8,-8.8 9.5,9.5 c 3.9,3.9 10.2,4 14.1,0.1 3.9,-3.9 4,-10.2 0.1,-14.1 0,0 0,0 -0.1,-0.1 l -9.5,-9.5 9.5,-9.5 c 3.9,-3.9 3.9,-10.2 0,-14.1 z"
       style="fill:#ca6af1;fill-opacity:1" /></g></svg>