<?xml version="1.0" encoding="UTF-8" standalone="no"?>
<svg
   xmlns:dc="http://purl.org/dc/elements/1.1/"
   xmlns:cc="http://creativecommons.org/ns#"
   xmlns:rdf="http://www.w3.org/1999/02/22-rdf-syntax-ns#"
   xmlns:svg="http://www.w3.org/2000/svg"
   xmlns="http://www.w3.org/2000/svg"
   xmlns:sodipodi="http://sodipodi.sourceforge.net/DTD/sodipodi-0.dtd"
   xmlns:inkscape="http://www.inkscape.org/namespaces/inkscape"
   viewBox="0 0 43.299999 46.186668"
   x="0px"
   y="0px"
   version="1.1"
   id="svg32"
   sodipodi:docname="events-icon2.svg"
   width="43.299999"
   height="46.186668"
   inkscape:version="0.92.2 5c3e80d, 2017-08-06">
  <metadata
     id="metadata38">
    <rdf:RDF>
      <cc:Work
         rdf:about="">
        <dc:format>image/svg+xml</dc:format>
        <dc:type
           rdf:resource="http://purl.org/dc/dcmitype/StillImage" />
        <dc:title></dc:title>
      </cc:Work>
    </rdf:RDF>
  </metadata>
  <defs
     id="defs36">
    <style
       type="text/css"
       id="style2">
   
    .fil0 {fill:black}
   
  </style>
  </defs>
  <sodipodi:namedview
     pagecolor="#ffffff"
     bordercolor="#666666"
     borderopacity="1"
     objecttolerance="10"
     gridtolerance="10"
     guidetolerance="10"
     inkscape:pageopacity="0"
     inkscape:pageshadow="2"
     inkscape:window-width="1706"
     inkscape:window-height="984"
     id="namedview34"
     showgrid="false"
     fit-margin-top="0"
     fit-margin-left="0"
     fit-margin-right="0"
     fit-margin-bottom="0"
     inkscape:zoom="2.085965"
     inkscape:cx="-78.496973"
     inkscape:cy="-24.534419"
     inkscape:window-x="0"
     inkscape:window-y="0"
     inkscape:window-maximized="0"
     inkscape:current-layer="g26" />
  <g
     id="g26"
     transform="translate(-2.0000001,-13.413333)">
    <path
       d="m 43.696296,42.28 a 17.694465,17.694465 0 0 1 -0.297487,3.207407 h -5.487072 a 22.31233,22.31233 0 0 0 0,-6.414814 h 5.487072 A 17.694465,17.694465 0 0 1 43.696296,42.28 Z m -8.640755,11.225926 a 21.021348,21.021348 0 0 0 2.565926,-6.414815 h 5.406085 a 17.600648,17.600648 0 0 1 -3.367778,6.414815 z m -22.597789,0 A 17.600648,17.600648 0 0 1 9.0899741,47.091111 h 5.4060849 a 21.021348,21.021348 0 0 0 2.565926,6.414815 z M 8.4148148,42.28 a 17.694465,17.694465 0 0 1 0.2974871,-3.207407 h 5.4870721 a 22.31233,22.31233 0 0 0 0,6.414814 H 8.7123019 A 17.694465,17.694465 0 0 1 8.4148148,42.28 Z M 17.05557,31.054074 a 21.021348,21.021348 0 0 0 -2.561916,6.414815 H 9.0875685 A 17.600648,17.600648 0 0 1 12.455346,31.054074 Z M 36.54057,42.28 a 20.816074,20.816074 0 0 1 -0.25579,3.207407 h -5.051667 a 40.791807,40.791807 0 0 0 0,-6.414814 H 36.28478 A 20.816074,20.816074 0 0 1 36.539769,42.28 Z M 24.507981,55.10963 h 3.095149 a 39.094287,39.094287 0 0 1 -1.547574,3.808796 39.094287,39.094287 0 0 1 -1.547575,-3.808796 z m -0.510779,-1.603704 a 39.13037,39.13037 0 0 1 -1.351121,-6.414815 h 6.815741 a 39.13037,39.13037 0 0 1 -1.35112,6.414815 z m -1.512293,-8.018519 a 39.120748,39.120748 0 0 1 0,-6.414814 h 7.141293 a 39.120748,39.120748 0 0 1 0,6.414814 z M 15.571343,42.28 a 20.816074,20.816074 0 0 1 0.25579,-3.207407 H 20.8788 a 40.791807,40.791807 0 0 0 0,6.414814 H 15.827133 A 20.816074,20.816074 0 0 1 15.571343,42.28 Z M 27.60313,29.45037 h -3.095149 a 39.094287,39.094287 0 0 1 1.547575,-3.808796 39.094287,39.094287 0 0 1 1.547574,3.808796 z m 0.510779,1.603704 a 39.13037,39.13037 0 0 1 1.351121,6.414815 h -6.815741 a 39.13037,39.13037 0 0 1 1.35112,-6.414815 z m 2.976474,6.414815 a 40.687567,40.687567 0 0 0 -1.308622,-6.414815 h 3.35575 a 19.364722,19.364722 0 0 1 2.828933,6.414815 z m -1.80577,-8.018519 c -0.400926,-1.202777 -0.846756,-2.395933 -1.363148,-3.567439 a 19.795317,19.795317 0 0 1 3.987609,3.567439 z m -6.458115,0 h -2.624461 a 19.800128,19.800128 0 0 1 3.985204,-3.567439 c -0.513987,1.171506 -0.959817,2.364662 -1.360743,3.567439 z m -0.497148,1.603704 a 40.687567,40.687567 0 0 0 -1.308622,6.414815 H 16.144667 A 19.348685,19.348685 0 0 1 18.9736,31.054074 Z m -6.184683,16.037037 h 4.876061 a 40.687567,40.687567 0 0 0 1.308622,6.414815 H 18.9736 a 19.364722,19.364722 0 0 1 -2.828933,-6.414815 z m 6.681831,8.018519 c 0.400926,1.202777 0.846756,2.395933 1.363148,3.567439 A 19.795317,19.795317 0 0 1 20.202037,55.10963 Z m 6.458115,0 h 2.624461 a 19.800128,19.800128 0 0 1 -3.985204,3.567439 c 0.513987,-1.171506 0.959817,-2.364662 1.360743,-3.567439 z m 0.497148,-1.603704 a 40.687567,40.687567 0 0 0 1.308622,-6.414815 h 4.876061 a 19.348685,19.348685 0 0 1 -2.828933,6.414815 z m 7.835696,-16.037037 a 21.021348,21.021348 0 0 0 -2.561916,-6.414815 h 4.597818 a 17.600648,17.600648 0 0 1 3.367778,6.414815 z M 33.961013,29.45037 a 21.229028,21.229028 0 0 0 -4.55933,-4.49037 17.603856,17.603856 0 0 1 8.740186,4.49037 z m -9.509161,-6.414814 v -1.603704 a 1.6037037,1.6037037 0 0 1 3.207407,0 v 1.603704 z M 22.708626,24.96 a 21.225019,21.225019 0 0 0 -4.558528,4.49037 H 13.966837 A 17.604657,17.604657 0 0 1 22.708626,24.96 Z M 18.150098,55.10963 A 21.229028,21.229028 0 0 0 22.709428,59.6 17.603856,17.603856 0 0 1 13.969243,55.10963 Z M 29.402485,59.6 a 21.225019,21.225019 0 0 0 4.558528,-4.49037 h 4.183261 A 17.604657,17.604657 0 0 1 29.402485,59.6 Z"
       id="path2"
       style="fill:#cc78f7;fill-opacity:1;stroke-width:0.80185187"
       inkscape:connector-curvature="0" />
    <path
       d="m 37.682407,23.837407 c 1.107126,0 2.00463,-0.897503 2.00463,-2.004629 v -5.409293 l 4.009259,-1.145044 v 2.946003 H 43.29537 c -1.786058,0 -2.680196,2.159264 -1.417415,3.422045 C 43.140736,22.90927 45.3,22.015132 45.3,20.229074 v -6.013889 c -2.37e-4,-0.532682 -0.510217,-0.917066 -1.022361,-0.770579 l -5.612963,1.603703 c -0.343998,0.09839 -0.581184,0.412787 -0.581343,0.77058 v 4.009259 h -0.400926 c -2.671994,8.44e-4 -2.671994,4.010103 0,4.009259 z"
       id="path4"
       inkscape:connector-curvature="0"
       style="fill:#451c5a;fill-opacity:1;stroke-width:0.80185187"
       sodipodi:nodetypes="cscccsssccccccc" />
    <path
       d="M 10.018519,23.837407 H 9.6175926 c -1.7860584,0 -2.6801963,2.159263 -1.4174156,3.422045 1.2627807,1.262781 3.422045,0.368643 3.422045,-1.417415 v -6.013889 c -2.37e-4,-0.532682 -0.510217,-0.917066 -1.022361,-0.770579 l -5.6129629,1.603703 c -0.343998,0.09839 -0.5811837,0.412787 -0.5813425,0.77058 v 4.009259 h -0.400926 c -1.7860583,0 -2.680196,2.159264 -1.4174152,3.422045 1.2627808,1.262781 3.4220445,0.368643 3.4220449,-1.417415 v -5.409293 l 4.0092597,-1.145044 z"
       id="path6"
       inkscape:connector-curvature="0"
       style="stroke-width:0.80185187;fill:#cc78f7;fill-opacity:1"
       sodipodi:nodetypes="cssscccccsssccc" />
    <rect
       x="25.253704"
       y="13.413333"
       width="1.6037037"
       height="4.811111"
       id="rect24"
       style="stroke-width:0.80185187;fill:#451c5a;fill-opacity:1" />
    <path
       inkscape:connector-curvature="0"
       style="fill:#451c5a;fill-opacity:1;stroke-width:0.80185187"
       id="path3150"
       d="m 43.696296,42.28 c -0.0014,1.075957 -0.101014,2.14954 -0.297487,3.207407 h -5.487072 c 0.308982,-2.127109 0.308982,-4.287705 0,-6.414814 h 5.487072 c 0.196473,1.057867 0.296048,2.13145 0.297487,3.207407 z m -35.281481,0 c 0.0014,-1.075957 0.101014,-2.14954 0.297487,-3.207407 h 5.487072 c -0.308982,2.127109 -0.308982,4.287705 0,6.414814 H 8.712302 C 8.515829,44.42954 8.416254,43.355957 8.414815,42.28 Z m 16.093166,12.82963 h 3.095149 c -0.448699,1.295863 -0.965271,2.567219 -1.547574,3.808796 -0.582304,-1.241577 -1.098876,-2.512933 -1.547575,-3.808796 z m -2.023072,-9.622223 c -0.175607,-2.134666 -0.175607,-4.280148 0,-6.414814 h 7.141293 c 0.175607,2.134666 0.175607,4.280148 0,6.414814 z M 27.60313,29.45037 h -3.095149 c 0.448699,-1.295863 0.965271,-2.567219 1.547575,-3.808796 0.582303,1.241577 1.098875,2.512933 1.547574,3.808796 z m 6.357883,0 c -1.284154,-1.718569 -2.821391,-3.232555 -4.55933,-4.49037 3.28055,0.636861 6.312057,2.194332 8.740186,4.49037 z m -9.509161,-6.414814 v -1.603704 c 0.0011,-2.137202 3.208474,-2.137202 3.207407,0 v 1.603704 z M 22.708626,24.96 c -1.737694,1.25783 -3.274665,2.77182 -4.558528,4.49037 H 13.966837 C 16.395433,27.1541 19.427521,25.596616 22.708626,24.96 Z m -4.558528,30.14963 c 1.284154,1.718569 2.821391,3.232555 4.55933,4.49037 -3.280549,-0.636861 -6.312057,-2.194332 -8.740185,-4.49037 z M 29.402485,59.6 c 1.737694,-1.25783 3.274665,-2.77182 4.558528,-4.49037 h 4.183261 C 35.715678,57.4059 32.68359,58.963384 29.402485,59.6 Z"
       sodipodi:nodetypes="cccccccccccccccccccccccccccccccccccccccccccccc" />
    <path
       d="m 43.696296,42.28 c -0.0014,1.075957 -0.101014,2.14954 -0.297487,3.207407 h -5.487072 c 0.308982,-2.127109 0.308982,-4.287705 0,-6.414814 h 5.487072 c 0.196473,1.057867 0.296048,2.13145 0.297487,3.207407 z m -35.281481,0 c 0.0014,-1.075957 0.101014,-2.14954 0.297487,-3.207407 h 5.487072 c -0.308982,2.127109 -0.308982,4.287705 0,6.414814 H 8.712302 C 8.515829,44.42954 8.416254,43.355957 8.414815,42.28 Z m 16.093166,12.829626 h 3.095149 c -0.448699,1.29586 -0.965271,2.56722 -1.547574,3.8088 -0.582304,-1.24158 -1.098876,-2.51294 -1.547575,-3.8088 z m -2.023072,-9.622219 c -0.175607,-2.134666 -0.175607,-4.280148 0,-6.414814 h 7.141293 c 0.175607,2.134666 0.175607,4.280148 0,6.414814 z m 8.605474,-8.018518 c -0.263188,-2.169952 -0.700812,-4.315166 -1.308622,-6.414815 h 3.35575 c 1.325423,1.948339 2.284109,4.122232 2.828933,6.414815 z M 22.32935,31.054074 c -0.60781,2.099649 -1.045434,4.244863 -1.308622,6.414815 h -4.876061 c 0.544482,-2.292698 1.503195,-4.466651 2.828933,-6.414815 z m -6.184683,16.037037 h 4.876061 c 0.263188,2.169952 0.700812,4.315166 1.308622,6.414815 H 18.9736 c -1.325423,-1.948339 -2.284109,-4.122232 -2.828933,-6.414815 z m 13.637094,6.414815 c 0.60781,-2.099649 1.045434,-4.244863 1.308622,-6.414815 h 4.876061 c -0.544482,2.292698 -1.503195,4.466651 -2.828933,6.414815 z m -11.631663,1.6037 c 1.284154,1.71857 2.821391,3.23256 4.55933,4.49037 -3.280549,-0.63686 -6.312057,-2.19433 -8.740185,-4.49037 z m 11.252387,4.49037 c 1.737694,-1.25783 3.274665,-2.77182 4.558528,-4.49037 h 4.183261 c -2.428596,2.29627 -5.460684,3.85375 -8.741789,4.49037 z"
       id="path3152"
       style="fill:#451c5a;fill-opacity:1;stroke-width:0.80185187"
       inkscape:connector-curvature="0"
       sodipodi:nodetypes="ccccccccccccccccccccccccccccccccccccccccccccccccc" />
  </g>
</svg>
