<?xml version="1.0" encoding="UTF-8" standalone="no"?>
<svg
   xmlns:dc="http://purl.org/dc/elements/1.1/"
   xmlns:cc="http://creativecommons.org/ns#"
   xmlns:rdf="http://www.w3.org/1999/02/22-rdf-syntax-ns#"
   xmlns:svg="http://www.w3.org/2000/svg"
   xmlns="http://www.w3.org/2000/svg"
   xmlns:sodipodi="http://sodipodi.sourceforge.net/DTD/sodipodi-0.dtd"
   xmlns:inkscape="http://www.inkscape.org/namespaces/inkscape"
   version="1.1"
   x="0px"
   y="0px"
   viewBox="0 0 59.903976 60.099998"
   xml:space="preserve"
   id="svg16"
   sodipodi:docname="feedback-icon.svg"
   width="59.903976"
   height="60.099998"
   inkscape:version="0.92.2 5c3e80d, 2017-08-06"><metadata
     id="metadata22"><rdf:RDF><cc:Work
         rdf:about=""><dc:format>image/svg+xml</dc:format><dc:type
           rdf:resource="http://purl.org/dc/dcmitype/StillImage" /><dc:title></dc:title></cc:Work></rdf:RDF></metadata><defs
     id="defs20" /><sodipodi:namedview
     pagecolor="#ffffff"
     bordercolor="#666666"
     borderopacity="1"
     objecttolerance="10"
     gridtolerance="10"
     guidetolerance="10"
     inkscape:pageopacity="0"
     inkscape:pageshadow="2"
     inkscape:window-width="1685"
     inkscape:window-height="999"
     id="namedview18"
     showgrid="false"
     fit-margin-top="0"
     fit-margin-left="0"
     fit-margin-right="0"
     fit-margin-bottom="0"
     inkscape:zoom="6.9473241"
     inkscape:cx="45.953019"
     inkscape:cy="26.310135"
     inkscape:window-x="-4"
     inkscape:window-y="2"
     inkscape:window-maximized="0"
     inkscape:current-layer="svg16" /><path
     d="M 56,6 H 36 V 4 C 36,1.8 34.2,0 32,0 H 4 C 1.8,0 0,1.8 0,4 v 22 c 0,11 10.5,11 14,11 0.6,0 1,-0.4 1,-1 0,-0.6 -0.4,-1 -1,-1 -2.2,0 -4,-1.8 -4,-4 0,-0.1 0,-0.3 0,-0.4 0.3,-2.1 2.1,-3.6 4.2,-3.6 H 28 v 2 h -9 c -0.6,0 -1,0.4 -1,1 0,2.3 0.9,4.5 2.4,6.1 -0.3,1 -0.4,1.9 -0.4,2.9 0,4 2.4,7.6 6,9.2 0,0.6 -0.3,1.8 -3,1.8 -2.8,0 -5,2.2 -5,5 v 5 h 2 v -5 c 0,-1.6 1.2,-2.9 2.8,-3 l 4.9,2.4 c 0.4,0.2 0.9,0.4 1.3,0.5 V 60 h 2 v -5.1 c 0.5,-0.1 0.9,-0.2 1.3,-0.4 l 4.9,-2.4 c 1.6,0.1 2.8,1.4 2.8,3 v 5 h 2 v -5 c 0,-2.8 -2.2,-5 -5,-5 -2.7,0 -3,-1.2 -3,-1.8 3.8,-1.6 6.1,-5.4 6,-9.5 0,-0.2 0,-0.6 0,-0.7 0,-1.4 -0.3,-2.8 -1,-4 h 6.7 c 2.1,0 3.9,1.5 4.2,3.6 0.2,2.2 -1.4,4.2 -3.6,4.4 -0.1,0 -0.3,0 -0.4,0 -0.6,0 -1,0.4 -1,1 0,0.6 0.4,1 1,1 3.5,0 14,0 14,-11 V 10 C 60,7.8 58.2,6 56,6 Z M 8,30.4 c -0.1,1.5 0.3,3 1.2,4.2 C 4.3,33.6 2,30.9 2,26 V 4 C 2,2.9 2.9,2 4,2 h 28 c 1.1,0 2,0.9 2,2 v 19 c 0,1.1 -0.9,2 -2,2 H 14.2 C 11.1,25 8.4,27.3 8,30.4 Z M 31,31 c 3.5,0 6.4,2.6 6.9,6 H 27 c -3.5,0 -6.4,-2.6 -6.9,-6 z m 1.7,15.5 C 32.3,46.6 32,47 32,47.4 V 48 c -0.1,1.4 0.7,2.8 2,3.4 l -2.6,1.3 c -0.9,0.4 -2,0.4 -2.9,0 L 26,51.4 c 1.3,-0.6 2.1,-2 2,-3.4 V 47.5 C 28,47.1 27.7,46.7 27.3,46.6 24.1,45.4 22,42.4 22,39 c 0,-0.5 0,-1 0.1,-1.4 1.4,0.9 3.1,1.4 4.9,1.4 h 11 c 0,3.4 -2.1,6.4 -5.3,7.5 z M 58,33 c 0,4.9 -2.3,7.6 -7.2,8.6 0.9,-1.2 1.3,-2.7 1.2,-4.2 C 51.6,34.3 49,32 45.8,32 H 37.7 C 36,30.1 33.6,29 31,29 h -1 v -2 h 2 c 2.2,0 4,-1.8 4,-4 V 8 h 20 c 1.1,0 2,0.9 2,2 z"
     id="path2"
     inkscape:connector-curvature="0" /><path
     d="m 23,11 h -1 c -0.6,0 -1,-0.4 -1,-1 V 7 C 21,5.3 19.7,4 18,4 16.3,4 15,5.3 15,7 v 3 c 0,0.6 -0.4,1 -1,1 0,-0.6 -0.4,-1 -1,-1 H 9 c -0.6,0 -1,0.4 -1,1 v 11 c 0,0.6 0.4,1 1,1 h 4 c 0.6,0 1,-0.4 1,-1 h 9 c 1.7,0 3,-1.3 3,-3 v -5 c 0,-1.7 -1.3,-3 -3,-3 z M 12,21 h -2 v -9 h 2 z m 12,-2 c 0,0.6 -0.4,1 -1,1 h -9 v -7 c 1.7,0 3,-1.3 3,-3 V 7 c 0,-0.6 0.4,-1 1,-1 0.6,0 1,0.4 1,1 v 3 c 0,1.7 1.3,3 3,3 h 1 c 0.6,0 1,0.4 1,1 z"
     id="path4"
     inkscape:connector-curvature="0" /><path
     d="m 55,10 h -4 c -0.6,0 -1,0.4 -1,1 h -9 c -1.7,0 -3,1.3 -3,3 v 5 c 0,1.7 1.3,3 3,3 h 1 c 0.6,0 1,0.4 1,1 v 3 c 0,1.7 1.3,3 3,3 1.7,0 3,-1.3 3,-3 v -3 c 0,-0.6 0.4,-1 1,-1 0,0.6 0.4,1 1,1 h 4 c 0.6,0 1,-0.4 1,-1 V 11 c 0,-0.6 -0.4,-1 -1,-1 z m -8,13 v 3 c 0,0.6 -0.4,1 -1,1 -0.6,0 -1,-0.4 -1,-1 v -3 c 0,-1.7 -1.3,-3 -3,-3 h -1 c -0.6,0 -1,-0.4 -1,-1 v -5 c 0,-0.6 0.4,-1 1,-1 h 9 v 7 c -1.7,0 -3,1.3 -3,3 z m 7,-2 h -2 v -9 h 2 z"
     id="path6"
     inkscape:connector-curvature="0" /><rect
     x="37"
     y="26"
     width="4"
     height="2"
     id="rect8" /><polygon
     points="27,7 26,7 26,9 27,9 27,10 29,10 29,9 30,9 30,7 29,7 29,6 27,6 "
     id="polygon10"
     transform="translate(-2,-2)" /></svg>