<?xml version="1.0" encoding="UTF-8" standalone="no"?>
<!-- Created with Inkscape (http://www.inkscape.org/) -->

<svg
   xmlns:dc="http://purl.org/dc/elements/1.1/"
   xmlns:cc="http://creativecommons.org/ns#"
   xmlns:rdf="http://www.w3.org/1999/02/22-rdf-syntax-ns#"
   xmlns:svg="http://www.w3.org/2000/svg"
   xmlns="http://www.w3.org/2000/svg"
   xmlns:sodipodi="http://sodipodi.sourceforge.net/DTD/sodipodi-0.dtd"
   xmlns:inkscape="http://www.inkscape.org/namespaces/inkscape"
   version="1.1"
   id="svg2"
   xml:space="preserve"
   width="392.8996"
   height="354.13718"
   viewBox="0 0 392.89959 354.13717"
   sodipodi:docname="logo_vertical_roxo.svg"
   inkscape:version="0.92.2 5c3e80d, 2017-08-06"><metadata
     id="metadata8"><rdf:RDF><cc:Work
         rdf:about=""><dc:format>image/svg+xml</dc:format><dc:type
           rdf:resource="http://purl.org/dc/dcmitype/StillImage" /><dc:title></dc:title></cc:Work></rdf:RDF></metadata><defs
     id="defs6"><clipPath
       clipPathUnits="userSpaceOnUse"
       id="clipPath18"><path
         d="M 0,400 H 400 V 0 H 0 Z"
         id="path16"
         inkscape:connector-curvature="0" /></clipPath><linearGradient
       x1="0"
       y1="0"
       x2="1"
       y2="0"
       gradientUnits="userSpaceOnUse"
       gradientTransform="matrix(169.28697,-97.737877,-97.737877,-169.28697,40.975925,306.50647)"
       spreadMethod="pad"
       id="linearGradient56"><stop
         style="stop-opacity:1;stop-color:#7a2e92"
         offset="0"
         id="stop48" /><stop
         style="stop-opacity:1;stop-color:#7a2e92"
         offset="0.781205"
         id="stop50" /><stop
         style="stop-opacity:1;stop-color:#7a2e92"
         offset="0.88345044"
         id="stop52" /><stop
         style="stop-opacity:1;stop-color:#100017"
         offset="1"
         id="stop54" /></linearGradient><clipPath
       clipPathUnits="userSpaceOnUse"
       id="clipPath66"><path
         d="M 0,400 H 400 V 0 H 0 Z"
         id="path64"
         inkscape:connector-curvature="0" /></clipPath></defs><sodipodi:namedview
     pagecolor="#ffffff"
     bordercolor="#666666"
     borderopacity="1"
     objecttolerance="10"
     gridtolerance="10"
     guidetolerance="10"
     inkscape:pageopacity="0"
     inkscape:pageshadow="2"
     inkscape:window-width="808"
     inkscape:window-height="480"
     id="namedview4"
     showgrid="false"
     inkscape:zoom="0.15644738"
     inkscape:cx="105.67262"
     inkscape:cy="69.796208"
     inkscape:window-x="0"
     inkscape:window-y="0"
     inkscape:window-maximized="0"
     inkscape:current-layer="g10"
     fit-margin-top="0"
     fit-margin-left="0"
     fit-margin-right="0"
     fit-margin-bottom="0" /><g
     id="g10"
     inkscape:groupmode="layer"
     inkscape:label="MS_LOGO_ROXO_mar2020"
     transform="matrix(1.3333333,0,0,-1.3333333,-70.079731,443.24399)"><g
       id="g12"><g
         id="g14"
         clip-path="url(#clipPath18)"><g
           id="g20"
           transform="translate(52.5598,240.1973)"><path
             d="m 0,0 c 0,-2.753 2.16,-5.016 4.909,-5.159 44.429,-2.326 66.716,-36.297 66.716,-74.413 v -0.053 c -0.003,-2.861 2.305,-5.187 5.166,-5.187 h 26.02 c 2.846,0 5.163,2.304 5.166,5.152 v 0.088 c 0,56.927 -37.766,102.22 -102.623,104.58 C 2.429,25.115 -0.001,22.772 0,19.845 Z"
             style="fill:#7a2e92;fill-opacity:1;fill-rule:nonzero;stroke:none"
             id="path22"
             inkscape:connector-curvature="0" /></g><g
           id="g24"
           transform="translate(52.5598,191.3818)"><path
             d="M 0,0 C -0.001,-2.531 1.838,-4.684 4.337,-5.091 16.78,-7.118 26.296,-17.733 26.296,-30.757 v -0.054 c -0.006,-2.859 2.297,-5.185 5.156,-5.185 h 14.202 c 2.841,0 5.152,2.297 5.158,5.138 v 0.101 c 0,26.076 -19.745,47.628 -45.068,50.49 C 2.683,20.079 0,17.69 0,14.61 Z"
             style="fill:#7a2e92;fill-opacity:1;fill-rule:nonzero;stroke:none"
             id="path26"
             inkscape:connector-curvature="0" /></g><g
           id="g28"
           transform="translate(277.2756,228.043)"><path
             d="m 0,0 c -17.314,-17.806 -27.356,-41.516 -28.592,-67.248 -0.141,-2.944 2.204,-5.409 5.152,-5.409 H 2.637 c 2.725,0 4.972,2.122 5.147,4.842 1.052,16.399 7.448,31.337 18.277,42.473 10.318,10.611 23.714,17.014 39.118,18.808 2.605,0.303 4.575,2.5 4.575,5.123 v 26.169 c 0,3.025 -2.592,5.407 -5.605,5.138 C 39.273,27.671 16.779,17.255 0,0"
             style="fill:#7a2e92;fill-opacity:1;fill-rule:nonzero;stroke:none"
             id="path30"
             inkscape:connector-curvature="0" /></g><g
           id="g32"
           transform="translate(308.2844,155.3857)"><path
             d="m 0,0 h 14.334 c 2.562,0 4.738,1.879 5.103,4.414 0.905,6.287 4.198,15.633 15.512,18.715 2.242,0.61 3.796,2.649 3.796,4.974 v 14.519 c 0,3.236 -2.945,5.67 -6.125,5.066 C 11.537,43.68 -3.017,27.703 -5.134,5.646 -5.424,2.618 -3.041,0 0,0"
             style="fill:#7a2e92;fill-opacity:1;fill-rule:nonzero;stroke:none"
             id="path34"
             inkscape:connector-curvature="0" /></g></g></g><g
       id="g36"><g
         id="g38"><g
           id="g44"><g
             id="g46"><path
               d="m 52.765,324.904 v -28.731 c 0,-4.039 3.188,-7.358 7.225,-7.522 v 0 c 67.554,-2.76 120.625,-44.515 123.453,-126.334 v 0 c 0.074,31.785 9.051,59.553 23.576,82.577 v 0 c -0.139,0.129 -0.266,0.277 -0.365,0.458 v 0 C 177.879,297.715 123.48,329.828 60.59,332.427 v 0 c -0.106,0.004 -0.211,0.006 -0.316,0.006 v 0 c -4.128,0 -7.509,-3.361 -7.509,-7.529"
               style="fill:url(#linearGradient56);stroke:none"
               id="path58"
               inkscape:connector-curvature="0" /></g></g></g></g><g
       id="g60"><g
         id="g62"
         clip-path="url(#clipPath66)"><g
           id="g68"
           transform="translate(339.3625,320.4683)"><path
             d="m 0,0 c 4.293,0 7.872,-3.229 7.872,-7.522 v -27.599 c 0,-4.03 -3.172,-7.35 -7.198,-7.522 -68.984,-2.959 -107.938,-48.689 -110.562,-114.962 -0.16,-4.041 -3.479,-7.237 -7.523,-7.237 H -148.4 c -4.052,0 -7.524,2.992 -7.524,7.258 C -155.924,-59.693 -71.073,0 0,0"
             style="fill:#7a2e92;fill-opacity:1;fill-rule:nonzero;stroke:none"
             id="path70"
             inkscape:connector-curvature="0" /></g><g
           id="g72"
           transform="translate(87.7951,91.8828)"><path
             d="m 0,0 c 0,4.105 -0.53,7.013 -1.589,8.724 -1.059,1.711 -2.878,2.566 -5.455,2.566 -0.802,0 -1.632,-0.043 -2.491,-0.129 -0.86,-0.086 -1.691,-0.185 -2.491,-0.3 v -34.724 h -12.753 v 43.487 c 1.085,0.285 2.355,0.586 3.813,0.899 1.457,0.315 3,0.599 4.629,0.857 1.628,0.256 3.3,0.456 5.014,0.599 1.714,0.142 3.399,0.214 5.056,0.214 3.257,0 5.9,-0.414 7.929,-1.242 2.027,-0.828 3.699,-1.812 5.015,-2.954 1.827,1.314 3.927,2.341 6.299,3.083 2.371,0.741 4.556,1.113 6.557,1.113 3.599,0 6.556,-0.5 8.871,-1.498 2.314,-1 4.157,-2.412 5.528,-4.238 1.371,-1.827 2.314,-3.995 2.829,-6.506 0.513,-2.511 0.771,-5.307 0.771,-8.389 V -23.863 H 24.779 V 0 c 0,4.105 -0.53,7.013 -1.589,8.724 -1.059,1.711 -2.878,2.566 -5.455,2.566 -0.687,0 -1.647,-0.171 -2.878,-0.514 -1.231,-0.342 -2.247,-0.77 -3.046,-1.285 0.399,-1.31 0.656,-2.694 0.77,-4.148 0.114,-1.453 0.172,-3.007 0.172,-4.66 V -23.863 H 0 Z"
             style="fill:#7a2e92;fill-opacity:1;fill-rule:nonzero;stroke:none"
             id="path74"
             inkscape:connector-curvature="0" /></g><g
           id="g76"
           transform="translate(192.3537,69.5313)"><path
             d="m 0,0 c -2.169,-0.628 -4.965,-1.213 -8.389,-1.755 -3.423,-0.543 -7.017,-0.814 -10.781,-0.814 -3.823,0 -7.005,0.515 -9.543,1.543 -2.539,1.028 -4.551,2.471 -6.033,4.329 -1.483,1.857 -2.539,4.072 -3.167,6.643 -0.627,2.573 -0.941,5.402 -0.941,8.489 v 25.119 h 12.752 V 19.988 c 0,-4.113 0.541,-7.085 1.625,-8.912 1.085,-1.828 3.11,-2.742 6.076,-2.742 0.913,0 1.882,0.042 2.91,0.128 1.026,0.085 1.938,0.184 2.737,0.3 V 43.554 H 0 Z"
             style="fill:#7a2e92;fill-opacity:1;fill-rule:nonzero;stroke:none"
             id="path78"
             inkscape:connector-curvature="0" /></g><g
           id="g80"
           transform="translate(234.4651,77.2041)"><path
             d="m 0,0 c 2.341,0 3.997,0.228 4.968,0.684 0.97,0.457 1.457,1.34 1.457,2.651 0,1.025 -0.627,1.923 -1.879,2.693 -1.251,0.769 -3.161,1.637 -5.728,2.605 -1.997,0.739 -3.808,1.506 -5.434,2.304 -1.627,0.795 -3.013,1.751 -4.16,2.865 -1.149,1.113 -2.037,2.442 -2.668,3.984 -0.631,1.543 -0.946,3.401 -0.946,5.571 0,4.228 1.571,7.57 4.712,10.027 3.142,2.458 7.454,3.686 12.939,3.686 2.741,0 5.369,-0.243 7.882,-0.728 2.513,-0.486 4.512,-1.014 5.999,-1.585 l -2.227,-9.964 c -1.483,0.513 -3.095,0.97 -4.835,1.369 -1.739,0.4 -3.692,0.6 -5.86,0.6 -3.993,0 -5.99,-1.113 -5.99,-3.335 0,-0.513 0.085,-0.97 0.257,-1.368 0.17,-0.399 0.512,-0.784 1.024,-1.155 0.512,-0.37 1.21,-0.766 2.094,-1.188 0.884,-0.422 2.012,-0.887 3.381,-1.393 2.796,-1.013 5.107,-2.011 6.933,-2.997 1.825,-0.985 3.267,-2.064 4.323,-3.239 1.057,-1.174 1.799,-2.477 2.227,-3.907 0.427,-1.433 0.642,-3.093 0.642,-4.982 0,-4.467 -1.672,-7.845 -5.012,-10.135 -3.341,-2.291 -8.068,-3.437 -14.18,-3.437 -3.999,0 -7.326,0.343 -9.982,1.027 -2.656,0.686 -4.498,1.257 -5.526,1.713 l 2.141,10.374 c 2.17,-0.856 4.397,-1.526 6.68,-2.011 C -4.483,0.243 -2.228,0 0,0"
             style="fill:#7a2e92;fill-opacity:1;fill-rule:nonzero;stroke:none"
             id="path82"
             inkscape:connector-curvature="0" /></g><path
           d="m 292.942,68.02 h -12.753 v 45.065 h 12.753 z m 1.199,58.082 c 0,-2.339 -0.757,-4.18 -2.269,-5.522 -1.512,-1.341 -3.296,-2.011 -5.349,-2.011 -2.055,0 -3.839,0.67 -5.35,2.011 -1.513,1.342 -2.268,3.183 -2.268,5.522 0,2.339 0.755,4.179 2.268,5.521 1.511,1.341 3.295,2.012 5.35,2.012 2.053,0 3.837,-0.671 5.349,-2.012 1.512,-1.342 2.269,-3.182 2.269,-5.521"
           style="fill:#7a2e92;fill-opacity:1;fill-rule:nonzero;stroke:none"
           id="path84"
           inkscape:connector-curvature="0" /><path
           d="m 334.817,68.02 h -12.753 v 45.065 h 12.753 z m 1.199,58.082 c 0,-2.339 -0.757,-4.18 -2.269,-5.522 -1.512,-1.341 -3.296,-2.011 -5.349,-2.011 -2.054,0 -3.838,0.67 -5.35,2.011 -1.513,1.342 -2.268,3.183 -2.268,5.522 0,2.339 0.755,4.179 2.268,5.521 1.512,1.341 3.296,2.012 5.35,2.012 2.053,0 3.837,-0.671 5.349,-2.012 1.512,-1.342 2.269,-3.182 2.269,-5.521"
           style="fill:#7a2e92;fill-opacity:1;fill-rule:nonzero;stroke:none"
           id="path86"
           inkscape:connector-curvature="0" /></g></g></g></svg>