<?xml version="1.0" encoding="UTF-8" standalone="no"?>
<svg
   xmlns:dc="http://purl.org/dc/elements/1.1/"
   xmlns:cc="http://creativecommons.org/ns#"
   xmlns:rdf="http://www.w3.org/1999/02/22-rdf-syntax-ns#"
   xmlns:svg="http://www.w3.org/2000/svg"
   xmlns="http://www.w3.org/2000/svg"
   xmlns:sodipodi="http://sodipodi.sourceforge.net/DTD/sodipodi-0.dtd"
   xmlns:inkscape="http://www.inkscape.org/namespaces/inkscape"
   version="1.1"
   x="0px"
   y="0px"
   viewBox="0 0 48.25 48.271553"
   enable-background="new 0 0 50 50"
   xml:space="preserve"
   id="svg12"
   sodipodi:docname="music-icon.svg"
   width="48.25"
   height="48.271553"
   inkscape:version="0.92.2 5c3e80d, 2017-08-06"><metadata
     id="metadata18"><rdf:RDF><cc:Work
         rdf:about=""><dc:format>image/svg+xml</dc:format><dc:type
           rdf:resource="http://purl.org/dc/dcmitype/StillImage" /><dc:title></dc:title></cc:Work></rdf:RDF></metadata><defs
     id="defs16" /><sodipodi:namedview
     pagecolor="#ffffff"
     bordercolor="#666666"
     borderopacity="1"
     objecttolerance="10"
     gridtolerance="10"
     guidetolerance="10"
     inkscape:pageopacity="0"
     inkscape:pageshadow="2"
     inkscape:window-width="1687"
     inkscape:window-height="1001"
     id="namedview14"
     showgrid="false"
     fit-margin-top="0"
     fit-margin-left="0"
     fit-margin-right="0"
     fit-margin-bottom="0"
     inkscape:zoom="5.3400704"
     inkscape:cx="-46.936948"
     inkscape:cy="-21.170319"
     inkscape:window-x="0"
     inkscape:window-y="0"
     inkscape:window-maximized="0"
     inkscape:current-layer="svg12" /><g
     id="g6"
     transform="translate(-0.875,-0.86344517)"
     style="fill:#ca6af1;fill-opacity:1;stroke:#ca6af1;stroke-width:0.25;stroke-miterlimit:4;stroke-dasharray:none;stroke-opacity:1"><path
       d="M 16.622,2.37 C 14.241,1.294 9.659,0.807 8.836,1.052 L 3.188,2.719 C 1.94,3.087 1,4.317 1,5.58 v 5.505 c 0,1.263 0.94,2.493 2.188,2.861 6.279,1.853 5.437,2.014 9.153,1.477 1.512,-0.228 2.864,0.954 2.864,2.433 v 3.8 c 0,1.522 1.02,2.797 2.407,3.216 V 48.01 c 0,0.552 0.447,1 1,1 0.553,0 1,-0.448 1,-1 V 24.851 c 1.354,-0.439 2.343,-1.698 2.343,-3.196 v -10.3 C 21.956,7.64 19.938,4.211 16.622,2.37 Z M 3,11.085 V 5.58 C 3,5.24 3.31,4.768 3.755,4.637 L 8.116,3.35 v 9.965 L 3.755,12.028 C 3.31,11.896 3,11.425 3,11.085 Z m 16.956,10.57 c 0,0.758 -0.617,1.375 -1.375,1.375 -0.758,0 -1.375,-0.617 -1.375,-1.375 v -3.8 c 0,-2.459 -2.014,-4.46 -4.489,-4.46 -0.218,0 -0.438,0.016 -0.662,0.048 -0.631,0.092 -1.279,0.152 -1.936,0.184 V 3.035 c 3.406,0.165 5.593,1.12 5.602,1.12 2.612,1.452 4.235,4.211 4.235,7.201 z"
       id="path2"
       inkscape:connector-curvature="0"
       style="fill:#ca6af1;fill-opacity:1;stroke:#ca6af1;stroke-width:0.25;stroke-miterlimit:4;stroke-dasharray:none;stroke-opacity:1" /><path
       d="M 46.811,2.719 C 46.475,2.62 41.409,1.111 41.064,1.047 41.003,1.035 40.947,1.01 40.883,1.01 c -4.478,0 -7.384,1.305 -7.576,1.396 -3.247,1.805 -5.264,5.234 -5.264,8.949 v 10.3 c 0,1.499 0.988,2.757 2.343,3.196 V 48.01 c 0,0.552 0.447,1 1,1 0.553,0 1,-0.448 1,-1 V 24.872 c 1.388,-0.419 2.407,-1.694 2.407,-3.217 v -3.8 c 0,-1.479 1.346,-2.66 2.865,-2.433 3.953,0.572 3.297,0.252 9.152,-1.477 C 48.059,13.577 49,12.347 49,11.085 V 5.58 C 49,4.317 48.059,3.087 46.811,2.719 Z M 32.793,17.855 v 3.8 c 0,0.758 -0.617,1.375 -1.375,1.375 -0.758,0 -1.375,-0.617 -1.375,-1.375 v -10.3 c 0,-2.989 1.623,-5.749 4.163,-7.165 0.024,-0.011 2.229,-0.988 5.674,-1.156 v 10.592 c -0.656,-0.031 -1.304,-0.093 -1.935,-0.184 -2.769,-0.4 -5.152,1.737 -5.152,4.413 z M 47,11.085 c 0,0.34 -0.311,0.811 -0.756,0.943 l -4.361,1.287 V 3.35 l 4.361,1.287 C 46.689,4.768 47,5.239 47,5.58 Z"
       id="path4"
       inkscape:connector-curvature="0"
       style="fill:#ca6af1;fill-opacity:1;stroke:#ca6af1;stroke-width:0.25;stroke-miterlimit:4;stroke-dasharray:none;stroke-opacity:1" /></g></svg>