<?xml version="1.0" encoding="UTF-8" standalone="no"?>
<svg
   xmlns:dc="http://purl.org/dc/elements/1.1/"
   xmlns:cc="http://creativecommons.org/ns#"
   xmlns:rdf="http://www.w3.org/1999/02/22-rdf-syntax-ns#"
   xmlns:svg="http://www.w3.org/2000/svg"
   xmlns="http://www.w3.org/2000/svg"
   xmlns:sodipodi="http://sodipodi.sourceforge.net/DTD/sodipodi-0.dtd"
   xmlns:inkscape="http://www.inkscape.org/namespaces/inkscape"
   version="1.1"
   x="0px"
   y="0px"
   viewBox="0 0 41.977001 9.9989996"
   enable-background="new 0 0 64 64"
   xml:space="preserve"
   id="svg18"
   sodipodi:docname="other-icon.svg"
   width="41.977001"
   height="9.9989996"
   inkscape:version="0.92.2 5c3e80d, 2017-08-06"><metadata
     id="metadata24"><rdf:RDF><cc:Work
         rdf:about=""><dc:format>image/svg+xml</dc:format><dc:type
           rdf:resource="http://purl.org/dc/dcmitype/StillImage" /><dc:title></dc:title></cc:Work></rdf:RDF></metadata><defs
     id="defs22" /><sodipodi:namedview
     pagecolor="#ffffff"
     bordercolor="#666666"
     borderopacity="1"
     objecttolerance="10"
     gridtolerance="10"
     guidetolerance="10"
     inkscape:pageopacity="0"
     inkscape:pageshadow="2"
     inkscape:window-width="808"
     inkscape:window-height="480"
     id="namedview20"
     showgrid="false"
     fit-margin-top="0"
     fit-margin-left="0"
     fit-margin-right="0"
     fit-margin-bottom="0"
     inkscape:zoom="2.95"
     inkscape:cx="20.989"
     inkscape:cy="-3"
     inkscape:window-x="0"
     inkscape:window-y="0"
     inkscape:window-maximized="0"
     inkscape:current-layer="svg18" /><g
     id="g4"
     transform="translate(-11.011,-27.001)"><path
       d="m 47.988,37 c -2.756,0 -4.998,-2.243 -4.998,-5 0,-2.756 2.242,-4.999 4.998,-4.999 2.757,0 5,2.243 5,4.999 0,2.756 -2.243,5 -5,5 z m 0,-8 c -1.654,0 -2.998,1.346 -2.998,3 0,1.654 1.345,3 2.998,3 1.654,0 3,-1.346 3,-3 0,-1.654 -1.346,-3 -3,-3 z"
       id="path2"
       inkscape:connector-curvature="0" /></g><g
     id="g8"
     transform="translate(-11.011,-27.001)"><path
       d="m 31.998,37 c -2.757,0 -5,-2.243 -5,-5 0,-2.756 2.243,-4.999 5,-4.999 2.757,0 5,2.243 5,4.999 0,2.756 -2.244,5 -5,5 z m 0,-8 c -1.654,0 -3,1.345 -3,2.999 0,1.654 1.346,3 3,3 1.654,0 3,-1.346 3,-3 0,-1.653 -1.346,-2.999 -3,-2.999 z"
       id="path6"
       inkscape:connector-curvature="0" /></g><g
     id="g12"
     transform="translate(-11.011,-27.001)"><path
       d="m 16.007,37 c -2.755,0 -4.996,-2.243 -4.996,-5 0,-2.756 2.241,-4.999 4.996,-4.999 2.757,0 5,2.243 5,4.999 0,2.756 -2.243,5 -5,5 z m 0,-8 c -1.652,0 -2.996,1.345 -2.996,2.999 0,1.654 1.344,3 2.996,3 1.654,0 3,-1.346 3,-3 0,-1.653 -1.345,-2.999 -3,-2.999 z"
       id="path10"
       inkscape:connector-curvature="0" /></g></svg>