<?xml version="1.0" encoding="UTF-8" standalone="no"?>
<svg
   xmlns:dc="http://purl.org/dc/elements/1.1/"
   xmlns:cc="http://creativecommons.org/ns#"
   xmlns:rdf="http://www.w3.org/1999/02/22-rdf-syntax-ns#"
   xmlns:svg="http://www.w3.org/2000/svg"
   xmlns="http://www.w3.org/2000/svg"
   xmlns:sodipodi="http://sodipodi.sourceforge.net/DTD/sodipodi-0.dtd"
   xmlns:inkscape="http://www.inkscape.org/namespaces/inkscape"
   version="1.1"
   x="0px"
   y="0px"
   viewBox="0 0 63.293316 47.597252"
   enable-background="new 0 0 50 50"
   xml:space="preserve"
   id="svg12"
   sodipodi:docname="people-icon.svg"
   width="63.293316"
   height="47.597252"
   inkscape:version="0.92.2 5c3e80d, 2017-08-06"><metadata
     id="metadata18"><rdf:RDF><cc:Work
         rdf:about=""><dc:format>image/svg+xml</dc:format><dc:type
           rdf:resource="http://purl.org/dc/dcmitype/StillImage" /><dc:title></dc:title></cc:Work></rdf:RDF></metadata><defs
     id="defs16" /><sodipodi:namedview
     pagecolor="#ffffff"
     bordercolor="#666666"
     borderopacity="1"
     objecttolerance="10"
     gridtolerance="10"
     guidetolerance="10"
     inkscape:pageopacity="0"
     inkscape:pageshadow="2"
     inkscape:window-width="1687"
     inkscape:window-height="1001"
     id="namedview14"
     showgrid="false"
     fit-margin-top="0"
     fit-margin-left="0"
     fit-margin-right="0"
     fit-margin-bottom="0"
     inkscape:zoom="5.3400704"
     inkscape:cx="-40.878158"
     inkscape:cy="90.330387"
     inkscape:window-x="0"
     inkscape:window-y="0"
     inkscape:window-maximized="0"
     inkscape:current-layer="svg12" /><g
     transform="matrix(1.027384,0,0,1.027384,-2.0462521,-17.741631)"
     id="g32"
     style="fill:#ca6af1;fill-opacity:1;stroke:#ca6af1;stroke-width:0.19466919;stroke-miterlimit:4;stroke-dasharray:none;stroke-opacity:1"><path
       inkscape:connector-curvature="0"
       id="path2-7"
       d="m 43.055843,28.2036 c 0,2.7861 2.266602,5.052702 5.051804,5.052702 2.786099,0 5.052696,-2.266602 5.052696,-5.052702 0,-2.785601 -2.266597,-5.0522 -5.052696,-5.0522 -2.785202,0 -5.051804,2.266599 -5.051804,5.0522 z m 5.051804,-3.0522 c 1.683597,0 3.052696,1.3691 3.052696,3.0522 0,1.6831 -1.369099,3.0527 -3.052696,3.0527 -1.682602,0 -3.051804,-1.3696 -3.051804,-3.0527 0,-1.6831 1.369202,-3.0522 3.051804,-3.0522 z"
       style="fill:#ca6af1;fill-opacity:1;stroke:#ca6af1;stroke-width:0.19466919;stroke-miterlimit:4;stroke-dasharray:none;stroke-opacity:1" /><path
       inkscape:connector-curvature="0"
       id="path4-9"
       d="m 13.195546,25.0156 c 0,2.7857 2.26662,5.0523 5.052699,5.0523 2.7852,0 5.0518,-2.2666 5.0518,-5.0523 0,-2.7856 -2.2666,-5.0522 -5.0518,-5.0522 -2.786079,0 -5.052699,2.2666 -5.052699,5.0522 z m 5.052699,-3.0522 c 1.6826,0 3.0518,1.3691 3.0518,3.0522 0,1.6831 -1.3692,3.0523 -3.0518,3.0523 -1.683599,0 -3.052699,-1.3692 -3.052699,-3.0523 0,-1.6831 1.3691,-3.0522 3.052699,-3.0522 z"
       style="fill:#ca6af1;fill-opacity:1;stroke:#ca6af1;stroke-width:0.19466919;stroke-miterlimit:4;stroke-dasharray:none;stroke-opacity:1" /><path
       inkscape:connector-curvature="0"
       id="path6"
       d="m 62.445545,24.377399 c -0.271499,-1.436498 -1.522499,-2.479 -2.9766,-2.479 -0.191399,0 -0.368199,0.0176 -0.5439,0.0523 -1.630878,0.317798 -2.731499,1.940899 -2.453201,3.618099 l 0.8321,5.0401 c 0.1357,0.8242 -0.273499,1.6313 -1.018601,2.008299 -1.102699,0.473801 -2.448177,1.580402 -4.735298,1.5825 l -6.638699,0.0039 c -3.668003,0 -7.281299,-0.975601 -10.45018,-2.821802 -1.680622,-0.9788 -3.835121,-0.2682 -4.61132,1.506899 -0.6768,1.5522 -0.0332,3.3852 1.4638,4.172802 0.6656,0.268299 4.940398,3.193699 11.605799,3.2607 l -2.8382,8.8853 c -0.0977,0.304199 -0.0439,0.6362 0.144501,0.894001 0.188499,0.2579 0.4883,0.410198 0.807697,0.410198 h 2.526303 v 9.951702 c 0,1.674297 1.3623,3.036598 3.036197,3.036598 1.673802,0 3.036103,-1.362301 3.036103,-3.036598 V 50.5117 h 0.44012 c 3.002179,14.681003 1.966679,9.6175 2.190678,10.712902 0.334,1.339798 1.532322,2.275398 2.913101,2.275398 0.9278,0 1.788102,-0.418499 2.362301,-1.147999 0.5723,-0.729 0.775399,-1.664001 0.5635,-2.536602 C 58.082443,59.715 56.189446,49.8824 56.310543,50.5117 h 1.658402 c 0.319301,0 0.619098,-0.152298 0.807602,-0.410199 C 58.965046,49.8437 59.018746,49.5112 58.921044,49.2075 l -3.019398,-9.45 2.473518,-1.124199 c 3.691483,-1.6787 5.73338,-5.632302 4.964882,-9.614302 z M 47.632046,60.463402 c 0,0.571697 -0.464878,1.036598 -1.036103,1.036598 -0.571296,0 -1.036197,-0.464901 -1.036197,-1.036598 v -9.949703 h 2.0723 z m 8.333,0.652797 C 55.773643,61.360298 55.485546,61.5 55.175945,61.5 c -0.460899,0 -0.861301,-0.3125 -0.966778,-0.732899 -0.21622,-1.048401 0.783177,3.797902 -2.114223,-10.253402 h 2.205101 c 0.272301,2.652 -0.1306,0.432102 1.851501,9.746101 0.0733,0.300701 0.0049,0.612701 -0.1865,0.856399 z M 57.547047,36.813 l -3.2822,1.491699 c -0.467301,0.212501 -0.672501,0.7961 -0.538101,1.214302 l 2.8731,8.992699 h -14.1973 l 2.834999,-8.8765 c 0.191502,-0.5965 -0.270699,-1.306098 -0.954102,-1.306098 h -1.138698 c -6.218201,0 -10.226799,-2.766201 -10.899399,-3.037102 -0.57518,-0.302799 -0.8223,-1.007301 -0.5625,-1.603001 0.293499,-0.671497 1.111198,-0.961799 1.7724,-0.578701 3.473698,2.023503 7.4356,3.093304 11.4561,3.093304 l 6.640599,-0.0039 c 2.855098,-0.002 4.566299,-1.3475 5.637699,-1.798298 1.526401,-0.773503 2.3652,-2.428301 2.086902,-4.118203 l -0.832,-5.040498 c -0.1026,-0.620201 0.285099,-1.216301 0.8652,-1.3291 0.493198,-0.0996 1.067421,0.285099 1.171898,0.838799 l 0.895523,4.6455 c 0.591777,3.0713 -0.982422,6.120201 -3.83012,7.4151 z"
       style="fill:#ca6af1;fill-opacity:1;stroke:#ca6af1;stroke-width:0.19466919;stroke-miterlimit:4;stroke-dasharray:none;stroke-opacity:1" /><path
       inkscape:connector-curvature="0"
       id="path10"
       d="m 4.585166,30.9365 6.23148,7.2799 v 9.410099 l -3.2139,11.275803 c -0.3115001,1.094799 -0.0957,2.245098 0.5908003,3.155296 0.6904001,0.913601 1.7431993,1.4375 2.8876997,1.4375 1.5938,0 2.9814,-1.021999 3.4531,-2.544899 l 3.416,-11.097198 1.6094,1.9873 c 1.79842,2.219799 0.2136,4.500397 -0.1894,7.1978 -0.261801,1.082501 -0.0166,2.205498 0.67182,3.080498 0.68848,0.8745 1.722679,1.376499 2.836,1.376499 h 0.20308 c 1.702199,0 3.1895,-1.209999 3.5361,-2.876999 0.1339,-1.875698 2.808399,-7.535801 -1.167,-13.360298 l -1.185501,-1.735802 v -5.1609 l 3.316401,-3.3162 c 0.781299,-0.781201 1.074199,-1.883801 0.7842,-2.9492 -0.2901,-1.065899 -1.1026,-1.868198 -2.1719,-2.146 -1.85638,-0.481899 -3.7705,-0.726598 -5.688501,-0.726598 H 12.319546 L 9.750166,27.768499 7.5470462,19.4326 C 7.2873459,18.451599 6.5138459,17.6914 5.5285463,17.4482 3.5191658,16.955799 1.7046462,18.7465 2.1593461,20.7554 l 2.21,9.751899 C 4.4054461,30.665501 4.4796462,30.813 4.585166,30.9365 Z M 4.3224463,19.5898 c 0.0928,-0.0903 0.3457193,-0.290501 0.7275996,-0.1997 0.2753,0.0679 0.4912,0.280301 0.5634003,0.5537 l 2.2519999,8.521999 c 0.0322,0.123501 0.0879,0.2393 0.1639996,0.341301 l 2.9844003,4.012701 c 0.1895,0.253899 0.48632,0.403298 0.8028,0.403298 h 8.688399 c 1.749121,0 3.4932,0.222702 5.1866,0.662102 0.528301,0.137199 0.696201,0.5601 0.7441,0.735401 0.0469,0.175296 0.1162,0.625 -0.268579,1.010196 l -3.608721,3.608304 -0.0015,0.0015 -3.4825,3.481998 c -0.443001,0.443001 -1.257201,0.3545 -1.5274,-0.3115 -0.0547,-0.1372 -0.2031,-0.6157 0.2139,-1.019997 l 4.3545,-4.184101 c 0.398399,-0.382801 0.4111,-1.015602 0.0283,-1.414002 -0.382799,-0.397499 -1.015579,-0.410697 -1.413099,-0.0284 l -4.357401,4.1866 c -0.8643,0.835903 -1.130899,2.095703 -0.679699,3.2099 0.797699,1.9743 3.3328,2.442001 4.7959,0.975101 l 1.775399,-1.775299 v 3.4697 c 0,0.201099 0.0605,0.3974 0.173801,0.5639 l 1.3594,1.991199 c 3.4345,5.0294 1.018999,9.839798 0.860399,11.8252 -0.15428,0.744201 -0.8174,1.284198 -1.5772,1.284198 h -0.203079 c -0.496121,0 -0.957121,-0.223598 -1.264721,-0.613796 -0.306599,-0.390102 -0.416,-0.890602 -0.299799,-1.373001 0.2836,-2.272499 2.400799,-5.7164 -0.1992,-8.9268 l -2.791,-3.444801 c -0.2334,-0.287098 -0.607401,-0.420399 -0.9678,-0.352501 -0.362301,0.0703 -0.656201,0.3344 -0.7656,0.6875 l -3.9668,12.888599 c -0.207,0.668003 -0.8408,1.1348 -1.542,1.1348 -0.5117,0 -0.9824,-0.234398 -1.2910002,-0.643097 -0.3057003,-0.404701 -0.4024,-0.916 -0.2636995,-1.402301 l 3.2519997,-11.4097 c 0.0254,-0.0888 0.0381,-0.181103 0.0381,-0.273899 v -9.919403 c 0,-0.102898 -0.0953,-0.481098 -0.240299,-0.650398 L 6.2658463,29.8237 4.1105462,20.313 c -0.0869,-0.3799 0.1191,-0.632401 0.2119001,-0.7232 z"
       style="fill:#ca6af1;fill-opacity:1;stroke:#ca6af1;stroke-width:0.19466919;stroke-miterlimit:4;stroke-dasharray:none;stroke-opacity:1" /></g></svg>