<?xml version="1.0" encoding="UTF-8" standalone="no"?>
<svg
   xmlns:dc="http://purl.org/dc/elements/1.1/"
   xmlns:cc="http://creativecommons.org/ns#"
   xmlns:rdf="http://www.w3.org/1999/02/22-rdf-syntax-ns#"
   xmlns:svg="http://www.w3.org/2000/svg"
   xmlns="http://www.w3.org/2000/svg"
   xmlns:sodipodi="http://sodipodi.sourceforge.net/DTD/sodipodi-0.dtd"
   xmlns:inkscape="http://www.inkscape.org/namespaces/inkscape"
   version="1.1"
   x="0px"
   y="0px"
   viewBox="0 0 48.52 43.400867"
   enable-background="new 0 0 50 50"
   xml:space="preserve"
   id="svg16"
   sodipodi:docname="people-icon1.svg"
   inkscape:version="0.92.2 5c3e80d, 2017-08-06"
   width="48.52"
   height="43.400867"><metadata
     id="metadata22"><rdf:RDF><cc:Work
         rdf:about=""><dc:format>image/svg+xml</dc:format><dc:type
           rdf:resource="http://purl.org/dc/dcmitype/StillImage" /><dc:title></dc:title></cc:Work></rdf:RDF></metadata><defs
     id="defs20"><style
       id="style2"
       type="text/css">
   
    .fil0 {fill:black}
   
  </style></defs><sodipodi:namedview
     pagecolor="#ffffff"
     bordercolor="#666666"
     borderopacity="1"
     objecttolerance="10"
     gridtolerance="10"
     guidetolerance="10"
     inkscape:pageopacity="0"
     inkscape:pageshadow="2"
     inkscape:window-width="1679"
     inkscape:window-height="1003"
     id="namedview18"
     showgrid="false"
     inkscape:zoom="3.776"
     inkscape:cx="78.310276"
     inkscape:cy="14.798845"
     inkscape:window-x="0"
     inkscape:window-y="0"
     inkscape:window-maximized="0"
     inkscape:current-layer="svg16"
     fit-margin-top="0"
     fit-margin-left="0"
     fit-margin-right="0"
     fit-margin-bottom="0" /><g
     id="g10"
     transform="matrix(1.0108411,0,0,1.0108411,-1.0111108,-3.5705938)"><path
       d="M 18.0486,16.9961 29.2606,9.1749 C 30.1668,8.5428 30.389,7.2957 29.7564,6.389 29.1243,5.4833 27.8757,5.2616 26.971,5.8932 l -10.9134,7.6132 -0.0098,-10e-4 H 9.0447 c -0.0321,0 -0.0621,0.0079 -0.0939,0.0095 C 8.4257,13.4144 7.863,13.518 7.397,13.8581 l -5.5752,4.0643 c -1.0074,0.7345 -1.105,2.2052 -0.2003,3.0668 l 5.1273,4.8771 c 0.0924,0.0879 0.1918,0.1637 0.2951,0.2305 v 1.3244 L 3.1431,43.0233 c -0.6424,2.5718 3.2353,3.5565 3.8826,0.9702 l 3.5917,-14.3664 h 3.3879 v 14.8397 c 0,1.105 0.8959,2.0009 2.0009,2.0009 1.105,0 2.0009,-0.8959 2.0009,-2.0009 V 29.6271 h 0.0415 z M 6.1176,19.743 7.0438,19.0678 v 1.5561 z"
       id="path2"
       inkscape:connector-curvature="0"
       style="fill:#cc78f7;fill-opacity:1" /><circle
       cx="12.5462"
       cy="7.5131998"
       r="3.9809"
       id="circle4"
       style="fill:#cc78f7;fill-opacity:1" /><path
       d="m 37.2759,18.3096 c -0.0954,0 -0.4112,0.0292 -0.8091,0.0292 -3.6516,0 -7.5333,-1.7608 -7.5333,-5.0322 v -2.0609 c 0,-0.2 -0.03,-0.3802 -0.0801,-0.5602 l -3.9217,2.7212 c 0.0542,4.4938 3.5973,7.3707 7.7714,8.4487 l -2.7117,14.4622 h 0.8505 l -1.4235,3.0518 c -0.3395,0.7279 -0.2105,1.5891 0.3273,2.1855 l 3.8347,4.2519 c 0.7382,0.8185 2.004,0.8872 2.826,0.1461 0.8207,-0.7401 0.8861,-2.0053 0.1461,-2.826 l -2.9471,-3.2676 1.652,-3.5418 h 3.4205 l 0.5843,4.4797 c 0.0586,0.4465 0.2657,0.8602 0.5882,1.1743 l 3.5953,3.5015 c 0.7894,0.7686 2.0578,0.7556 2.8294,-0.0371 0.7713,-0.7919 0.7542,-2.0585 -0.0371,-2.8294 L 43.1404,39.59 42.7138,36.3174 h 1.8466 L 42.2535,24.0138 c 1.6271,1.3541 2.7446,3.3864 2.7446,5.4883 0,1.105 0.8959,2.0009 2.0009,2.0009 1.105,0 2.0009,-0.8959 2.0009,-2.0009 -10e-5,-5.577 -4.6137,-11.1925 -11.724,-11.1925 z"
       id="path6"
       inkscape:connector-curvature="0"
       style="fill:#451c5a;fill-opacity:1" /><circle
       cx="37.275902"
       cy="13.2136"
       r="4.0956001"
       id="circle8"
       style="fill:#451c5a;fill-opacity:1" /></g></svg>