<?xml version="1.0" encoding="UTF-8" standalone="no"?>
<svg
   xmlns:dc="http://purl.org/dc/elements/1.1/"
   xmlns:cc="http://creativecommons.org/ns#"
   xmlns:rdf="http://www.w3.org/1999/02/22-rdf-syntax-ns#"
   xmlns:svg="http://www.w3.org/2000/svg"
   xmlns="http://www.w3.org/2000/svg"
   xmlns:sodipodi="http://sodipodi.sourceforge.net/DTD/sodipodi-0.dtd"
   xmlns:inkscape="http://www.inkscape.org/namespaces/inkscape"
   version="1.1"
   x="0px"
   y="0px"
   viewBox="0 0 62 62"
   xml:space="preserve"
   id="svg28"
   sodipodi:docname="spam-icon.svg"
   width="62"
   height="62"
   inkscape:version="0.92.2 5c3e80d, 2017-08-06"><metadata
     id="metadata34"><rdf:RDF><cc:Work
         rdf:about=""><dc:format>image/svg+xml</dc:format><dc:type
           rdf:resource="http://purl.org/dc/dcmitype/StillImage" /><dc:title></dc:title></cc:Work></rdf:RDF></metadata><defs
     id="defs32" /><sodipodi:namedview
     pagecolor="#ffffff"
     bordercolor="#666666"
     borderopacity="1"
     objecttolerance="10"
     gridtolerance="10"
     guidetolerance="10"
     inkscape:pageopacity="0"
     inkscape:pageshadow="2"
     inkscape:window-width="1672"
     inkscape:window-height="993"
     id="namedview30"
     showgrid="false"
     fit-margin-top="0"
     fit-margin-left="0"
     fit-margin-right="0"
     fit-margin-bottom="0"
     inkscape:zoom="4.875"
     inkscape:cx="21.544344"
     inkscape:cy="42.692737"
     inkscape:window-x="0"
     inkscape:window-y="0"
     inkscape:window-maximized="0"
     inkscape:current-layer="svg28" /><g
     id="g22"
     transform="translate(-1,-1)"><path
       d="M 60,1 H 32 C 30.346,1 29,2.346 29,4 V 22.593 L 26,20.842 1,35.426 V 63 H 51 V 35.426 L 36.557,27 H 47 v 5.805 L 56.287,27 H 60 c 1.654,0 3,-1.346 3,-3 V 4 C 63,2.346 61.654,1 60,1 Z M 21,34 c 0,-2.757 2.243,-5 5,-5 2.757,0 5,2.243 5,5 0,2.757 -2.243,5 -5,5 -2.757,0 -5,-2.243 -5,-5 z M 26,57.302 31.598,52.637 46.235,61 H 5.765 L 20.401,52.636 Z M 33.238,51.27 49,38.135 V 60.277 Z M 26,54.698 16.382,46.683 C 18.305,43.208 22,41 26,41 c 4.001,0 7.696,2.207 9.618,5.683 z M 18.762,51.27 3,60.277 V 38.135 Z M 48.264,36.145 37.173,45.388 C 35.564,42.672 33.026,40.656 30.084,39.674 31.847,38.401 33,36.335 33,34 c 0,-3.859 -3.14,-7 -7,-7 -3.86,0 -7,3.141 -7,7 0,2.335 1.154,4.401 2.916,5.673 -2.941,0.982 -5.48,2.999 -7.089,5.714 L 3.736,36.145 26,23.158 l 3.19,1.86 C 29.609,26.171 30.705,27 32,27 h 0.586 z M 61,24 c 0,0.552 -0.449,1 -1,1 H 55.713 L 49,29.195 V 25 H 32 c -0.551,0 -1,-0.448 -1,-1 V 4 c 0,-0.552 0.449,-1 1,-1 h 28 c 0.551,0 1,0.448 1,1 z"
       id="path18"
       inkscape:connector-curvature="0" /><path
       d="M 55,9.101 V 7 h 2 V 5 H 55 C 53.897,5 53,5.897 53,7 V 9 H 51 V 5 H 49 V 9 H 47 V 7 C 47,5.897 46.103,5 45,5 h -2 v 2 h 2 V 9 H 44 C 42.983,9 42.037,9.309 41.247,9.833 L 40.879,9.465 C 39.934,8.521 38.678,8 37.343,8 H 35 v 2 h 2.343 c 0.79,0 1.562,0.32 2.121,0.879 l 0.369,0.368 C 39.309,12.038 39,12.983 39,14 c 0,1.017 0.309,1.962 0.833,2.753 l -0.369,0.368 C 38.906,17.68 38.133,18 37.343,18 H 35 v 2 h 2.343 c 1.335,0 2.591,-0.521 3.535,-1.465 l 0.368,-0.368 C 42.037,18.691 42.983,19 44,19 h 1 v 2 h -2 v 2 h 2 c 1.103,0 2,-0.897 2,-2 v -2 h 2 v 4 h 2 v -4 h 2 v 2 c 0,1.103 0.897,2 2,2 h 2 V 21 H 55 V 18.899 C 57.279,18.434 59,16.415 59,14 59,11.585 57.279,9.566 55,9.101 Z M 56.816,13 h -9.198 l -1,-2 H 54 c 1.302,0 2.402,0.839 2.816,2 z M 42.681,16.681 41.319,15.319 C 41.121,14.919 41,14.475 41,14 c 0,-0.475 0.121,-0.919 0.319,-1.319 l 1.362,-1.362 C 43.081,11.121 43.525,11 44,11 h 0.382 l 1.5,3 -1.5,3 H 44 c -0.475,0 -0.919,-0.121 -1.319,-0.319 z M 54,17 h -7.382 l 1,-2 h 9.198 C 56.402,16.161 55.302,17 54,17 Z"
       id="path20"
       inkscape:connector-curvature="0" /></g></svg>